{
.appVersion = "3151";
.formatVersion = 3;
customParameters = (
{
name = vendorID;
value = "1BOU";
},
{
name = panose;
value = (
0,
0,
9,
0,
0,
0,
0,
0,
0,
0
);
},
{
name = unicodeRanges;
value = (
0,
1,
2,
3,
5,
13,
31,
33,
35,
38,
45,
60,
63,
67
);
},
{
name = codePageRanges;
value = (
"1252",
"1256"
);
},
{
name = fsType;
value = (
);
},
{
name = glyphOrder;
value = (
.notdef,
uni000D,
space,
exclam,
quotedbl,
numbersign,
dollar,
percent,
ampersand,
quotesingle,
parenleft,
parenright,
asterisk,
plus,
comma,
hyphen,
period,
slash,
zero,
one,
two,
three,
four,
five,
six,
seven,
eight,
nine,
colon,
semicolon,
less,
equal,
greater,
question,
at,
A,
B,
C,
D,
E,
F,
G,
H,
I,
J,
K,
L,
M,
N,
O,
P,
Q,
R,
S,
T,
U,
V,
W,
X,
Y,
Z,
bracketleft,
backslash,
bracketright,
asciicircum,
underscore,
grave,
a,
b,
c,
d,
e,
f,
g,
h,
i,
j,
k,
l,
m,
n,
o,
p,
q,
r,
s,
t,
u,
v,
w,
x,
y,
z,
braceleft,
bar,
braceright,
asciitilde,
exclamdown,
cent,
sterling,
yen,
brokenbar,
section,
dieresis,
copyright,
ordfeminine,
guillemotleft,
uni00AD,
registered,
macron,
degree,
plusminus,
twosuperior,
threesuperior,
acute,
paragraph,
periodcentered,
cedilla,
onesuperior,
ordmasculine,
guillemotright,
onequarter,
onehalf,
threequarters,
questiondown,
Agrave,
Aacute,
Acircumflex,
Atilde,
Adieresis,
Aring,
AE,
Ccedilla,
Egrave,
Eacute,
Ecircumflex,
Edieresis,
Igrave,
Iacute,
Icircumflex,
Idieresis,
Eth,
Ntilde,
Ograve,
Oacute,
Ocircumflex,
Otilde,
Odieresis,
multiply,
Oslash,
Ugrave,
Uacute,
Ucircumflex,
Udieresis,
Yacute,
Thorn,
germandbls,
agrave,
aacute,
acircumflex,
atilde,
adieresis,
aring,
ae,
ccedilla,
egrave,
eacute,
ecircumflex,
edieresis,
igrave,
iacute,
icircumflex,
idieresis,
eth,
ntilde,
ograve,
oacute,
ocircumflex,
otilde,
odieresis,
divide,
oslash,
ugrave,
uacute,
ucircumflex,
udieresis,
yacute,
thorn,
ydieresis,
dotlessi,
Lslash,
lslash,
OE,
oe,
Scaron,
scaron,
Ydieresis,
Zcaron,
zcaron,
florin,
circumflex,
caron,
breve,
dotaccent,
ring,
ogonek,
tilde,
hungarumlaut,
uni03BC,
uni060C,

glyphs = (
{
glyphname = .notdef;
layers = (
{
layerId = m01;
shapes = (
{
closed = 1;
nodes = (
(79,-206,l),
(445,-206,l),
(445,497,l),
(79,497,l)
);
},
{
closed = 1;
nodes = (
(506,559,l),
(506,-268,l),
(18,-268,l),
(18,559,l)
);
},
{
closed = 1;
nodes = (
(214,-100,o),
(192,-78,o),
(192,-48,cs),
(192,-18,o),
(214,3,o),
(243,3,cs),
(271,3,o),
(293,-18,o),
(293,-48,cs),
(293,-78,o),
(271,-100,o),
(243,-100,cs)
);
},
{
closed = 1;
nodes = (
(208,77,ls),
(208,160,o),
(324,175,o),
(324,252,cs),
(324,291,o),
(297,314,o),
(250,314,cs),
(208,314,o),
(178,304,o),
(140,283,cs),
(134,280,o),
(131,279,o),
(129,279,cs),
(124,279,o),
(122,281,o),
(120,286,cs),
(114,305,ls),
(105,335,o),
(113,353,o),
(148,368,cs),
(178,381,o),
(208,390,o),
(251,390,cs),
(344,390,o),
(409,347,o),
(409,264,cs),
(409,191,o),
(360,149,o),
(293,99,cs),
(279,88,o),
(276,81,o),
(276,67,cs),
(276,49,ls),
(276,43,o),
(274,40,o),
(268,40,cs),
(217,40,ls),
(210,40,o),
(208,43,o),
(208,49,cs)
);
}
);
width = 524;
}
);
note = ".notdef";
},
{
glyphname = exclam;
layers = (
{
layerId = m01;
shapes = (
{
closed = 1;
nodes = (
(120,-10,o),
(145,15,o),
(145,51,cs),
(145,86,o),
(120,111,o),
(86,111,cs),
(54,111,o),
(27,86,o),
(27,51,cs),
(27,16,o),
(54,-10,o),
(86,-10,cs)
);
},
{
closed = 1;
nodes = (
(47,158,o),
(50,155,o),
(58,155,cs),
(116,155,ls),
(124,155,o),
(126,158,o),
(126,166,cs),
(134,468,ls),
(135,531,o),
(106,556,o),
(56,556,cs),
(47,556,ls),
(40,556,o),
(37,552,o),
(37,544,cs),
(47,166,ls)
);
}
);
width = 175;
}
);
note = exclam;
unicode = 33;
},
{
glyphname = quotedbl;
layers = (
{
layerId = m01;
shapes = (
{
closed = 1;
nodes = (
(45,364,o),
(47,362,o),
(54,362,cs),
(99,362,ls),
(107,362,o),
(109,364,o),
(110,372,cs),
(119,473,ls),
(126,539,o),
(107,556,o),
(55,556,cs),
(38,556,ls),
(30,556,o),
(26,552,o),
(27,544,cs),
(44,372,ls)
);
},
{
closed = 1;
nodes = (
(187,364,o),
(189,362,o),
(197,362,cs),
(243,362,ls),
(250,362,o),
(253,364,o),
(254,372,cs),
(263,473,ls),
(270,539,o),
(251,556,o),
(197,556,cs),
(180,556,ls),
(173,556,o),
(169,552,o),
(170,544,cs),
(186,372,ls)
);
}
);
width = 289;
}
);
note = quotedbl;
unicode = 34;
},
{
glyphname = numbersign;
layers = (
{
layerId = m01;
shapes = (
{
closed = 1;
nodes = (
(63,11,ls),
(61,5,o),
(64,0,o),
(71,0,cs),
(141,0,ls),
(147,0,o),
(150,4,o),
(152,11,cs),
(185,143,l),
(315,143,l),
(284,11,ls),
(283,5,o),
(285,0,o),
(292,0,cs),
(363,0,ls),
(369,0,o),
(372,4,o),
(374,11,cs),
(405,143,l),
(468,143,ls),
(475,143,o),
(479,147,o),
(482,154,c),
(493,199,ls),
(495,206,o),
(493,210,o),
(484,210,cs),
(422,210,l),
(455,342,l),
(518,342,ls),
(525,342,o),
(529,344,o),
(532,353,cs),
(543,398,ls),
(545,406,o),
(543,408,o),
(534,408,cs),
(470,408,l),
(492,493,ls),
(501,532,o),
(489,556,o),
(450,556,cs),
(429,556,ls),
(420,556,o),
(417,552,o),
(414,544,c),
(382,408,l),
(250,408,l),
(272,493,ls),
(280,532,o),
(269,556,o),
(230,556,cs),
(207,556,ls),
(200,556,o),
(196,552,o),
(194,544,cs),
(160,408,l),
(97,408,ls),
(90,408,o),
(86,406,o),
(84,398,cs),
(73,353,ls),
(71,344,o),
(74,342,o),
(81,342,cs),
(144,342,l),
(111,210,l),
(48,210,ls),
(40,210,o),
(37,206,o),
(35,199,cs),
(23,154,ls),
(21,147,o),
(24,143,o),
(32,143,cs),
(94,143,l)
);
},
{
closed = 1;
nodes = (
(235,342,l),
(365,342,l),
(332,210,l),
(201,210,l)
);
}
);
width = 564;
}
);
note = numbersign;
unicode = 35;
},
{
glyphname = dollar;
layers = (
{
layerId = m01;
shapes = (
{
closed = 1;
nodes = (
(138,77,o),
(91,105,o),
(50,147,cs),
(46,151,o),
(43,152,o),
(38,152,cs),
(31,152,o),
(24,144,o),
(24,131,cs),
(24,68,o),
(83,-6,o),
(212,-10,c),
(212,-54,ls),
(212,-62,o),
(215,-65,o),
(223,-65,cs),
(255,-65,ls),
(263,-65,o),
(266,-62,o),
(266,-54,cs),
(266,-8,l),
(368,6,o),
(433,73,o),
(433,163,cs),
(433,264,o),
(345,294,o),
(266,321,c),
(266,478,l),
(308,473,o),
(345,462,o),
(380,443,c),
(386,441,o),
(391,438,o),
(396,438,cs),
(402,438,o),
(403,442,o),
(406,449,c),
(411,469,ls),
(420,506,o),
(411,528,o),
(370,543,cs),
(340,554,o),
(305,563,o),
(266,566,c),
(266,611,ls),
(266,618,o),
(263,621,o),
(255,621,cs),
(223,621,ls),
(215,621,o),
(212,618,o),
(212,611,cs),
(212,566,l),
(116,557,o),
(42,499,o),
(42,408,cs),
(42,303,o),
(131,271,o),
(212,244,c),
(212,76,l)
);
},
{
closed = 1;
nodes = (
(307,208,o),
(338,189,o),
(338,152,cs),
(338,114,o),
(315,89,o),
(266,79,c),
(266,225,l)
);
},
{
closed = 1;
nodes = (
(168,356,o),
(135,376,o),
(135,413,cs),
(135,451,o),
(164,474,o),
(212,479,c),
(212,339,l)
);
}
);
width = 462;
}
);
note = dollar;
unicode = 36;
},
{
glyphname = percent;
layers = (
{
layerId = m01;
shapes = (
{
closed = 1;
nodes = (
(584,59,o),
(548,79,o),
(548,162,cs),
(548,246,o),
(584,268,o),
(620,268,cs),
(654,268,o),
(691,246,o),
(691,162,cs),
(691,79,o),
(654,59,o),
(620,59,cs)
);
},
{
closed = 1;
nodes = (
(141,289,o),
(105,309,o),
(105,393,cs),
(105,477,o),
(141,498,o),
(175,498,cs),
(210,498,o),
(248,477,o),
(248,393,cs),
(248,309,o),
(210,289,o),
(175,289,cs)
);
},
{
closed = 1;
nodes = (
(282,0,ls),
(289,0,o),
(294,3,o),
(298,11,cs),
(561,489,ls),
(581,526,o),
(569,556,o),
(530,556,cs),
(512,556,ls),
(504,556,o),
(500,552,o),
(495,544,cs),
(203,11,ls),
(200,6,o),
(200,0,o),
(208,0,cs)
);
},
{
closed = 1;
nodes = (
(707,-9,o),
(766,61,o),
(766,163,cs),
(766,267,o),
(707,334,o),
(620,334,cs),
(532,334,o),
(473,267,o),
(473,163,cs),
(473,61,o),
(532,-9,o),
(620,-9,cs)
);
},
{
closed = 1;
nodes = (
(264,223,o),
(322,292,o),
(322,396,cs),
(322,497,o),
(264,566,o),
(175,566,cs),
(88,566,o),
(31,497,o),
(31,396,cs),
(31,292,o),
(88,223,o),
(175,223,cs)
);
}
);
width = 797;
}
);
note = percent;
unicode = 37;
},
{
glyphname = ampersand;
layers = (
{
layerId = m01;
shapes = (
{
closed = 1;
nodes = (
(360,323,o),
(420,372,o),
(420,438,cs),
(420,517,o),
(358,566,o),
(257,566,cs),
(159,566,o),
(93,513,o),
(93,433,cs),
(93,381,o),
(119,344,o),
(155,304,c),
(91,272,o),
(36,230,o),
(36,150,cs),
(36,60,o),
(103,-7,o),
(209,-7,cs),
(275,-7,o),
(325,21,o),
(360,64,c),
(387,32,ls),
(403,11,o),
(422,0,o),
(460,0,cs),
(517,0,ls),
(522,0,o),
(525,7,o),
(522,12,c),
(418,138,l),
(517,279,l),
(522,284,o),
(518,289,o),
(512,289,cs),
(444,289,ls),
(434,289,o),
(428,287,o),
(423,278,c),
(367,198,l),
(290,284,l)
);
},
{
closed = 1;
nodes = (
(217,369,o),
(192,403,o),
(192,433,cs),
(192,467,o),
(220,492,o),
(259,492,cs),
(299,492,o),
(327,467,o),
(327,433,cs),
(327,392,o),
(289,364,o),
(245,342,c)
);
},
{
closed = 1;
nodes = (
(285,93,o),
(263,72,o),
(218,72,cs),
(170,72,o),
(134,101,o),
(134,152,cs),
(134,198,o),
(167,223,o),
(208,246,c),
(312,123,l)
);
}
);
width = 543;
}
);
note = ampersand;
unicode = 38;
},
{
glyphname = quotesingle;
layers = (
{
layerId = m01;
shapes = (
{
closed = 1;
nodes = (
(45,364,o),
(47,362,o),
(54,362,cs),
(99,362,ls),
(107,362,o),
(109,364,o),
(110,372,cs),
(119,473,ls),
(126,539,o),
(107,556,o),
(55,556,cs),
(38,556,ls),
(30,556,o),
(26,552,o),
(27,544,cs),
(44,372,ls)
);
}
);
width = 147;
}
);
note = quotesingle;
unicode = 39;
},
{
glyphname = parenleft;
layers = (
{
layerId = m01;
shapes = (
{
closed = 1;
nodes = (
(48,23,o),
(175,-115,o),
(275,-144,cs),
(281,-146,o),
(285,-147,o),
(285,-138,cs),
(285,-133,o),
(286,-124,o),
(285,-117,c),
(284,-66,o),
(266,-59,o),
(251,-44,cs),
(171,36,o),
(136,134,o),
(136,276,cs),
(136,418,o),
(171,516,o),
(251,597,cs),
(266,612,o),
(284,618,o),
(285,669,c),
(286,676,o),
(285,686,o),
(285,691,cs),
(285,699,o),
(281,698,o),
(275,697,c),
(175,667,o),
(48,530,o),
(49,276,cs)
);
}
);
width = 330;
}
);
note = parenleft;
unicode = 40;
},
{
glyphname = parenright;
layers = (
{
layerId = m01;
shapes = (
{
closed = 1;
nodes = (
(282,530,o),
(155,667,o),
(55,697,c),
(48,698,o),
(45,699,o),
(45,691,cs),
(45,686,o),
(44,676,o),
(45,669,c),
(46,618,o),
(63,612,o),
(78,597,cs),
(159,516,o),
(194,418,o),
(193,276,cs),
(194,134,o),
(159,36,o),
(78,-44,cs),
(63,-59,o),
(46,-66,o),
(45,-117,c),
(44,-124,o),
(45,-133,o),
(45,-138,cs),
(45,-147,o),
(48,-146,o),
(55,-144,cs),
(155,-115,o),
(282,23,o),
(281,276,cs)
);
}
);
width = 330;
}
);
note = parenright;
unicode = 41;
},
{
glyphname = asterisk;
layers = (
{
layerId = m01;
shapes = (
{
closed = 1;
nodes = (
(69,292,ls),
(65,287,o),
(66,282,o),
(72,278,cs),
(119,245,ls),
(124,241,o),
(130,241,o),
(134,247,cs),
(185,331,l),
(237,247,ls),
(241,241,o),
(246,241,o),
(252,245,cs),
(300,278,ls),
(305,282,o),
(305,287,o),
(301,292,cs),
(241,368,l),
(334,392,ls),
(340,393,o),
(341,398,o),
(340,406,c),
(321,461,l),
(320,467,o),
(315,469,o),
(309,467,cs),
(220,431,l),
(226,527,ls),
(227,536,o),
(222,538,o),
(216,538,cs),
(155,538,ls),
(147,538,o),
(142,536,o),
(144,527,c),
(151,431,l),
(62,467,l),
(55,471,o),
(51,467,o),
(49,461,cs),
(30,406,ls),
(28,398,o),
(30,393,o),
(37,392,c),
(131,368,l)
);
}
);
width = 368;
}
);
note = asterisk;
unicode = 42;
},
{
glyphname = plus;
layers = (
{
layerId = m01;
shapes = (
{
closed = 1;
nodes = (
(166,96,ls),
(166,89,o),
(169,86,o),
(177,86,cs),
(241,86,ls),
(249,86,o),
(252,89,o),
(252,96,cs),
(252,231,l),
(374,231,ls),
(382,231,o),
(385,234,o),
(385,242,cs),
(385,299,ls),
(385,308,o),
(382,311,o),
(374,311,cs),
(252,311,l),
(252,383,ls),
(252,437,o),
(231,457,o),
(177,457,cs),
(169,457,o),
(166,453,o),
(166,446,cs),
(166,311,l),
(44,311,ls),
(36,311,o),
(33,308,o),
(33,299,cs),
(33,242,ls),
(33,234,o),
(36,231,o),
(44,231,cs),
(166,231,l)
);
}
);
width = 418;
}
);
note = plus;
unicode = 43;
},
{
glyphname = comma;
layers = (
{
layerId = m01;
shapes = (
{
closed = 1;
nodes = (
(68,-26,o),
(56,-42,o),
(45,-53,cs),
(33,-66,o),
(32,-82,o),
(46,-96,cs),
(48,-98,o),
(53,-100,o),
(58,-96,cs),
(106,-58,o),
(140,-13,o),
(140,50,cs),
(140,88,o),
(116,111,o),
(81,111,cs),
(48,111,o),
(22,86,o),
(22,51,cs),
(22,20,o),
(43,-4,o),
(71,-9,c)
);
}
);
width = 162;
}
);
note = comma;
unicode = 44;
},
{
glyphname = hyphen;
layers = (
{
layerId = m01;
shapes = (
{
closed = 1;
nodes = (
(254,158,ls),
(262,158,o),
(265,162,o),
(265,169,cs),
(265,238,ls),
(265,245,o),
(262,249,o),
(254,249,cs),
(44,249,ls),
(36,249,o),
(33,245,o),
(33,238,cs),
(33,169,ls),
(33,162,o),
(36,158,o),
(44,158,cs)
);
}
);
width = 297;
}
);
note = hyphen;
unicode = 45;
},
{
glyphname = period;
layers = (
{
layerId = m01;
shapes = (
{
closed = 1;
nodes = (
(63,112,o),
(35,84,o),
(35,49,cs),
(35,15,o),
(63,-13,o),
(96,-13,cs),
(129,-13,o),
(157,15,o),
(157,49,cs),
(157,84,o),
(129,112,o),
(96,112,cs)
);
}
);
width = 192;
}
);
note = period;
unicode = 46;
},
{
glyphname = slash;
layers = (
{
layerId = m01;
shapes = (
{
closed = 1;
nodes = (
(77,0,ls),
(86,0,o),
(91,3,o),
(93,11,c),
(292,482,ls),
(310,523,o),
(295,556,o),
(257,556,cs),
(245,556,ls),
(237,556,o),
(231,552,o),
(228,544,cs),
(2,11,ls),
(0,6,o),
(1,0,o),
(9,0,cs)
);
}
);
width = 299;
}
);
note = slash;
unicode = 47;
},
{
glyphname = zero;
layers = (
{
layerId = m01;
shapes = (
{
closed = 1;
nodes = (
(180,82,o),
(140,133,o),
(140,278,cs),
(140,423,o),
(180,474,o),
(251,474,cs),
(321,474,o),
(363,423,o),
(363,278,cs),
(363,133,o),
(323,82,o),
(251,82,cs)
);
},
{
closed = 1;
nodes = (
(386,-10,o),
(460,92,o),
(460,278,cs),
(460,463,o),
(383,566,o),
(251,566,cs),
(118,566,o),
(42,463,o),
(42,278,cs),
(42,92,o),
(115,-10,o),
(251,-10,cs)
);
}
);
width = 502;
}
);
note = zero;
unicode = 48;
},
{
glyphname = one;
layers = (
{
layerId = m01;
shapes = (
{
closed = 1;
nodes = (
(42,89,ls),
(34,89,o),
(31,86,o),
(31,78,cs),
(31,11,ls),
(31,3,o),
(34,0,o),
(42,0,cs),
(330,0,ls),
(339,0,o),
(344,6,o),
(344,14,cs),
(344,34,ls),
(344,69,o),
(324,89,o),
(285,89,cs),
(233,89,l),
(233,494,ls),
(233,533,o),
(213,556,o),
(173,556,cs),
(153,556,ls),
(136,556,o),
(118,551,o),
(102,546,cs),
(45,526,l),
(37,522,o),
(32,517,o),
(32,507,cs),
(32,436,ls),
(32,428,o),
(38,426,o),
(44,428,cs),
(136,461,l),
(136,89,l)
);
}
);
width = 363;
}
);
note = one;
unicode = 49;
},
{
glyphname = two;
layers = (
{
layerId = m01;
shapes = (
{
closed = 1;
nodes = (
(164,192,o),
(408,225,o),
(408,408,cs),
(408,513,o),
(331,566,o),
(224,566,cs),
(171,566,o),
(129,556,o),
(91,542,cs),
(51,527,o),
(41,503,o),
(51,467,c),
(60,444,l),
(61,439,o),
(65,437,o),
(69,437,cs),
(73,437,o),
(76,438,o),
(81,441,cs),
(123,463,o),
(166,479,o),
(215,479,cs),
(274,479,o),
(309,452,o),
(309,403,cs),
(309,252,o),
(32,272,o),
(32,11,cs),
(32,3,o),
(35,0,o),
(43,0,cs),
(400,0,ls),
(409,0,o),
(413,6,o),
(413,14,cs),
(413,35,ls),
(413,71,o),
(394,89,o),
(355,89,cs),
(150,89,l)
);
}
);
width = 456;
}
);
note = two;
unicode = 50;
},
{
glyphname = three;
layers = (
{
layerId = m01;
shapes = (
{
closed = 1;
nodes = (
(360,314,o),
(393,361,o),
(393,417,cs),
(393,517,o),
(312,566,o),
(209,566,cs),
(158,566,o),
(115,556,o),
(80,542,cs),
(40,527,o),
(28,503,o),
(40,467,cs),
(48,446,ls),
(50,439,o),
(52,437,o),
(57,437,cs),
(62,437,o),
(66,439,o),
(71,443,c),
(110,466,o),
(149,481,o),
(203,481,cs),
(259,481,o),
(294,456,o),
(294,407,cs),
(294,359,o),
(268,329,o),
(207,329,cs),
(114,329,ls),
(105,329,o),
(100,323,o),
(100,314,cs),
(100,289,ls),
(100,254,o),
(117,242,o),
(155,242,cs),
(215,242,ls),
(270,242,o),
(313,220,o),
(313,165,cs),
(313,110,o),
(270,77,o),
(202,77,cs),
(132,77,o),
(89,106,o),
(54,141,cs),
(47,149,o),
(43,150,o),
(37,150,cs),
(27,150,o),
(21,140,o),
(21,126,cs),
(21,71,o),
(79,-10,o),
(210,-10,cs),
(333,-10,o),
(410,62,o),
(410,162,cs),
(410,233,o),
(369,274,o),
(309,291,c)
);
}
);
width = 447;
}
);
note = three;
unicode = 51;
},
{
glyphname = four;
layers = (
{
layerId = m01;
shapes = (
{
closed = 1;
nodes = (
(276,11,ls),
(276,3,o),
(278,0,o),
(286,0,cs),
(362,0,ls),
(369,0,o),
(372,3,o),
(372,11,cs),
(372,118,l),
(448,118,ls),
(457,118,o),
(461,123,o),
(461,132,cs),
(461,151,ls),
(461,187,o),
(442,207,o),
(404,207,cs),
(372,207,l),
(372,497,ls),
(372,537,o),
(351,556,o),
(313,556,cs),
(270,556,ls),
(248,556,o),
(238,546,o),
(230,533,cs),
(23,213,ls),
(15,200,o),
(13,195,o),
(13,182,cs),
(13,129,ls),
(13,121,o),
(16,118,o),
(24,118,cs),
(276,118,l)
);
},
{
closed = 1;
nodes = (
(276,448,l),
(276,207,l),
(117,207,l)
);
}
);
width = 481;
}
);
note = four;
unicode = 52;
},
{
glyphname = five;
layers = (
{
layerId = m01;
shapes = (
{
closed = 1;
nodes = (
(373,467,ls),
(383,467,o),
(388,472,o),
(388,481,cs),
(388,499,ls),
(388,536,o),
(368,556,o),
(329,556,cs),
(61,556,ls),
(54,556,o),
(51,552,o),
(51,544,cs),
(51,261,ls),
(51,253,o),
(56,249,o),
(65,252,cs),
(101,264,o),
(150,276,o),
(209,276,cs),
(277,276,o),
(322,243,o),
(322,181,cs),
(322,115,o),
(279,77,o),
(205,77,cs),
(138,77,o),
(92,104,o),
(59,138,cs),
(52,146,o),
(47,148,o),
(42,148,cs),
(32,148,o),
(26,139,o),
(26,123,cs),
(26,59,o),
(96,-10,o),
(215,-10,cs),
(328,-10,o),
(419,65,o),
(419,185,cs),
(419,293,o),
(349,361,o),
(232,361,cs),
(193,361,o),
(165,354,o),
(144,349,c),
(144,467,l)
);
}
);
width = 456;
}
);
note = five;
unicode = 53;
},
{
glyphname = six;
layers = (
{
layerId = m01;
shapes = (
{
closed = 1;
nodes = (
(274,462,ls),
(306,517,o),
(284,566,o),
(240,566,cs),
(233,566,o),
(228,563,o),
(223,556,cs),
(105,363,ls),
(59,286,o),
(37,237,o),
(37,180,cs),
(37,69,o),
(123,-10,o),
(244,-10,cs),
(364,-10,o),
(444,73,o),
(444,192,cs),
(444,286,o),
(373,374,o),
(260,374,cs),
(241,374,o),
(229,371,o),
(215,367,c)
);
},
{
closed = 1;
nodes = (
(134,246,o),
(178,292,o),
(241,292,cs),
(305,292,o),
(348,245,o),
(348,183,cs),
(348,121,o),
(305,77,o),
(243,77,cs),
(176,77,o),
(134,120,o),
(134,183,cs)
);
}
);
width = 474;
}
);
note = six;
unicode = 54;
},
{
glyphname = seven;
layers = (
{
layerId = m01;
shapes = (
{
closed = 1;
nodes = (
(79,11,ls),
(77,6,o),
(79,0,o),
(85,0,cs),
(165,0,ls),
(175,0,o),
(179,3,o),
(183,12,cs),
(375,437,ls),
(384,457,o),
(387,467,o),
(387,487,cs),
(387,499,ls),
(387,536,o),
(367,556,o),
(329,556,cs),
(34,556,ls),
(26,556,o),
(23,552,o),
(23,544,cs),
(23,477,ls),
(23,469,o),
(26,467,o),
(34,467,cs),
(285,467,l)
);
}
);
width = 421;
}
);
note = seven;
unicode = 55;
},
{
glyphname = eight;
layers = (
{
layerId = m01;
shapes = (
{
closed = 1;
nodes = (
(128,217,o),
(173,250,o),
(239,250,cs),
(303,250,o),
(348,217,o),
(348,158,cs),
(348,107,o),
(307,70,o),
(239,70,cs),
(169,70,o),
(128,107,o),
(128,158,cs)
);
},
{
closed = 1;
nodes = (
(140,457,o),
(179,487,o),
(239,487,cs),
(297,487,o),
(335,457,o),
(335,408,cs),
(335,363,o),
(299,329,o),
(239,329,cs),
(175,329,o),
(140,363,o),
(140,408,cs)
);
},
{
closed = 1;
nodes = (
(61,268,o),
(31,216,o),
(31,157,cs),
(31,62,o),
(106,-10,o),
(239,-10,cs),
(369,-10,o),
(445,62,o),
(445,157,cs),
(445,216,o),
(415,268,o),
(344,292,c),
(393,314,o),
(430,353,o),
(430,419,cs),
(430,511,o),
(349,566,o),
(239,566,cs),
(127,566,o),
(46,511,o),
(46,419,cs),
(46,353,o),
(83,314,o),
(131,292,c)
);
}
);
width = 476;
}
);
note = eight;
unicode = 56;
},
{
glyphname = nine;
layers = (
{
layerId = m01;
shapes = (
{
closed = 1;
nodes = (
(202,92,ls),
(170,42,o),
(188,-10,o),
(235,-10,cs),
(244,-10,o),
(249,-6,o),
(254,2,cs),
(369,193,ls),
(418,271,o),
(438,319,o),
(438,376,cs),
(438,488,o),
(355,566,o),
(235,566,cs),
(116,566,o),
(31,483,o),
(31,362,cs),
(31,268,o),
(101,181,o),
(213,181,cs),
(230,181,o),
(245,185,o),
(262,191,c)
);
},
{
closed = 1;
nodes = (
(168,264,o),
(127,307,o),
(127,373,cs),
(127,434,o),
(170,478,o),
(234,478,cs),
(299,478,o),
(340,436,o),
(340,373,cs),
(340,309,o),
(297,264,o),
(234,264,cs)
);
}
);
width = 474;
}
);
note = nine;
unicode = 57;
},
{
glyphname = colon;
layers = (
{
layerId = m01;
shapes = (
{
closed = 1;
nodes = (
(66,329,o),
(38,302,o),
(38,267,cs),
(38,233,o),
(66,205,o),
(99,205,cs),
(133,205,o),
(160,233,o),
(160,267,cs),
(160,302,o),
(133,329,o),
(99,329,cs)
);
},
{
closed = 1;
nodes = (
(66,112,o),
(38,84,o),
(38,49,cs),
(38,15,o),
(66,-13,o),
(99,-13,cs),
(133,-13,o),
(160,15,o),
(160,49,cs),
(160,84,o),
(133,112,o),
(99,112,cs)
);
}
);
width = 198;
}
);
note = colon;
unicode = 58;
},
{
glyphname = semicolon;
layers = (
{
layerId = m01;
shapes = (
{
closed = 1;
nodes = (
(125,219,o),
(150,245,o),
(150,279,cs),
(150,314,o),
(125,339,o),
(91,339,cs),
(58,339,o),
(32,314,o),
(32,279,cs),
(32,245,o),
(58,219,o),
(91,219,cs)
);
},
{
closed = 1;
nodes = (
(78,-26,o),
(66,-42,o),
(55,-53,cs),
(43,-66,o),
(42,-82,o),
(56,-96,cs),
(58,-98,o),
(63,-100,o),
(68,-96,cs),
(116,-58,o),
(150,-13,o),
(150,50,cs),
(150,88,o),
(126,111,o),
(91,111,cs),
(58,111,o),
(32,86,o),
(32,51,cs),
(32,20,o),
(53,-4,o),
(81,-9,c)
);
}
);
width = 182;
}
);
note = semicolon;
unicode = 59;
},
{
glyphname = less;
layers = (
{
layerId = m01;
shapes = (
{
closed = 1;
nodes = (
(398,373,ls),
(409,378,o),
(413,383,o),
(413,393,cs),
(413,457,ls),
(413,462,o),
(407,464,o),
(400,462,c),
(44,309,ls),
(36,306,o),
(33,301,o),
(33,293,cs),
(33,248,ls),
(33,238,o),
(36,234,o),
(44,230,cs),
(402,76,ls),
(409,73,o),
(413,76,o),
(413,83,cs),
(413,86,ls),
(413,138,o),
(398,167,o),
(345,189,cs),
(150,271,l)
);
}
);
width = 452;
}
);
note = less;
unicode = 60;
},
{
glyphname = equal;
layers = (
{
layerId = m01;
shapes = (
{
closed = 1;
nodes = (
(374,319,ls),
(382,319,o),
(385,322,o),
(385,329,cs),
(385,343,ls),
(385,378,o),
(364,399,o),
(324,399,cs),
(44,399,ls),
(36,399,o),
(33,397,o),
(33,389,cs),
(33,329,ls),
(33,322,o),
(36,319,o),
(44,319,cs)
);
},
{
closed = 1;
nodes = (
(374,140,ls),
(382,140,o),
(385,143,o),
(385,151,cs),
(385,163,ls),
(385,199,o),
(364,221,o),
(324,221,cs),
(44,221,ls),
(36,221,o),
(33,217,o),
(33,210,cs),
(33,151,ls),
(33,143,o),
(36,140,o),
(44,140,cs)
);
}
);
width = 418;
}
);
note = equal;
unicode = 61;
},
{
glyphname = greater;
layers = (
{
layerId = m01;
shapes = (
{
closed = 1;
nodes = (
(106,189,ls),
(54,167,o),
(39,138,o),
(39,86,cs),
(39,83,ls),
(39,76,o),
(43,73,o),
(49,76,cs),
(408,230,ls),
(415,233,o),
(418,238,o),
(418,248,cs),
(418,293,ls),
(418,301,o),
(415,306,o),
(408,309,cs),
(51,462,l),
(44,464,o),
(39,462,o),
(39,457,cs),
(39,393,ls),
(39,383,o),
(43,378,o),
(54,373,cs),
(301,271,l)
);
}
);
width = 452;
}
);
note = greater;
unicode = 62;
},
{
glyphname = question;
layers = (
{
layerId = m01;
shapes = (
{
closed = 1;
nodes = (
(210,-10,o),
(236,16,o),
(236,51,cs),
(236,86,o),
(210,111,o),
(177,111,cs),
(143,111,o),
(117,86,o),
(117,51,cs),
(117,16,o),
(143,-10,o),
(177,-10,cs)
);
},
{
closed = 1;
nodes = (
(135,158,o),
(138,155,o),
(146,155,cs),
(206,155,ls),
(213,155,o),
(216,158,o),
(216,166,cs),
(216,187,ls),
(216,203,o),
(219,212,o),
(235,224,cs),
(314,283,o),
(372,333,o),
(372,418,cs),
(372,516,o),
(295,566,o),
(187,566,cs),
(136,566,o),
(100,556,o),
(65,541,cs),
(24,523,o),
(14,502,o),
(25,467,cs),
(32,444,ls),
(34,438,o),
(37,436,o),
(42,436,cs),
(45,436,o),
(49,437,o),
(55,441,cs),
(100,466,o),
(135,477,o),
(185,477,cs),
(240,477,o),
(272,451,o),
(272,404,cs),
(272,314,o),
(135,296,o),
(135,199,cs),
(135,166,ls)
);
}
);
width = 398;
}
);
note = question;
unicode = 63;
},
{
glyphname = at;
layers = (
{
layerId = m01;
shapes = (
{
closed = 1;
nodes = (
(311,114,o),
(283,156,o),
(283,208,cs),
(283,274,o),
(321,324,o),
(381,324,cs),
(432,324,o),
(460,289,o),
(460,239,cs),
(460,166,o),
(426,114,o),
(363,114,cs)
);
},
{
closed = 1;
nodes = (
(462,71,o),
(488,32,o),
(540,32,cs),
(646,32,o),
(725,135,o),
(725,267,cs),
(725,458,o),
(570,568,o),
(395,568,cs),
(197,568,o),
(39,416,o),
(39,220,cs),
(39,4,o),
(182,-137,o),
(398,-137,cs),
(560,-137,o),
(645,-45,o),
(645,-3,cs),
(645,4,o),
(641,9,o),
(636,9,cs),
(630,9,o),
(626,6,o),
(620,1,cs),
(576,-31,o),
(512,-62,o),
(406,-62,cs),
(241,-62,o),
(124,40,o),
(124,221,cs),
(124,374,o),
(236,493,o),
(393,493,cs),
(540,493,o),
(642,413,o),
(642,262,cs),
(642,155,o),
(602,107,o),
(561,107,cs),
(547,107,o),
(538,115,o),
(538,132,cs),
(538,140,o),
(540,152,o),
(541,163,cs),
(562,389,ls),
(563,397,o),
(560,401,o),
(553,401,cs),
(550,401,ls),
(513,401,o),
(487,386,o),
(477,349,c),
(460,381,o),
(423,408,o),
(368,408,cs),
(267,408,o),
(191,319,o),
(191,214,cs),
(191,101,o),
(258,31,o),
(341,31,cs),
(407,31,o),
(443,68,o),
(461,98,c)
);
}
);
width = 763;
}
);
note = at;
unicode = 64;
},
{
glyphname = A;
kernLeft = A;
kernRight = A;
layers = (
{
layerId = m01;
shapes = (
{
closed = 1;
nodes = (
(258,438,l),
(333,223,l),
(184,223,l)
);
},
{
closed = 1;
nodes = (
(361,140,l),
(406,13,ls),
(409,4,o),
(414,0,o),
(425,0,cs),
(504,0,ls),
(511,0,o),
(514,6,o),
(511,11,c),
(340,482,ls),
(318,541,o),
(296,556,o),
(248,556,cs),
(215,556,ls),
(209,556,o),
(205,553,o),
(203,546,cs),
(9,11,ls),
(7,6,o),
(10,0,o),
(17,0,cs),
(94,0,ls),
(103,0,o),
(106,4,o),
(109,13,cs),
(154,140,l)
);
}
);
width = 521;
}
);
note = A;
unicode = 65;
},
{
glyphname = B;
layers = (
{
layerId = m01;
shapes = (
{
closed = 1;
nodes = (
(155,249,l),
(266,249,ls),
(330,249,o),
(358,212,o),
(358,167,cs),
(358,91,o),
(303,86,o),
(265,86,cs),
(155,86,l)
);
},
{
closed = 1;
nodes = (
(155,469,l),
(263,469,ls),
(316,469,o),
(340,443,o),
(340,403,cs),
(340,364,o),
(320,332,o),
(268,332,cs),
(155,332,l)
);
},
{
closed = 1;
nodes = (
(395,307,o),
(438,341,o),
(438,412,cs),
(438,503,o),
(373,556,o),
(259,556,cs),
(68,556,ls),
(61,556,o),
(57,552,o),
(57,544,cs),
(57,11,ls),
(57,3,o),
(61,0,o),
(68,0,cs),
(276,0,ls),
(397,0,o),
(459,58,o),
(459,157,cs),
(459,224,o),
(414,274,o),
(352,289,c)
);
}
);
width = 486;
}
);
note = B;
unicode = 66;
},
{
glyphname = C;
kernLeft = C;
kernRight = C;
layers = (
{
layerId = m01;
shapes = (
{
closed = 1;
nodes = (
(443,-10,o),
(492,88,o),
(492,133,cs),
(492,148,o),
(487,157,o),
(477,157,cs),
(472,157,o),
(467,156,o),
(461,148,cs),
(435,119,o),
(383,84,o),
(313,84,cs),
(213,84,o),
(144,148,o),
(144,276,cs),
(144,408,o),
(211,472,o),
(310,472,cs),
(367,472,o),
(403,458,o),
(445,436,cs),
(451,433,o),
(456,431,o),
(460,431,cs),
(465,431,o),
(467,433,o),
(470,442,cs),
(476,467,ls),
(483,502,o),
(475,522,o),
(437,541,cs),
(402,556,o),
(363,566,o),
(308,566,cs),
(154,566,o),
(44,457,o),
(44,276,cs),
(44,98,o),
(146,-10,o),
(301,-10,cs)
);
}
);
width = 511;
}
);
note = C;
unicode = 67;
},
{
glyphname = D;
layers = (
{
layerId = m01;
shapes = (
{
closed = 1;
nodes = (
(155,464,l),
(228,464,ls),
(346,464,o),
(413,417,o),
(413,283,cs),
(413,154,o),
(347,91,o),
(232,91,cs),
(155,91,l)
);
},
{
closed = 1;
nodes = (
(222,0,ls),
(401,0,o),
(514,86,o),
(514,286,cs),
(514,487,o),
(382,556,o),
(230,556,cs),
(68,556,ls),
(61,556,o),
(57,552,o),
(57,544,cs),
(57,11,ls),
(57,3,o),
(61,0,o),
(68,0,cs)
);
}
);
width = 557;
}
);
note = D;
unicode = 68;
},
{
glyphname = E;
kernRight = E;
layers = (
{
layerId = m01;
shapes = (
{
closed = 1;
nodes = (
(155,232,l),
(351,232,ls),
(360,232,o),
(364,237,o),
(364,246,cs),
(364,268,ls),
(364,304,o),
(345,323,o),
(306,323,cs),
(155,323,l),
(155,465,l),
(370,465,ls),
(379,465,o),
(384,471,o),
(384,479,cs),
(384,500,ls),
(384,536,o),
(364,556,o),
(326,556,cs),
(68,556,ls),
(61,556,o),
(57,552,o),
(57,544,cs),
(57,11,ls),
(57,3,o),
(61,0,o),
(68,0,cs),
(379,0,ls),
(388,0,o),
(392,6,o),
(392,14,cs),
(392,35,ls),
(392,71,o),
(373,91,o),
(334,91,cs),
(155,91,l)
);
}
);
width = 418;
}
);
note = E;
unicode = 69;
},
{
glyphname = F;
layers = (
{
layerId = m01;
shapes = (
{
closed = 1;
nodes = (
(348,230,ls),
(357,230,o),
(362,236,o),
(362,244,cs),
(362,264,ls),
(362,299,o),
(342,319,o),
(303,319,cs),
(155,319,l),
(155,464,l),
(370,464,ls),
(379,464,o),
(384,471,o),
(384,478,cs),
(384,499,ls),
(384,536,o),
(364,556,o),
(326,556,cs),
(68,556,ls),
(61,556,o),
(57,552,o),
(57,544,cs),
(57,11,ls),
(57,3,o),
(61,0,o),
(68,0,cs),
(144,0,ls),
(152,0,o),
(155,3,o),
(155,11,cs),
(155,230,l)
);
}
);
width = 404;
}
);
note = F;
unicode = 70;
},
{
glyphname = G;
layers = (
{
layerId = m01;
shapes = (
{
closed = 1;
nodes = (
(388,91,o),
(353,82,o),
(311,82,cs),
(207,82,o),
(147,152,o),
(147,274,cs),
(147,412,o),
(214,473,o),
(324,473,cs),
(373,473,o),
(418,462,o),
(460,439,c),
(466,437,o),
(472,433,o),
(476,433,cs),
(482,433,o),
(485,438,o),
(487,446,cs),
(492,469,ls),
(502,506,o),
(492,527,o),
(452,542,cs),
(415,557,o),
(373,566,o),
(317,566,cs),
(149,566,o),
(44,457,o),
(44,279,cs),
(44,77,o),
(164,-10,o),
(312,-10,cs),
(385,-10,o),
(441,10,o),
(497,54,cs),
(513,67,o),
(517,76,o),
(517,95,cs),
(517,291,ls),
(517,299,o),
(513,304,o),
(506,304,cs),
(303,304,ls),
(294,304,o),
(290,299,o),
(290,289,cs),
(290,271,ls),
(290,235,o),
(309,215,o),
(348,215,cs),
(425,215,l),
(425,117,l)
);
}
);
width = 561;
}
);
note = G;
unicode = 71;
},
{
glyphname = H;
layers = (
{
layerId = m01;
shapes = (
{
closed = 1;
nodes = (
(374,230,l),
(374,11,ls),
(374,3,o),
(377,0,o),
(385,0,cs),
(462,0,ls),
(469,0,o),
(472,3,o),
(472,11,cs),
(472,468,ls),
(472,531,o),
(446,556,o),
(394,556,cs),
(385,556,ls),
(377,556,o),
(374,552,o),
(374,544,cs),
(374,319,l),
(155,319,l),
(155,468,ls),
(155,531,o),
(128,556,o),
(77,556,cs),
(68,556,ls),
(61,556,o),
(57,552,o),
(57,544,cs),
(57,11,ls),
(57,3,o),
(61,0,o),
(68,0,cs),
(144,0,ls),
(152,0,o),
(155,3,o),
(155,11,cs),
(155,230,l)
);
}
);
width = 529;
}
);
note = H;
unicode = 72;
},
{
glyphname = I;
kernRight = I;
layers = (
{
layerId = m01;
shapes = (
{
closed = 1;
nodes = (
(144,0,ls),
(153,0,o),
(155,3,o),
(155,11,cs),
(155,469,ls),
(155,531,o),
(129,556,o),
(77,556,cs),
(68,556,ls),
(61,556,o),
(57,552,o),
(57,544,cs),
(57,11,ls),
(57,3,o),
(61,0,o),
(68,0,cs)
);
}
);
width = 212;
}
);
note = I;
unicode = 73;
},
{
glyphname = J;
layers = (
{
layerId = m01;
shapes = (
{
closed = 1;
nodes = (
(23,103,o),
(20,104,o),
(17,104,cs),
(10,104,o),
(5,98,o),
(5,87,cs),
(5,32,o),
(53,-10,o),
(117,-10,cs),
(204,-10,o),
(252,43,o),
(252,131,cs),
(252,468,ls),
(252,531,o),
(225,556,o),
(173,556,cs),
(164,556,ls),
(156,556,o),
(153,552,o),
(153,544,cs),
(153,135,ls),
(153,94,o),
(131,72,o),
(92,72,cs),
(65,72,o),
(47,83,o),
(26,101,cs)
);
}
);
width = 306;
}
);
note = J;
unicode = 74;
},
{
glyphname = K;
layers = (
{
layerId = m01;
shapes = (
{
closed = 1;
nodes = (
(225,262,l),
(376,12,ls),
(381,3,o),
(387,0,o),
(396,0,cs),
(483,0,ls),
(491,0,o),
(492,6,o),
(489,12,cs),
(291,339,l),
(463,544,ls),
(467,548,o),
(465,556,o),
(459,556,cs),
(377,556,ls),
(368,556,o),
(363,552,o),
(356,543,cs),
(155,304,l),
(155,468,ls),
(155,531,o),
(128,556,o),
(77,556,cs),
(68,556,ls),
(61,556,o),
(57,552,o),
(57,544,cs),
(57,11,ls),
(57,3,o),
(61,0,o),
(68,0,cs),
(144,0,ls),
(152,0,o),
(155,3,o),
(155,11,cs),
(155,179,l)
);
}
);
width = 502;
}
);
note = K;
unicode = 75;
},
{
glyphname = L;
layers = (
{
layerId = m01;
shapes = (
{
closed = 1;
nodes = (
(155,468,ls),
(155,531,o),
(128,556,o),
(77,556,cs),
(68,556,ls),
(61,556,o),
(57,552,o),
(57,544,cs),
(57,11,ls),
(57,3,o),
(61,0,o),
(68,0,cs),
(348,0,ls),
(357,0,o),
(361,6,o),
(361,14,cs),
(361,35,ls),
(361,71,o),
(342,91,o),
(303,91,cs),
(155,91,l)
);
}
);
width = 378;
}
);
note = L;
unicode = 76;
},
{
glyphname = M;
layers = (
{
layerId = m01;
shapes = (
{
closed = 1;
nodes = (
(215,507,ls),
(204,546,o),
(179,556,o),
(137,556,cs),
(80,556,ls),
(74,556,o),
(70,551,o),
(70,544,cs),
(40,11,ls),
(40,4,o),
(43,0,o),
(49,0,cs),
(127,0,ls),
(133,0,o),
(136,4,o),
(136,11,cs),
(157,398,l),
(269,11,l),
(272,5,o),
(276,0,o),
(282,0,cs),
(356,0,ls),
(363,0,o),
(368,4,o),
(369,11,c),
(486,401,l),
(507,11,ls),
(507,4,o),
(511,0,o),
(517,0,cs),
(596,0,ls),
(601,0,o),
(603,3,o),
(603,11,cs),
(577,493,ls),
(576,532,o),
(547,556,o),
(508,556,cs),
(452,556,ls),
(444,556,o),
(441,551,o),
(438,544,c),
(321,145,l)
);
}
);
width = 643;
}
);
note = M;
unicode = 77;
},
{
glyphname = N;
kernRight = N;
layers = (
{
layerId = m01;
shapes = (
{
closed = 1;
nodes = (
(178,507,ls),
(157,542,o),
(138,556,o),
(97,556,cs),
(67,556,ls),
(60,556,o),
(56,552,o),
(56,544,cs),
(56,11,ls),
(56,3,o),
(60,0,o),
(67,0,cs),
(143,0,ls),
(152,0,o),
(154,3,o),
(154,11,cs),
(154,368,l),
(372,13,ls),
(378,3,o),
(384,0,o),
(394,0,cs),
(465,0,ls),
(472,0,o),
(476,3,o),
(476,11,cs),
(476,469,ls),
(476,531,o),
(449,556,o),
(397,556,cs),
(389,556,ls),
(381,556,o),
(378,552,o),
(378,544,cs),
(378,180,l)
);
}
);
width = 533;
}
);
note = N;
unicode = 78;
},
{
glyphname = O;
kernLeft = O;
kernRight = O;
layers = (
{
layerId = m01;
shapes = (
{
closed = 1;
nodes = (
(218,83,o),
(144,129,o),
(144,277,cs),
(144,425,o),
(218,473,o),
(304,473,cs),
(388,473,o),
(463,425,o),
(463,277,cs),
(463,129,o),
(390,83,o),
(304,83,cs)
);
},
{
closed = 1;
nodes = (
(469,-10,o),
(563,101,o),
(563,277,cs),
(563,453,o),
(467,566,o),
(304,566,cs),
(141,566,o),
(44,453,o),
(44,277,cs),
(44,101,o),
(139,-10,o),
(304,-10,cs)
);
}
);
width = 607;
}
);
note = O;
unicode = 79;
},
{
glyphname = P;
layers = (
{
layerId = m01;
shapes = (
{
closed = 1;
nodes = (
(155,464,l),
(269,464,ls),
(325,464,o),
(365,434,o),
(365,377,cs),
(365,299,o),
(312,283,o),
(268,283,cs),
(155,283,l)
);
},
{
closed = 1;
nodes = (
(273,193,ls),
(391,193,o),
(463,269,o),
(463,377,cs),
(463,483,o),
(399,556,o),
(261,556,cs),
(68,556,ls),
(61,556,o),
(57,552,o),
(57,544,cs),
(57,11,ls),
(57,3,o),
(61,0,o),
(68,0,cs),
(144,0,ls),
(152,0,o),
(155,3,o),
(155,11,cs),
(155,193,l)
);
}
);
width = 492;
}
);
note = P;
unicode = 80;
},
{
glyphname = Q;
layers = (
{
layerId = m01;
shapes = (
{
closed = 1;
nodes = (
(297,-72,o),
(346,-114,o),
(427,-114,cs),
(502,-114,o),
(548,-60,o),
(548,-18,cs),
(548,-8,o),
(545,0,o),
(537,0,cs),
(533,0,o),
(531,-1,o),
(527,-4,cs),
(503,-23,o),
(478,-32,o),
(456,-32,cs),
(423,-32,o),
(401,-18,o),
(386,3,c),
(500,32,o),
(563,132,o),
(563,277,cs),
(563,453,o),
(467,566,o),
(304,566,cs),
(141,566,o),
(44,453,o),
(44,277,cs),
(44,114,o),
(125,8,o),
(268,-8,c)
);
},
{
closed = 1;
nodes = (
(219,83,o),
(144,129,o),
(144,277,cs),
(144,426,o),
(219,472,o),
(304,472,cs),
(388,472,o),
(462,426,o),
(462,277,cs),
(462,129,o),
(390,83,o),
(304,83,cs)
);
}
);
width = 607;
}
);
note = Q;
unicode = 81;
},
{
glyphname = R;
layers = (
{
layerId = m01;
shapes = (
{
closed = 1;
nodes = (
(155,464,l),
(269,464,ls),
(326,464,o),
(366,434,o),
(366,377,cs),
(366,306,o),
(321,283,o),
(268,283,cs),
(155,283,l)
);
},
{
closed = 1;
nodes = (
(254,193,l),
(354,12,ls),
(359,3,o),
(367,0,o),
(377,0,cs),
(461,0,ls),
(468,0,o),
(470,6,o),
(467,11,cs),
(351,206,l),
(419,233,o),
(463,293,o),
(463,377,cs),
(463,483,o),
(400,556,o),
(260,556,cs),
(68,556,ls),
(61,556,o),
(57,552,o),
(57,544,cs),
(57,11,ls),
(57,3,o),
(61,0,o),
(68,0,cs),
(144,0,ls),
(152,0,o),
(155,3,o),
(155,11,cs),
(155,193,l)
);
}
);
width = 499;
}
);
note = R;
unicode = 82;
},
{
glyphname = S;
kernLeft = S;
kernRight = S;
layers = (
{
layerId = m01;
shapes = (
{
closed = 1;
nodes = (
(40,156,o),
(36,157,o),
(32,157,cs),
(24,157,o),
(18,149,o),
(18,136,cs),
(18,69,o),
(81,-10,o),
(223,-10,cs),
(352,-10,o),
(427,59,o),
(427,163,cs),
(427,354,o),
(135,304,o),
(135,413,cs),
(135,457,o),
(176,478,o),
(231,478,cs),
(284,478,o),
(332,464,o),
(374,441,cs),
(380,438,o),
(385,436,o),
(389,436,cs),
(396,436,o),
(397,440,o),
(400,448,c),
(405,470,ls),
(412,506,o),
(405,528,o),
(364,543,cs),
(326,557,o),
(281,566,o),
(230,566,cs),
(121,566,o),
(35,509,o),
(35,408,cs),
(35,212,o),
(327,258,o),
(327,154,cs),
(327,108,o),
(286,79,o),
(212,79,cs),
(134,79,o),
(86,108,o),
(43,152,c)
);
}
);
width = 452;
}
);
note = S;
unicode = 83;
},
{
glyphname = T;
layers = (
{
layerId = m01;
shapes = (
{
closed = 1;
nodes = (
(171,11,ls),
(171,3,o),
(175,0,o),
(183,0,cs),
(260,0,ls),
(268,0,o),
(270,3,o),
(270,11,cs),
(270,464,l),
(419,464,ls),
(428,464,o),
(433,471,o),
(433,478,cs),
(433,499,ls),
(433,536,o),
(413,556,o),
(374,556,cs),
(23,556,ls),
(15,556,o),
(12,552,o),
(12,544,cs),
(12,476,ls),
(12,468,o),
(15,464,o),
(23,464,cs),
(171,464,l)
);
}
);
width = 444;
}
);
note = T;
unicode = 84;
},
{
glyphname = U;
kernLeft = U;
kernRight = U;
layers = (
{
layerId = m01;
shapes = (
{
closed = 1;
nodes = (
(441,-10,o),
(472,127,o),
(472,204,cs),
(472,469,ls),
(472,531,o),
(445,556,o),
(393,556,cs),
(385,556,ls),
(378,556,o),
(373,552,o),
(373,544,cs),
(373,222,ls),
(373,140,o),
(344,82,o),
(261,82,cs),
(179,82,o),
(152,139,o),
(152,222,cs),
(152,469,ls),
(152,531,o),
(126,556,o),
(73,556,cs),
(65,556,ls),
(57,556,o),
(54,552,o),
(54,544,cs),
(54,203,ls),
(54,120,o),
(87,-10,o),
(261,-10,cs)
);
}
);
width = 526;
}
);
note = U;
unicode = 85;
},
{
glyphname = V;
layers = (
{
layerId = m01;
shapes = (
{
closed = 1;
nodes = (
(138,482,ls),
(119,542,o),
(96,556,o),
(51,556,cs),
(18,556,ls),
(11,556,o),
(9,549,o),
(11,543,cs),
(190,11,ls),
(192,4,o),
(197,0,o),
(205,0,cs),
(296,0,ls),
(303,0,o),
(306,3,o),
(309,11,cs),
(488,544,ls),
(490,551,o),
(488,556,o),
(480,556,cs),
(408,556,ls),
(397,556,o),
(392,551,o),
(389,542,cs),
(254,116,l)
);
}
);
width = 497;
}
);
note = V;
unicode = 86;
},
{
glyphname = W;
layers = (
{
layerId = m01;
shapes = (
{
closed = 1;
nodes = (
(137,482,ls),
(123,543,o),
(95,556,o),
(50,556,cs),
(30,556,ls),
(22,556,o),
(21,549,o),
(22,543,cs),
(152,11,ls),
(154,4,o),
(158,0,o),
(166,0,cs),
(254,0,ls),
(262,0,o),
(265,4,o),
(268,11,c),
(374,418,l),
(484,11,l),
(487,4,o),
(492,0,o),
(498,0,cs),
(587,0,ls),
(593,0,o),
(597,4,o),
(599,11,cs),
(734,544,ls),
(736,551,o),
(733,556,o),
(727,556,cs),
(649,556,ls),
(640,556,o),
(637,551,o),
(634,542,c),
(538,125,l),
(449,482,ls),
(434,543,o),
(409,556,o),
(363,556,cs),
(335,556,ls),
(325,556,o),
(322,551,o),
(320,542,cs),
(217,125,l)
);
}
);
width = 754;
}
);
note = W;
unicode = 87;
},
{
glyphname = X;
layers = (
{
layerId = m01;
shapes = (
{
closed = 1;
nodes = (
(379,13,ls),
(384,4,o),
(391,0,o),
(400,0,cs),
(482,0,ls),
(488,0,o),
(492,6,o),
(488,11,c),
(316,294,l),
(463,544,l),
(468,551,o),
(465,556,o),
(458,556,cs),
(378,556,ls),
(368,556,o),
(363,551,o),
(358,542,cs),
(247,358,l),
(163,496,ls),
(131,551,o),
(116,556,o),
(71,556,cs),
(32,556,ls),
(25,556,o),
(23,548,o),
(26,543,cs),
(179,289,l),
(12,11,ls),
(9,6,o),
(11,0,o),
(19,0,cs),
(100,0,ls),
(109,0,o),
(114,4,o),
(119,13,cs),
(249,227,l)
);
}
);
width = 498;
}
);
note = X;
unicode = 88;
},
{
glyphname = Y;
kernLeft = Y;
kernRight = Y;
layers = (
{
layerId = m01;
shapes = (
{
closed = 1;
nodes = (
(184,11,ls),
(184,3,o),
(186,0,o),
(194,0,cs),
(271,0,ls),
(279,0,o),
(282,3,o),
(282,11,cs),
(282,206,l),
(463,543,ls),
(466,549,o),
(464,556,o),
(456,556,cs),
(379,556,ls),
(369,556,o),
(365,552,o),
(360,542,cs),
(238,308,l),
(137,500,ls),
(116,541,o),
(93,556,o),
(50,556,cs),
(11,556,ls),
(4,556,o),
(2,549,o),
(5,544,cs),
(184,208,l)
);
}
);
width = 466;
}
);
note = Y;
unicode = 89;
},
{
glyphname = Z;
kernLeft = Z;
kernRight = Z;
layers = (
{
layerId = m01;
shapes = (
{
closed = 1;
nodes = (
(405,445,ls),
(415,459,o),
(418,468,o),
(418,482,cs),
(418,496,ls),
(418,537,o),
(395,556,o),
(356,556,cs),
(46,556,ls),
(39,556,o),
(35,552,o),
(35,544,cs),
(35,476,ls),
(35,469,o),
(39,465,o),
(46,465,cs),
(300,465,l),
(43,108,ls),
(33,94,o),
(29,84,o),
(29,69,cs),
(29,11,ls),
(29,3,o),
(32,0,o),
(39,0,cs),
(405,0,ls),
(415,0,o),
(419,6,o),
(419,14,cs),
(419,35,ls),
(419,71,o),
(400,91,o),
(361,91,cs),
(148,91,l)
);
}
);
width = 452;
}
);
note = Z;
unicode = 90;
},
{
glyphname = bracketleft;
layers = (
{
layerId = m01;
shapes = (
{
closed = 1;
nodes = (
(247,-144,o),
(254,-137,o),
(254,-127,cs),
(254,-120,ls),
(254,-84,o),
(232,-63,o),
(193,-63,cs),
(156,-63,ls),
(147,-63,o),
(143,-57,o),
(143,-49,cs),
(143,601,ls),
(143,608,o),
(147,614,o),
(156,614,cs),
(193,614,ls),
(232,614,o),
(254,636,o),
(254,672,cs),
(254,678,ls),
(254,688,o),
(247,696,o),
(237,696,cs),
(125,696,ls),
(82,696,o),
(56,671,o),
(56,628,cs),
(56,-77,ls),
(56,-119,o),
(82,-144,o),
(125,-144,cs),
(237,-144,ls)
);
}
);
width = 299;
}
);
note = bracketleft;
unicode = 91;
},
{
glyphname = backslash;
layers = (
{
layerId = m01;
shapes = (
{
closed = 1;
nodes = (
(231,3,o),
(236,0,o),
(244,0,cs),
(312,0,ls),
(319,0,o),
(320,6,o),
(318,11,cs),
(114,492,ls),
(96,534,o),
(80,556,o),
(26,556,cs),
(9,556,ls),
(1,556,o),
(0,549,o),
(2,544,cs),
(228,11,ls)
);
}
);
width = 318;
}
);
note = backslash;
unicode = 92;
},
{
glyphname = bracketright;
layers = (
{
layerId = m01;
shapes = (
{
closed = 1;
nodes = (
(217,-144,o),
(243,-119,o),
(243,-77,cs),
(243,628,ls),
(243,671,o),
(217,696,o),
(174,696,cs),
(63,696,ls),
(52,696,o),
(45,688,o),
(45,678,cs),
(45,672,ls),
(45,636,o),
(68,614,o),
(107,614,cs),
(143,614,ls),
(152,614,o),
(156,608,o),
(156,601,cs),
(156,-49,ls),
(156,-57,o),
(152,-63,o),
(143,-63,cs),
(107,-63,ls),
(68,-63,o),
(45,-84,o),
(45,-120,cs),
(45,-127,ls),
(45,-137,o),
(52,-144,o),
(63,-144,cs),
(174,-144,ls)
);
}
);
width = 299;
}
);
note = bracketright;
unicode = 93;
},
{
glyphname = asciicircum;
layers = (
{
layerId = m01;
shapes = (
{
closed = 1;
nodes = (
(296,281,ls),
(301,272,o),
(306,269,o),
(316,269,cs),
(381,269,ls),
(387,269,o),
(391,274,o),
(389,279,c),
(266,508,ls),
(249,542,o),
(225,556,o),
(187,556,cs),
(177,556,o),
(172,552,o),
(167,543,cs),
(26,279,ls),
(23,274,o),
(27,269,o),
(34,269,cs),
(99,269,ls),
(108,269,o),
(113,272,o),
(118,281,cs),
(207,453,l)
);
}
);
width = 411;
}
);
note = asciicircum;
unicode = 94;
},
{
glyphname = underscore;
layers = (
{
layerId = m01;
shapes = (
{
closed = 1;
nodes = (
(447,-197,ls),
(454,-197,o),
(457,-194,o),
(457,-186,cs),
(457,-123,ls),
(457,-116,o),
(454,-113,o),
(447,-113,cs),
(4,-113,ls),
(-4,-113,o),
(-7,-116,o),
(-7,-123,cs),
(-7,-186,ls),
(-7,-194,o),
(-4,-197,o),
(4,-197,cs)
);
}
);
width = 451;
}
);
note = underscore;
unicode = 95;
},
{
glyphname = grave;
layers = (
{
layerId = m01;
shapes = (
{
closed = 1;
nodes = (
(96,441,ls),
(106,433,o),
(116,430,o),
(129,430,cs),
(194,430,ls),
(203,430,o),
(204,438,o),
(200,442,cs),
(117,518,ls),
(108,526,o),
(102,528,o),
(90,528,cs),
(10,528,ls),
(4,528,o),
(1,521,o),
(7,516,cs)
);
}
);
width = 200;
}
);
note = grave;
unicode = 96;
},
{
glyphname = a;
kernLeft = a;
kernRight = a;
layers = (
{
layerId = m01;
shapes = (
{
closed = 1;
nodes = (
(322,11,ls),
(322,3,o),
(325,0,o),
(332,0,cs),
(406,0,ls),
(415,0,o),
(417,3,o),
(417,11,cs),
(417,364,ls),
(417,372,o),
(415,376,o),
(406,376,cs),
(401,376,ls),
(366,376,o),
(340,363,o),
(330,332,c),
(306,361,o),
(265,386,o),
(207,386,cs),
(100,386,o),
(33,301,o),
(33,189,cs),
(33,81,o),
(92,-9,o),
(205,-9,cs),
(252,-9,o),
(295,11,o),
(322,47,c)
);
},
{
closed = 1;
nodes = (
(190,81,o),
(131,103,o),
(131,189,cs),
(131,271,o),
(187,294,o),
(227,294,cs),
(264,294,o),
(322,278,o),
(322,189,cs),
(322,99,o),
(264,81,o),
(226,81,cs)
);
}
);
width = 463;
}
);
note = a;
unicode = 97;
},
{
glyphname = b;
layers = (
{
layerId = m01;
shapes = (
{
closed = 1;
nodes = (
(168,11,o),
(210,-9,o),
(259,-9,cs),
(370,-9,o),
(430,80,o),
(430,189,cs),
(430,309,o),
(364,386,o),
(259,386,cs),
(203,386,o),
(164,361,o),
(141,328,c),
(141,472,ls),
(141,532,o),
(113,556,o),
(61,556,cs),
(56,556,ls),
(50,556,o),
(47,552,o),
(47,544,cs),
(47,11,ls),
(47,3,o),
(50,0,o),
(56,0,cs),
(131,0,ls),
(139,0,o),
(141,3,o),
(141,11,cs),
(141,46,l)
);
},
{
closed = 1;
nodes = (
(201,81,o),
(141,100,o),
(141,189,cs),
(141,278,o),
(200,294,o),
(236,294,cs),
(276,294,o),
(331,272,o),
(331,189,cs),
(331,103,o),
(274,81,o),
(236,81,cs)
);
}
);
width = 462;
}
);
note = b;
unicode = 98;
},
{
glyphname = c;
kernLeft = c;
kernRight = c;
layers = (
{
layerId = m01;
shapes = (
{
closed = 1;
nodes = (
(308,92,o),
(280,74,o),
(238,74,cs),
(167,74,o),
(131,117,o),
(131,186,cs),
(131,259,o),
(174,294,o),
(227,294,cs),
(261,294,o),
(281,288,o),
(312,274,c),
(315,272,o),
(319,271,o),
(321,271,cs),
(326,271,o),
(327,274,o),
(329,279,cs),
(335,301,ls),
(345,338,o),
(335,358,o),
(301,372,cs),
(278,381,o),
(252,384,o),
(223,384,cs),
(109,384,o),
(33,309,o),
(33,188,cs),
(33,64,o),
(105,-10,o),
(217,-10,cs),
(317,-10,o),
(348,54,o),
(348,95,cs),
(348,104,o),
(345,111,o),
(337,111,cs),
(334,111,o),
(329,108,o),
(325,104,c)
);
}
);
width = 363;
}
);
note = c;
unicode = 99;
},
{
glyphname = d;
layers = (
{
layerId = m01;
shapes = (
{
closed = 1;
nodes = (
(300,366,o),
(262,386,o),
(211,386,cs),
(98,386,o),
(33,301,o),
(33,189,cs),
(33,81,o),
(92,-9,o),
(205,-9,cs),
(254,-9,o),
(295,11,o),
(322,47,c),
(322,11,ls),
(322,3,o),
(325,0,o),
(333,0,cs),
(408,0,ls),
(415,0,o),
(418,3,o),
(418,11,cs),
(418,472,ls),
(418,532,o),
(390,556,o),
(338,556,cs),
(333,556,ls),
(325,556,o),
(322,552,o),
(322,544,cs),
(322,333,l)
);
},
{
closed = 1;
nodes = (
(190,81,o),
(131,103,o),
(131,189,cs),
(131,272,o),
(187,294,o),
(228,294,cs),
(264,294,o),
(322,278,o),
(322,189,cs),
(322,99,o),
(264,81,o),
(227,81,cs)
);
}
);
width = 463;
}
);
note = d;
unicode = 100;
},
{
glyphname = e;
kernLeft = e;
kernRight = e;
layers = (
{
layerId = m01;
shapes = (
{
closed = 1;
nodes = (
(368,154,ls),
(379,154,o),
(384,158,o),
(385,167,cs),
(386,178,o),
(387,193,o),
(387,213,cs),
(387,301,o),
(336,384,o),
(217,384,cs),
(104,384,o),
(33,302,o),
(33,189,cs),
(33,59,o),
(119,-10,o),
(228,-10,cs),
(337,-10,o),
(380,52,o),
(380,94,cs),
(380,102,o),
(376,108,o),
(369,108,cs),
(365,108,o),
(359,106,o),
(353,102,cs),
(319,83,o),
(290,72,o),
(240,72,cs),
(179,72,o),
(136,101,o),
(129,154,c)
);
},
{
closed = 1;
nodes = (
(136,272,o),
(166,303,o),
(217,303,cs),
(279,303,o),
(295,257,o),
(291,223,c),
(129,223,l)
);
}
);
width = 418;
}
);
note = e;
unicode = 101;
},
{
glyphname = f;
kernLeft = f;
layers = (
{
layerId = m01;
shapes = (
{
closed = 1;
nodes = (
(79,11,ls),
(79,3,o),
(82,0,o),
(90,0,cs),
(163,0,ls),
(170,0,o),
(174,3,o),
(174,11,cs),
(174,290,l),
(266,290,ls),
(275,290,o),
(278,294,o),
(278,301,cs),
(278,364,ls),
(278,372,o),
(275,376,o),
(266,376,cs),
(174,376,l),
(174,418,ls),
(174,462,o),
(188,479,o),
(219,479,cs),
(238,479,o),
(253,471,o),
(270,461,cs),
(274,459,o),
(276,459,o),
(280,459,cs),
(286,459,o),
(290,466,o),
(290,476,cs),
(290,513,o),
(260,561,o),
(190,561,cs),
(125,561,o),
(79,518,o),
(79,424,cs),
(79,376,l),
(22,376,ls),
(15,376,o),
(12,372,o),
(12,364,cs),
(12,301,ls),
(12,294,o),
(15,290,o),
(22,290,cs),
(79,290,l)
);
}
);
width = 307;
}
);
note = f;
unicode = 102;
},
{
glyphname = g;
layers = (
{
layerId = m01;
shapes = (
{
closed = 1;
nodes = (
(322,15,ls),
(322,-44,o),
(290,-83,o),
(204,-83,cs),
(140,-83,o),
(103,-64,o),
(79,-44,cs),
(74,-40,o),
(71,-37,o),
(66,-37,cs),
(58,-37,o),
(53,-46,o),
(53,-57,cs),
(53,-112,o),
(119,-171,o),
(225,-171,cs),
(354,-171,o),
(418,-97,o),
(418,16,cs),
(418,364,ls),
(418,372,o),
(415,376,o),
(408,376,cs),
(403,376,ls),
(366,376,o),
(341,363,o),
(331,332,c),
(307,362,o),
(266,386,o),
(208,386,cs),
(101,386,o),
(33,301,o),
(33,189,cs),
(33,81,o),
(92,-3,o),
(205,-3,cs),
(254,-3,o),
(295,17,o),
(322,53,c)
);
},
{
closed = 1;
nodes = (
(190,81,o),
(131,103,o),
(131,189,cs),
(131,272,o),
(187,294,o),
(228,294,cs),
(264,294,o),
(322,278,o),
(322,189,cs),
(322,99,o),
(264,81,o),
(227,81,cs)
);
}
);
width = 463;
}
);
note = g;
unicode = 103;
},
{
glyphname = h;
layers = (
{
layerId = m01;
shapes = (
{
closed = 1;
nodes = (
(141,472,ls),
(141,532,o),
(114,556,o),
(63,556,cs),
(58,556,ls),
(50,556,o),
(47,552,o),
(47,544,cs),
(47,11,ls),
(47,3,o),
(50,0,o),
(58,0,cs),
(131,0,ls),
(139,0,o),
(141,3,o),
(141,11,cs),
(141,204,ls),
(141,272,o),
(176,297,o),
(224,297,cs),
(269,297,o),
(304,272,o),
(304,207,cs),
(304,11,ls),
(304,3,o),
(308,0,o),
(315,0,cs),
(389,0,ls),
(398,0,o),
(400,3,o),
(400,11,cs),
(400,219,ls),
(400,328,o),
(339,386,o),
(249,386,cs),
(200,386,o),
(164,366,o),
(141,336,c)
);
}
);
width = 444;
}
);
note = h;
unicode = 104;
},
{
glyphname = i;
kernLeft = i;
kernRight = i;
layers = (
{
layerId = m01;
shapes = (
{
closed = 1;
nodes = (
(130,0,ls),
(138,0,o),
(141,3,o),
(141,11,cs),
(141,291,ls),
(141,351,o),
(112,376,o),
(61,376,cs),
(56,376,ls),
(48,376,o),
(46,372,o),
(46,364,cs),
(46,11,ls),
(46,3,o),
(48,0,o),
(56,0,cs)
);
},
{
closed = 1;
nodes = (
(39,443,o),
(62,419,o),
(93,419,cs),
(123,419,o),
(147,443,o),
(147,474,cs),
(147,506,o),
(123,529,o),
(93,529,cs),
(62,529,o),
(39,506,o),
(39,474,cs)
);
}
);
width = 189;
}
);
note = i;
unicode = 105;
},
{
glyphname = j;
layers = (
{
layerId = m01;
shapes = (
{
closed = 1;
nodes = (
(-69,-120,o),
(-37,-171,o),
(34,-171,cs),
(100,-171,o),
(142,-126,o),
(142,-32,cs),
(142,291,ls),
(142,351,o),
(113,376,o),
(62,376,cs),
(57,376,ls),
(50,376,o),
(47,372,o),
(47,364,cs),
(47,-25,ls),
(47,-69,o),
(36,-89,o),
(3,-89,cs),
(-16,-89,o),
(-30,-81,o),
(-49,-70,cs),
(-52,-68,o),
(-55,-67,o),
(-58,-67,cs),
(-65,-67,o),
(-69,-75,o),
(-69,-85,cs)
);
},
{
closed = 1;
nodes = (
(40,443,o),
(64,419,o),
(94,419,cs),
(124,419,o),
(148,443,o),
(148,473,cs),
(148,506,o),
(124,529,o),
(94,529,cs),
(64,529,o),
(40,506,o),
(40,473,cs)
);
}
);
width = 189;
}
);
note = j;
unicode = 106;
},
{
glyphname = k;
layers = (
{
layerId = m01;
shapes = (
{
closed = 1;
nodes = (
(184,168,l),
(273,12,l),
(276,4,o),
(284,0,o),
(294,0,cs),
(376,0,ls),
(383,0,o),
(385,6,o),
(383,11,c),
(250,239,l),
(368,364,ls),
(371,368,o),
(369,376,o),
(363,376,cs),
(279,376,ls),
(270,376,o),
(264,372,o),
(258,363,c),
(141,240,l),
(141,472,ls),
(141,532,o),
(113,556,o),
(61,556,cs),
(56,556,ls),
(50,556,o),
(47,552,o),
(47,544,cs),
(47,11,ls),
(47,3,o),
(50,0,o),
(56,0,cs),
(131,0,ls),
(139,0,o),
(141,3,o),
(141,11,cs),
(141,123,l)
);
}
);
width = 393;
}
);
note = k;
unicode = 107;
},
{
glyphname = l;
kernRight = l;
layers = (
{
layerId = m01;
shapes = (
{
closed = 1;
nodes = (
(211,82,o),
(200,76,o),
(180,76,cs),
(155,76,o),
(143,93,o),
(143,128,cs),
(143,472,ls),
(143,532,o),
(114,556,o),
(62,556,cs),
(57,556,ls),
(50,556,o),
(47,552,o),
(47,544,cs),
(47,119,ls),
(47,32,o),
(86,-8,o),
(149,-8,cs),
(222,-8,o),
(246,46,o),
(246,87,cs),
(246,93,o),
(243,101,o),
(235,101,cs),
(231,101,o),
(228,97,o),
(225,96,c)
);
}
);
width = 246;
}
);
note = l;
unicode = 108;
},
{
glyphname = m;
layers = (
{
layerId = m01;
shapes = (
{
closed = 1;
nodes = (
(127,361,o),
(99,376,o),
(61,376,cs),
(56,376,ls),
(50,376,o),
(47,372,o),
(47,364,cs),
(47,11,ls),
(47,3,o),
(50,0,o),
(56,0,cs),
(132,0,ls),
(140,0,o),
(143,3,o),
(143,11,cs),
(143,204,ls),
(143,269,o),
(176,297,o),
(221,297,cs),
(266,297,o),
(297,271,o),
(297,205,cs),
(297,11,ls),
(297,3,o),
(300,0,o),
(308,0,cs),
(383,0,ls),
(389,0,o),
(393,3,o),
(393,11,cs),
(393,204,ls),
(393,269,o),
(427,297,o),
(471,297,cs),
(515,297,o),
(547,271,o),
(547,205,cs),
(547,11,ls),
(547,3,o),
(550,0,o),
(557,0,cs),
(631,0,ls),
(640,0,o),
(643,3,o),
(643,11,cs),
(643,216,ls),
(643,326,o),
(586,383,o),
(491,383,cs),
(435,383,o),
(395,353,o),
(369,317,c),
(344,361,o),
(301,383,o),
(244,383,cs),
(195,383,o),
(160,361,o),
(136,329,c)
);
}
);
width = 687;
}
);
note = m;
unicode = 109;
},
{
glyphname = n;
kernLeft = n;
kernRight = n;
layers = (
{
layerId = m01;
shapes = (
{
closed = 1;
nodes = (
(128,359,o),
(101,376,o),
(63,376,cs),
(58,376,ls),
(50,376,o),
(47,372,o),
(47,364,cs),
(47,11,ls),
(47,3,o),
(50,0,o),
(58,0,cs),
(131,0,ls),
(139,0,o),
(143,3,o),
(143,11,cs),
(143,202,ls),
(143,269,o),
(177,295,o),
(224,295,cs),
(270,295,o),
(305,269,o),
(305,204,cs),
(305,11,ls),
(305,3,o),
(308,0,o),
(316,0,cs),
(390,0,ls),
(398,0,o),
(401,3,o),
(401,11,cs),
(401,216,ls),
(401,326,o),
(343,383,o),
(249,383,cs),
(202,383,o),
(161,361,o),
(136,327,c)
);
}
);
width = 445;
}
);
note = n;
unicode = 110;
},
{
glyphname = o;
kernLeft = o;
kernRight = o;
layers = (
{
layerId = m01;
shapes = (
{
closed = 1;
nodes = (
(344,-10,o),
(417,69,o),
(417,188,cs),
(417,307,o),
(342,384,o),
(225,384,cs),
(107,384,o),
(33,307,o),
(33,188,cs),
(33,68,o),
(109,-10,o),
(226,-10,cs)
);
},
{
closed = 1;
nodes = (
(173,81,o),
(131,112,o),
(131,187,cs),
(131,261,o),
(173,294,o),
(225,294,cs),
(276,294,o),
(319,261,o),
(319,186,cs),
(319,111,o),
(275,81,o),
(225,81,cs)
);
}
);
width = 451;
}
);
note = o;
unicode = 111;
},
{
glyphname = p;
layers = (
{
layerId = m01;
shapes = (
{
closed = 1;
nodes = (
(168,9,o),
(210,-9,o),
(259,-9,cs),
(370,-9,o),
(430,80,o),
(430,189,cs),
(430,301,o),
(368,384,o),
(253,384,cs),
(196,384,o),
(155,357,o),
(135,327,c),
(126,357,o),
(101,376,o),
(61,376,cs),
(56,376,ls),
(50,376,o),
(47,372,o),
(47,364,cs),
(47,-149,ls),
(47,-157,o),
(50,-160,o),
(56,-160,cs),
(131,-160,ls),
(139,-160,o),
(141,-157,o),
(141,-149,cs),
(141,44,l)
);
},
{
closed = 1;
nodes = (
(201,81,o),
(141,100,o),
(141,189,cs),
(141,278,o),
(200,294,o),
(236,294,cs),
(276,294,o),
(331,272,o),
(331,189,cs),
(331,103,o),
(274,81,o),
(238,81,cs)
);
}
);
width = 462;
}
);
note = p;
unicode = 112;
},
{
glyphname = q;
layers = (
{
layerId = m01;
shapes = (
{
closed = 1;
nodes = (
(322,-149,ls),
(322,-157,o),
(325,-160,o),
(333,-160,cs),
(408,-160,ls),
(415,-160,o),
(418,-157,o),
(418,-149,cs),
(418,364,ls),
(418,372,o),
(415,376,o),
(408,376,cs),
(403,376,ls),
(366,376,o),
(340,363,o),
(331,332,c),
(307,361,o),
(266,386,o),
(208,386,cs),
(101,386,o),
(33,301,o),
(33,189,cs),
(33,81,o),
(92,-9,o),
(205,-9,cs),
(254,-9,o),
(295,11,o),
(322,47,c)
);
},
{
closed = 1;
nodes = (
(190,81,o),
(131,103,o),
(131,189,cs),
(131,272,o),
(187,294,o),
(228,294,cs),
(264,294,o),
(322,278,o),
(322,189,cs),
(322,99,o),
(264,81,o),
(227,81,cs)
);
}
);
width = 463;
}
);
note = q;
unicode = 113;
},
{
glyphname = r;
kernLeft = r;
layers = (
{
layerId = m01;
shapes = (
{
closed = 1;
nodes = (
(130,358,o),
(103,376,o),
(61,376,cs),
(56,376,ls),
(50,376,o),
(47,372,o),
(47,364,cs),
(47,11,ls),
(47,3,o),
(50,0,o),
(56,0,cs),
(131,0,ls),
(139,0,o),
(141,3,o),
(141,11,cs),
(141,176,ls),
(141,247,o),
(156,284,o),
(229,284,cs),
(255,284,ls),
(263,284,o),
(265,288,o),
(265,296,cs),
(265,364,ls),
(265,372,o),
(263,376,o),
(255,376,cs),
(244,376,ls),
(189,376,o),
(161,363,o),
(138,321,c)
);
}
);
width = 289;
}
);
note = r;
unicode = 114;
},
{
glyphname = s;
kernLeft = s;
layers = (
{
layerId = m01;
shapes = (
{
closed = 1;
nodes = (
(36,111,o),
(33,113,o),
(30,113,cs),
(23,113,o),
(18,107,o),
(18,93,cs),
(18,40,o),
(75,-10,o),
(159,-10,cs),
(247,-10,o),
(305,40,o),
(305,115,cs),
(305,231,o),
(124,218,o),
(124,274,cs),
(124,297,o),
(145,307,o),
(172,307,cs),
(203,307,o),
(231,300,o),
(264,284,cs),
(269,282,o),
(271,280,o),
(275,280,cs),
(279,280,o),
(281,282,o),
(283,288,cs),
(286,299,ls),
(297,336,o),
(286,354,o),
(252,369,cs),
(231,379,o),
(204,384,o),
(174,384,cs),
(97,384,o),
(28,349,o),
(28,268,cs),
(28,146,o),
(209,164,o),
(209,107,cs),
(209,82,o),
(187,68,o),
(148,68,cs),
(100,68,o),
(69,84,o),
(38,109,cs)
);
}
);
width = 324;
}
);
note = s;
unicode = 115;
},
{
glyphname = t;
layers = (
{
layerId = m01;
shapes = (
{
closed = 1;
nodes = (
(91,11,ls),
(91,3,o),
(93,0,o),
(101,0,cs),
(176,0,ls),
(183,0,o),
(186,3,o),
(186,11,cs),
(186,289,l),
(267,289,ls),
(274,289,o),
(276,294,o),
(276,301,cs),
(276,364,ls),
(276,372,o),
(274,376,o),
(267,376,cs),
(186,376,l),
(186,424,ls),
(186,483,o),
(158,508,o),
(106,508,cs),
(101,508,ls),
(93,508,o),
(91,504,o),
(91,497,cs),
(91,376,l),
(25,376,ls),
(17,376,o),
(14,372,o),
(14,364,cs),
(14,301,ls),
(14,294,o),
(17,289,o),
(25,289,cs),
(91,289,l)
);
}
);
width = 297;
}
);
note = t;
unicode = 116;
},
{
glyphname = u;
kernLeft = u;
kernRight = u;
layers = (
{
layerId = m01;
shapes = (
{
closed = 1;
nodes = (
(341,-10,o),
(395,62,o),
(395,176,cs),
(395,291,ls),
(395,351,o),
(367,376,o),
(315,376,cs),
(310,376,ls),
(303,376,o),
(299,372,o),
(299,364,cs),
(299,169,ls),
(299,102,o),
(264,78,o),
(219,78,cs),
(175,78,o),
(142,106,o),
(142,170,cs),
(142,291,ls),
(142,351,o),
(113,376,o),
(61,376,cs),
(56,376,ls),
(49,376,o),
(46,372,o),
(46,364,cs),
(46,182,ls),
(46,67,o),
(98,-10,o),
(219,-10,cs)
);
}
);
width = 441;
}
);
note = u;
unicode = 117;
},
{
glyphname = v;
layers = (
{
layerId = m01;
shapes = (
{
closed = 1;
nodes = (
(132,294,ls),
(113,358,o),
(91,376,o),
(35,376,cs),
(18,376,ls),
(12,376,o),
(10,371,o),
(12,364,cs),
(133,11,ls),
(136,3,o),
(140,0,o),
(148,0,cs),
(238,0,ls),
(247,0,o),
(249,3,o),
(252,11,cs),
(374,364,ls),
(376,369,o),
(373,376,o),
(367,376,cs),
(292,376,ls),
(282,376,o),
(279,372,o),
(277,363,cs),
(194,94,l)
);
}
);
width = 383;
}
);
note = v;
unicode = 118;
},
{
glyphname = w;
layers = (
{
layerId = m01;
shapes = (
{
closed = 1;
nodes = (
(132,294,ls),
(116,358,o),
(92,376,o),
(38,376,cs),
(23,376,ls),
(17,376,o),
(13,369,o),
(15,364,cs),
(125,11,ls),
(127,4,o),
(131,0,o),
(139,0,cs),
(216,0,ls),
(222,0,o),
(227,3,o),
(230,11,cs),
(300,252,l),
(371,11,ls),
(374,3,o),
(379,0,o),
(385,0,cs),
(460,0,ls),
(468,0,o),
(472,3,o),
(474,11,cs),
(581,364,ls),
(583,371,o),
(580,376,o),
(573,376,cs),
(509,376,ls),
(499,376,o),
(495,372,o),
(492,363,cs),
(422,115,l),
(372,294,ls),
(354,359,o),
(332,376,o),
(277,376,cs),
(267,376,ls),
(260,376,o),
(254,372,o),
(251,363,cs),
(181,116,l)
);
}
);
width = 594;
}
);
note = w;
unicode = 119;
},
{
glyphname = x;
layers = (
{
layerId = m01;
shapes = (
{
closed = 1;
nodes = (
(270,12,ls),
(275,3,o),
(279,0,o),
(290,0,cs),
(367,0,ls),
(374,0,o),
(375,6,o),
(373,11,c),
(254,203,l),
(352,364,l),
(354,369,o),
(353,376,o),
(345,376,cs),
(277,376,ls),
(268,376,o),
(262,372,o),
(255,363,c),
(193,263,l),
(162,311,ls),
(129,364,o),
(115,376,o),
(67,376,cs),
(32,376,ls),
(25,376,o),
(24,369,o),
(27,364,cs),
(131,197,l),
(14,11,ls),
(11,6,o),
(13,0,o),
(19,0,cs),
(93,0,ls),
(101,0,o),
(106,3,o),
(112,12,cs),
(190,140,l)
);
}
);
width = 384;
}
);
note = x;
unicode = 120;
},
{
glyphname = y;
kernLeft = y;
kernRight = y;
layers = (
{
layerId = m01;
shapes = (
{
closed = 1;
nodes = (
(123,-68,o),
(106,-88,o),
(69,-88,cs),
(50,-88,o),
(34,-82,o),
(15,-68,cs),
(12,-66,o),
(9,-63,o),
(6,-63,cs),
(-2,-63,o),
(-6,-73,o),
(-6,-82,cs),
(-6,-123,o),
(28,-171,o),
(92,-171,cs),
(178,-171,o),
(213,-99,o),
(247,-1,cs),
(377,364,l),
(378,369,o),
(377,376,o),
(371,376,cs),
(297,376,ls),
(288,376,o),
(285,372,o),
(281,363,c),
(197,109,l),
(135,295,ls),
(112,358,o),
(93,376,o),
(38,376,cs),
(17,376,ls),
(12,376,o),
(9,369,o),
(11,364,cs),
(145,-9,l)
);
}
);
width = 388;
}
);
note = y;
unicode = 121;
},
{
glyphname = z;
kernLeft = z;
kernRight = z;
layers = (
{
layerId = m01;
shapes = (
{
closed = 1;
nodes = (
(305,275,ls),
(314,286,o),
(318,296,o),
(318,311,cs),
(318,359,o),
(303,376,o),
(259,376,cs),
(45,376,ls),
(37,376,o),
(34,372,o),
(34,364,cs),
(34,301,ls),
(34,294,o),
(37,290,o),
(45,290,cs),
(204,290,l),
(40,87,ls),
(30,74,o),
(27,68,o),
(27,54,cs),
(27,11,ls),
(27,3,o),
(30,0,o),
(38,0,cs),
(311,0,ls),
(318,0,o),
(321,3,o),
(321,11,cs),
(321,74,ls),
(321,82,o),
(318,86,o),
(311,86,cs),
(149,86,l)
);
}
);
width = 349;
}
);
note = z;
unicode = 122;
},
{
glyphname = braceleft;
layers = (
{
layerId = m01;
shapes = (
{
closed = 1;
nodes = (
(294,-144,o),
(301,-137,o),
(301,-127,cs),
(301,-120,ls),
(301,-84,o),
(278,-63,o),
(239,-63,cs),
(202,-63,ls),
(194,-63,o),
(190,-57,o),
(190,-49,cs),
(190,184,ls),
(190,234,o),
(176,260,o),
(156,276,c),
(176,293,o),
(190,318,o),
(190,368,cs),
(190,601,ls),
(190,608,o),
(194,614,o),
(202,614,cs),
(239,614,ls),
(278,614,o),
(301,636,o),
(301,672,cs),
(301,678,ls),
(301,688,o),
(294,696,o),
(283,696,cs),
(172,696,ls),
(129,696,o),
(102,671,o),
(102,628,cs),
(102,374,ls),
(102,333,o),
(85,318,o),
(62,314,c),
(54,314,o),
(48,308,o),
(48,299,cs),
(48,253,ls),
(48,244,o),
(54,238,o),
(62,237,cs),
(85,233,o),
(102,219,o),
(102,179,cs),
(102,-77,ls),
(102,-119,o),
(129,-144,o),
(172,-144,cs),
(283,-144,ls)
);
}
);
width = 346;
}
);
note = braceleft;
unicode = 123;
},
{
glyphname = bar;
layers = (
{
layerId = m01;
shapes = (
{
closed = 1;
nodes = (
(128,-149,ls),
(136,-149,o),
(139,-146,o),
(139,-138,cs),
(139,482,ls),
(139,542,o),
(110,566,o),
(65,566,cs),
(58,566,o),
(55,563,o),
(55,556,cs),
(55,-138,ls),
(55,-146,o),
(58,-149,o),
(65,-149,cs)
);
}
);
width = 194;
}
);
note = bar;
unicode = 124;
},
{
glyphname = braceright;
layers = (
{
layerId = m01;
shapes = (
{
closed = 1;
nodes = (
(217,-144,o),
(243,-119,o),
(243,-77,cs),
(243,179,ls),
(243,219,o),
(261,233,o),
(283,237,cs),
(292,238,o),
(298,244,o),
(298,253,cs),
(298,299,ls),
(298,308,o),
(292,314,o),
(283,314,c),
(261,318,o),
(243,333,o),
(243,374,cs),
(243,628,ls),
(243,671,o),
(217,696,o),
(174,696,cs),
(63,696,ls),
(52,696,o),
(45,688,o),
(45,678,cs),
(45,672,ls),
(45,636,o),
(68,614,o),
(107,614,cs),
(143,614,ls),
(152,614,o),
(156,608,o),
(156,601,cs),
(156,368,ls),
(156,318,o),
(170,293,o),
(189,276,c),
(170,260,o),
(156,234,o),
(156,184,cs),
(156,-49,ls),
(156,-57,o),
(152,-63,o),
(143,-63,cs),
(107,-63,ls),
(68,-63,o),
(45,-84,o),
(45,-120,cs),
(45,-127,ls),
(45,-137,o),
(52,-144,o),
(63,-144,cs),
(174,-144,ls)
);
}
);
width = 346;
}
);
note = braceright;
unicode = 125;
},
{
glyphname = asciitilde;
layers = (
{
layerId = m01;
shapes = (
{
closed = 1;
nodes = (
(75,248,o),
(98,254,o),
(130,254,cs),
(185,254,o),
(228,215,o),
(294,215,cs),
(327,215,o),
(351,224,o),
(376,246,cs),
(385,254,o),
(386,259,o),
(386,274,cs),
(386,331,ls),
(386,337,o),
(380,338,o),
(376,334,cs),
(350,307,o),
(326,299,o),
(294,299,cs),
(240,299,o),
(195,339,o),
(130,339,cs),
(98,339,o),
(74,329,o),
(49,308,cs),
(40,301,o),
(39,294,o),
(39,281,cs),
(39,224,ls),
(39,217,o),
(46,217,o),
(49,221,cs)
);
}
);
width = 423;
}
);
note = asciitilde;
unicode = 126;
},
{
glyphname = exclamdown;
layers = (
{
layerId = m01;
shapes = (
{
closed = 1;
nodes = (
(122,264,o),
(148,289,o),
(148,324,cs),
(148,359,o),
(122,384,o),
(89,384,cs),
(55,384,o),
(30,359,o),
(30,324,cs),
(30,289,o),
(55,264,o),
(89,264,cs)
);
},
{
closed = 1;
nodes = (
(128,-181,ls),
(135,-181,o),
(138,-177,o),
(138,-170,cs),
(130,134,ls),
(128,194,o),
(104,221,o),
(59,221,cs),
(51,221,o),
(48,217,o),
(48,210,cs),
(39,-170,ls),
(39,-177,o),
(42,-181,o),
(50,-181,cs)
);
}
);
width = 183;
}
);
note = exclamdown;
unicode = 161;
},
{
glyphname = cent;
layers = (
{
layerId = m01;
shapes = (
{
closed = 1;
nodes = (
(320,9,o),
(346,60,o),
(346,93,cs),
(346,102,o),
(344,108,o),
(336,108,cs),
(333,108,o),
(329,106,o),
(324,102,cs),
(309,91,o),
(284,76,o),
(253,73,c),
(253,296,l),
(274,294,o),
(289,287,o),
(311,276,cs),
(314,274,o),
(319,274,o),
(320,274,cs),
(325,274,o),
(326,276,o),
(329,282,c),
(334,301,ls),
(344,338,o),
(334,358,o),
(299,372,cs),
(284,378,o),
(270,382,o),
(253,383,c),
(253,438,ls),
(253,444,o),
(250,448,o),
(243,448,cs),
(208,448,ls),
(200,448,o),
(196,444,o),
(196,438,cs),
(196,383,l),
(98,373,o),
(32,299,o),
(32,188,cs),
(32,72,o),
(98,-2,o),
(196,-9,c),
(196,-56,ls),
(196,-63,o),
(200,-67,o),
(208,-67,cs),
(243,-67,ls),
(250,-67,o),
(253,-63,o),
(253,-56,cs),
(253,-5,l)
);
},
{
closed = 1;
nodes = (
(151,91,o),
(128,130,o),
(128,186,cs),
(128,246,o),
(156,281,o),
(196,293,c),
(196,78,l)
);
}
);
width = 366;
}
);
note = cent;
unicode = 162;
},
{
glyphname = sterling;
layers = (
{
layerId = m01;
shapes = (
{
closed = 1;
nodes = (
(240,117,o),
(253,154,o),
(253,193,cs),
(253,209,o),
(250,224,o),
(245,239,c),
(369,239,ls),
(378,239,o),
(383,245,o),
(383,253,cs),
(383,273,ls),
(383,308,o),
(363,328,o),
(324,328,cs),
(210,328,l),
(198,356,o),
(189,379,o),
(189,404,cs),
(189,452,o),
(223,479,o),
(275,479,cs),
(322,479,o),
(353,467,o),
(395,444,c),
(402,442,o),
(407,439,o),
(410,439,cs),
(414,439,o),
(418,443,o),
(419,448,c),
(427,469,ls),
(438,504,o),
(427,524,o),
(385,543,cs),
(354,557,o),
(320,566,o),
(274,566,cs),
(167,566,o),
(90,513,o),
(90,409,cs),
(90,378,o),
(97,354,o),
(111,328,c),
(52,328,ls),
(44,328,o),
(41,324,o),
(41,317,cs),
(41,250,ls),
(41,243,o),
(44,239,o),
(52,239,cs),
(149,239,l),
(155,223,o),
(159,209,o),
(159,193,cs),
(159,157,o),
(147,117,o),
(135,89,c),
(52,89,ls),
(44,89,o),
(41,86,o),
(41,78,cs),
(41,11,ls),
(41,3,o),
(44,0,o),
(52,0,cs),
(419,0,ls),
(428,0,o),
(433,6,o),
(433,14,cs),
(433,34,ls),
(433,69,o),
(413,89,o),
(374,89,cs),
(229,89,l)
);
}
);
width = 468;
}
);
note = sterling;
unicode = 163;
},
{
glyphname = yen;
layers = (
{
layerId = m01;
shapes = (
{
closed = 1;
nodes = (
(196,11,ls),
(196,3,o),
(199,0,o),
(206,0,cs),
(283,0,ls),
(291,0,o),
(294,3,o),
(294,11,cs),
(294,124,l),
(432,124,ls),
(440,124,o),
(443,127,o),
(443,135,cs),
(443,184,ls),
(443,192,o),
(440,195,o),
(432,195,cs),
(294,195,l),
(294,206,l),
(319,252,l),
(432,252,ls),
(440,252,o),
(443,254,o),
(443,263,cs),
(443,311,ls),
(443,318,o),
(440,322,o),
(432,322,cs),
(357,322,l),
(475,543,ls),
(478,549,o),
(476,556,o),
(468,556,cs),
(391,556,ls),
(381,556,o),
(377,551,o),
(372,542,cs),
(250,308,l),
(149,499,ls),
(128,541,o),
(104,556,o),
(63,556,cs),
(23,556,ls),
(16,556,o),
(14,549,o),
(17,544,cs),
(135,322,l),
(59,322,ls),
(51,322,o),
(48,318,o),
(48,311,cs),
(48,263,ls),
(48,254,o),
(51,252,o),
(59,252,cs),
(173,252,l),
(196,208,l),
(196,195,l),
(59,195,ls),
(51,195,o),
(48,192,o),
(48,184,cs),
(48,135,ls),
(48,127,o),
(51,124,o),
(59,124,cs),
(196,124,l)
);
}
);
width = 489;
}
);
note = yen;
unicode = 165;
},
{
glyphname = brokenbar;
layers = (
{
layerId = m01;
shapes = (
{
closed = 1;
nodes = (
(128,258,ls),
(136,258,o),
(139,261,o),
(139,269,cs),
(139,482,ls),
(139,542,o),
(110,566,o),
(65,566,cs),
(58,566,o),
(55,563,o),
(55,556,cs),
(55,269,ls),
(55,261,o),
(58,258,o),
(65,258,cs)
);
},
{
closed = 1;
nodes = (
(128,-149,ls),
(136,-149,o),
(139,-146,o),
(139,-138,cs),
(139,149,ls),
(139,157,o),
(136,160,o),
(128,160,cs),
(65,160,ls),
(58,160,o),
(55,157,o),
(55,149,cs),
(55,-138,ls),
(55,-146,o),
(58,-149,o),
(65,-149,cs)
);
}
);
width = 194;
}
);
note = brokenbar;
unicode = 166;
},
{
glyphname = section;
layers = (
{
layerId = m01;
shapes = (
{
closed = 1;
nodes = (
(197,191,o),
(141,214,o),
(141,259,cs),
(141,284,o),
(161,306,o),
(182,321,c),
(236,294,o),
(295,274,o),
(295,234,cs),
(295,201,o),
(276,179,o),
(256,162,c)
);
},
{
closed = 1;
nodes = (
(352,147,o),
(390,186,o),
(390,246,cs),
(390,371,o),
(177,378,o),
(177,452,cs),
(177,477,o),
(199,494,o),
(237,494,cs),
(267,494,o),
(296,486,o),
(326,466,cs),
(330,463,o),
(332,461,o),
(336,461,cs),
(341,461,o),
(344,462,o),
(345,467,cs),
(346,477,l),
(354,509,o),
(352,532,o),
(319,548,cs),
(299,558,o),
(270,566,o),
(227,566,cs),
(144,566,o),
(80,522,o),
(80,449,cs),
(80,408,o),
(98,382,o),
(122,359,c),
(88,337,o),
(50,301,o),
(50,247,cs),
(50,117,o),
(270,103,o),
(270,24,cs),
(270,-3,o),
(247,-26,o),
(199,-26,cs),
(145,-26,o),
(103,5,o),
(78,31,cs),
(73,36,o),
(67,34,o),
(65,28,cs),
(60,15,ls),
(48,-17,o),
(57,-40,o),
(87,-63,cs),
(116,-86,o),
(161,-98,o),
(209,-98,cs),
(312,-98,o),
(369,-39,o),
(369,35,cs),
(369,73,o),
(347,100,o),
(319,123,c)
);
}
);
width = 434;
}
);
note = section;
unicode = 167;
},
{
glyphname = dieresis;
layers = (
{
layerId = m01;
shapes = (
{
closed = 1;
nodes = (
(0,443,o),
(24,419,o),
(54,419,cs),
(84,419,o),
(108,443,o),
(108,474,cs),
(108,506,o),
(84,529,o),
(54,529,cs),
(24,529,o),
(0,506,o),
(0,474,cs)
);
},
{
closed = 1;
nodes = (
(157,443,o),
(181,419,o),
(212,419,cs),
(242,419,o),
(265,443,o),
(265,474,cs),
(265,506,o),
(242,529,o),
(212,529,cs),
(181,529,o),
(157,506,o),
(157,474,cs)
);
}
);
width = 266;
}
);
note = dieresis;
unicode = 168;
},
{
glyphname = copyright;
layers = (
{
layerId = m01;
shapes = (
{
closed = 1;
nodes = (
(27,206,o),
(115,116,o),
(250,116,cs),
(383,116,o),
(472,206,o),
(472,339,cs),
(472,473,o),
(383,563,o),
(250,563,cs),
(115,563,o),
(27,473,o),
(27,339,cs)
);
},
{
closed = 1;
nodes = (
(145,165,o),
(76,235,o),
(76,339,cs),
(76,444,o),
(145,514,o),
(250,514,cs),
(354,514,o),
(423,444,o),
(423,339,cs),
(423,235,o),
(354,165,o),
(250,165,cs)
);
},
{
closed = 1;
nodes = (
(299,221,o),
(338,250,o),
(338,288,cs),
(338,294,o),
(335,299,o),
(331,299,cs),
(329,299,o),
(328,298,o),
(324,294,cs),
(308,276,o),
(285,267,o),
(263,267,cs),
(221,267,o),
(195,293,o),
(195,339,cs),
(195,388,o),
(221,417,o),
(261,417,cs),
(284,417,o),
(299,411,o),
(315,401,cs),
(323,397,o),
(325,398,o),
(326,403,cs),
(329,414,ls),
(334,432,o),
(331,443,o),
(314,452,c),
(298,458,o),
(281,462,o),
(260,462,cs),
(196,462,o),
(143,416,o),
(143,339,cs),
(143,269,o),
(186,221,o),
(253,221,cs)
);
}
);
width = 499;
}
);
note = copyright;
unicode = 169;
},
{
glyphname = ordfeminine;
layers = (
{
layerId = m01;
shapes = (
{
closed = 1;
nodes = (
(255,266,ls),
(255,261,o),
(258,258,o),
(263,258,cs),
(328,258,ls),
(333,258,o),
(335,261,o),
(335,266,cs),
(335,544,ls),
(335,549,o),
(332,553,o),
(327,553,cs),
(322,553,ls),
(292,553,o),
(272,543,o),
(263,519,c),
(243,542,o),
(210,561,o),
(160,561,cs),
(74,561,o),
(16,494,o),
(16,407,cs),
(16,321,o),
(67,251,o),
(159,251,cs),
(199,251,o),
(234,266,o),
(255,294,c)
);
},
{
closed = 1;
nodes = (
(147,321,o),
(99,339,o),
(99,406,cs),
(99,471,o),
(145,487,o),
(178,487,cs),
(207,487,o),
(254,476,o),
(254,406,cs),
(254,336,o),
(207,321,o),
(175,321,cs)
);
}
);
width = 358;
}
);
note = ordfeminine;
unicode = 170;
},
{
glyphname = guillemotleft;
layers = (
{
layerId = m01;
shapes = (
{
closed = 1;
nodes = (
(391,336,ls),
(395,341,o),
(392,347,o),
(385,347,cs),
(321,347,ls),
(310,347,o),
(304,344,o),
(297,336,cs),
(197,206,ls),
(193,201,o),
(190,197,o),
(190,192,cs),
(190,187,o),
(193,183,o),
(197,178,cs),
(297,49,ls),
(304,40,o),
(310,38,o),
(321,38,cs),
(385,38,ls),
(392,38,o),
(395,44,o),
(391,49,cs),
(281,192,l)
);
},
{
closed = 1;
nodes = (
(224,336,ls),
(228,341,o),
(225,347,o),
(219,347,cs),
(154,347,ls),
(144,347,o),
(137,344,o),
(130,336,cs),
(30,206,ls),
(26,201,o),
(23,197,o),
(23,192,cs),
(23,187,o),
(26,183,o),
(30,178,cs),
(130,49,ls),
(137,40,o),
(144,38,o),
(154,38,cs),
(219,38,ls),
(225,38,o),
(228,44,o),
(224,49,cs),
(114,192,l)
);
}
);
width = 414;
}
);
note = guillemotleft;
unicode = 171;
},
{
glyphname = uni00AD;
layers = (
{
layerId = m01;
shapes = (
{
closed = 1;
nodes = (
(254,158,ls),
(262,158,o),
(265,162,o),
(265,169,cs),
(265,238,ls),
(265,245,o),
(262,249,o),
(254,249,cs),
(44,249,ls),
(36,249,o),
(33,245,o),
(33,238,cs),
(33,169,ls),
(33,162,o),
(36,158,o),
(44,158,cs)
);
}
);
width = 297;
}
);
note = uni00AD;
unicode = 173;
},
{
glyphname = registered;
layers = (
{
layerId = m01;
shapes = (
{
closed = 1;
nodes = (
(27,206,o),
(115,116,o),
(250,116,cs),
(383,116,o),
(472,206,o),
(472,339,cs),
(472,473,o),
(383,563,o),
(250,563,cs),
(115,563,o),
(27,473,o),
(27,339,cs)
);
},
{
closed = 1;
nodes = (
(145,165,o),
(76,235,o),
(76,339,cs),
(76,444,o),
(145,514,o),
(250,514,cs),
(354,514,o),
(423,444,o),
(423,339,cs),
(423,235,o),
(354,165,o),
(250,165,cs)
);
},
{
closed = 1;
nodes = (
(213,417,l),
(259,417,ls),
(284,417,o),
(301,408,o),
(301,383,cs),
(301,353,o),
(281,346,o),
(256,346,cs),
(213,346,l)
);
},
{
closed = 1;
nodes = (
(254,304,l),
(295,233,l),
(299,228,o),
(303,226,o),
(309,226,cs),
(349,226,ls),
(351,226,o),
(353,229,o),
(350,233,cs),
(299,309,l),
(331,321,o),
(349,348,o),
(349,382,cs),
(349,428,o),
(320,457,o),
(256,457,cs),
(170,457,ls),
(166,457,o),
(165,454,o),
(165,451,cs),
(165,233,ls),
(165,229,o),
(166,226,o),
(170,226,cs),
(206,226,ls),
(210,226,o),
(213,229,o),
(213,233,cs),
(213,304,l)
);
}
);
width = 499;
}
);
note = registered;
unicode = 174;
},
{
glyphname = macron;
layers = (
{
layerId = m01;
shapes = (
{
closed = 1;
nodes = (
(244,431,ls),
(252,431,o),
(254,433,o),
(254,442,cs),
(254,488,ls),
(254,497,o),
(252,499,o),
(244,499,cs),
(11,499,ls),
(3,499,o),
(0,497,o),
(0,488,cs),
(0,442,ls),
(0,433,o),
(3,431,o),
(11,431,cs)
);
}
);
width = 254;
}
);
note = macron;
unicode = 175;
},
{
glyphname = degree;
layers = (
{
layerId = m01;
shapes = (
{
closed = 1;
nodes = (
(190,368,o),
(233,416,o),
(233,474,cs),
(233,536,o),
(190,581,o),
(127,581,cs),
(64,581,o),
(21,536,o),
(21,474,cs),
(21,416,o),
(64,368,o),
(127,368,cs)
);
},
{
closed = 1;
nodes = (
(97,423,o),
(79,447,o),
(79,474,cs),
(79,502,o),
(97,527,o),
(127,527,cs),
(155,527,o),
(175,502,o),
(175,474,cs),
(175,447,o),
(155,423,o),
(127,423,cs)
);
}
);
width = 254;
}
);
note = degree;
unicode = 176;
},
{
glyphname = plusminus;
layers = (
{
layerId = m01;
shapes = (
{
closed = 1;
nodes = (
(166,150,ls),
(166,143,o),
(169,139,o),
(177,139,cs),
(241,139,ls),
(249,139,o),
(252,143,o),
(252,150,cs),
(252,284,l),
(374,284,ls),
(382,284,o),
(385,287,o),
(385,294,cs),
(385,354,ls),
(385,362,o),
(382,366,o),
(374,366,cs),
(252,366,l),
(252,438,ls),
(252,489,o),
(231,509,o),
(177,509,cs),
(169,509,o),
(166,507,o),
(166,499,cs),
(166,366,l),
(44,366,ls),
(36,366,o),
(33,362,o),
(33,354,cs),
(33,294,ls),
(33,287,o),
(36,284,o),
(44,284,cs),
(166,284,l)
);
},
{
closed = 1;
nodes = (
(374,0,ls),
(382,0,o),
(385,3,o),
(385,11,cs),
(385,24,ls),
(385,60,o),
(364,82,o),
(324,82,cs),
(44,82,ls),
(36,82,o),
(33,78,o),
(33,71,cs),
(33,11,ls),
(33,3,o),
(36,0,o),
(44,0,cs)
);
}
);
width = 418;
}
);
note = plusminus;
unicode = 177;
},
{
glyphname = twosuperior;
layers = (
{
layerId = m01;
shapes = (
{
closed = 1;
nodes = (
(140,343,o),
(275,363,o),
(275,471,cs),
(275,533,o),
(220,566,o),
(149,566,cs),
(115,566,o),
(78,557,o),
(54,543,cs),
(34,532,o),
(30,516,o),
(38,497,cs),
(46,478,ls),
(48,473,o),
(53,471,o),
(60,474,cs),
(86,488,o),
(110,501,o),
(141,501,cs),
(176,501,o),
(195,487,o),
(195,461,cs),
(195,382,o),
(28,393,o),
(28,236,cs),
(28,231,o),
(30,228,o),
(35,228,cs),
(270,228,ls),
(276,228,o),
(279,232,o),
(279,238,cs),
(279,253,ls),
(279,278,o),
(266,292,o),
(238,292,cs),
(123,292,l)
);
}
);
width = 307;
}
);
note = twosuperior;
unicode = 178;
},
{
glyphname = threesuperior;
layers = (
{
layerId = m01;
shapes = (
{
closed = 1;
nodes = (
(250,418,o),
(269,439,o),
(269,477,cs),
(269,537,o),
(219,566,o),
(146,566,cs),
(109,566,o),
(78,556,o),
(57,546,cs),
(39,537,o),
(31,521,o),
(39,502,cs),
(47,482,ls),
(50,473,o),
(58,474,o),
(64,478,cs),
(87,492,o),
(109,502,o),
(142,502,cs),
(177,502,o),
(196,488,o),
(196,466,cs),
(196,442,o),
(177,428,o),
(141,428,cs),
(92,428,ls),
(85,428,o),
(82,424,o),
(82,418,cs),
(82,403,ls),
(82,378,o),
(95,363,o),
(123,363,cs),
(136,363,ls),
(185,363,o),
(208,357,o),
(208,326,cs),
(208,298,o),
(184,284,o),
(142,284,cs),
(97,284,o),
(70,299,o),
(49,322,cs),
(45,326,o),
(42,327,o),
(39,327,cs),
(32,327,o),
(29,319,o),
(29,313,cs),
(29,279,o),
(66,221,o),
(153,221,cs),
(235,221,o),
(279,261,o),
(279,321,cs),
(279,362,o),
(259,388,o),
(218,401,c)
);
}
);
width = 308;
}
);
note = threesuperior;
unicode = 179;
},
{
glyphname = acute;
layers = (
{
layerId = m01;
shapes = (
{
closed = 1;
nodes = (
(77,430,ls),
(90,430,o),
(99,433,o),
(109,441,cs),
(199,516,ls),
(205,521,o),
(202,528,o),
(195,528,cs),
(115,528,ls),
(104,528,o),
(98,526,o),
(89,518,cs),
(5,442,ls),
(1,438,o),
(3,430,o),
(10,430,cs)
);
}
);
width = 201;
}
);
note = acute;
unicode = 180;
},
{
glyphname = paragraph;
layers = (
{
layerId = m01;
shapes = (
{
closed = 1;
nodes = (
(210,10,ls),
(210,3,o),
(213,0,o),
(220,0,cs),
(258,0,ls),
(264,0,o),
(268,3,o),
(268,10,cs),
(268,493,l),
(321,493,l),
(321,10,ls),
(321,3,o),
(324,0,o),
(331,0,cs),
(369,0,ls),
(376,0,o),
(379,3,o),
(379,10,cs),
(379,467,ls),
(379,532,o),
(350,556,o),
(294,556,cs),
(223,556,ls),
(88,556,o),
(32,487,o),
(32,391,cs),
(32,289,o),
(100,221,o),
(205,221,cs),
(210,221,l)
);
}
);
width = 437;
}
);
note = paragraph;
unicode = 182;
},
{
glyphname = periodcentered;
layers = (
{
layerId = m01;
shapes = (
{
closed = 1;
nodes = (
(115,219,o),
(140,245,o),
(140,279,cs),
(140,314,o),
(115,339,o),
(81,339,cs),
(48,339,o),
(22,314,o),
(22,279,cs),
(22,245,o),
(48,219,o),
(81,219,cs)
);
}
);
width = 162;
}
);
note = periodcentered;
unicode = 183;
},
{
glyphname = cedilla;
layers = (
{
layerId = m01;
shapes = (
{
closed = 1;
nodes = (
(70,-109,ls),
(82,-109,o),
(91,-106,o),
(97,-94,cs),
(141,-5,ls),
(144,1,o),
(142,5,o),
(135,5,cs),
(88,5,ls),
(76,5,o),
(68,4,o),
(61,-6,cs),
(3,-97,ls),
(0,-102,o),
(0,-109,o),
(8,-109,cs)
);
}
);
width = 142;
}
);
note = cedilla;
unicode = 184;
},
{
glyphname = onesuperior;
layers = (
{
layerId = m01;
shapes = (
{
closed = 1;
nodes = (
(97,237,ls),
(97,231,o),
(100,228,o),
(106,228,cs),
(167,228,ls),
(173,228,o),
(176,231,o),
(176,237,cs),
(176,519,ls),
(176,542,o),
(163,556,o),
(139,556,cs),
(108,556,ls),
(97,556,o),
(86,552,o),
(77,549,cs),
(45,538,l),
(36,536,o),
(33,531,o),
(33,523,cs),
(33,467,ls),
(33,462,o),
(37,459,o),
(43,462,c),
(97,481,l)
);
}
);
width = 224;
}
);
note = onesuperior;
unicode = 185;
},
{
glyphname = ordmasculine;
layers = (
{
layerId = m01;
shapes = (
{
closed = 1;
nodes = (
(16,312,o),
(80,251,o),
(175,251,cs),
(274,251,o),
(334,312,o),
(334,406,cs),
(334,499,o),
(273,561,o),
(175,561,cs),
(78,561,o),
(16,499,o),
(16,406,cs)
);
},
{
closed = 1;
nodes = (
(133,322,o),
(99,347,o),
(99,406,cs),
(99,462,o),
(133,489,o),
(175,489,cs),
(217,489,o),
(252,462,o),
(252,404,cs),
(252,346,o),
(217,322,o),
(175,322,cs)
);
}
);
width = 351;
}
);
note = ordmasculine;
unicode = 186;
},
{
glyphname = guillemotright;
layers = (
{
layerId = m01;
shapes = (
{
closed = 1;
nodes = (
(26,49,ls),
(22,44,o),
(25,38,o),
(32,38,cs),
(95,38,ls),
(106,38,o),
(112,40,o),
(119,49,cs),
(220,178,ls),
(224,183,o),
(227,187,o),
(227,192,cs),
(227,197,o),
(224,201,o),
(220,206,cs),
(119,336,ls),
(112,344,o),
(106,347,o),
(95,347,cs),
(32,347,ls),
(25,347,o),
(22,341,o),
(26,336,cs),
(135,192,l)
);
},
{
closed = 1;
nodes = (
(193,49,ls),
(189,44,o),
(192,38,o),
(198,38,cs),
(263,38,ls),
(273,38,o),
(279,40,o),
(286,49,cs),
(386,178,ls),
(390,183,o),
(394,187,o),
(394,192,cs),
(394,197,o),
(390,201,o),
(386,206,cs),
(286,336,ls),
(279,344,o),
(273,347,o),
(263,347,cs),
(198,347,ls),
(192,347,o),
(189,341,o),
(193,336,cs),
(301,192,l)
);
}
);
width = 414;
}
);
note = guillemotright;
unicode = 187;
},
{
glyphname = onequarter;
layers = (
{
layerId = m01;
shapes = (
{
closed = 1;
nodes = (
(540,9,ls),
(540,3,o),
(544,0,o),
(549,0,cs),
(606,0,ls),
(612,0,o),
(616,3,o),
(616,9,cs),
(616,70,l),
(661,70,ls),
(667,70,o),
(670,73,o),
(670,78,cs),
(670,97,ls),
(670,119,o),
(657,130,o),
(635,130,cs),
(616,130,l),
(616,294,ls),
(616,317,o),
(601,328,o),
(579,328,cs),
(532,328,ls),
(519,328,o),
(512,322,o),
(507,314,cs),
(380,131,ls),
(375,123,o),
(374,120,o),
(374,112,cs),
(374,78,ls),
(374,73,o),
(377,70,o),
(383,70,cs),
(540,70,l)
);
},
{
closed = 1;
nodes = (
(208,0,ls),
(216,0,o),
(220,3,o),
(224,11,cs),
(485,488,ls),
(507,527,o),
(492,556,o),
(456,556,cs),
(443,556,ls),
(435,556,o),
(431,552,o),
(427,544,cs),
(133,11,ls),
(130,6,o),
(132,0,o),
(139,0,cs)
);
},
{
closed = 1;
nodes = (
(540,262,l),
(540,130,l),
(450,130,l)
);
},
{
closed = 1;
nodes = (
(97,237,ls),
(97,231,o),
(100,228,o),
(106,228,cs),
(167,228,ls),
(173,228,o),
(176,231,o),
(176,237,cs),
(176,519,ls),
(176,542,o),
(163,556,o),
(139,556,cs),
(108,556,ls),
(97,556,o),
(86,552,o),
(77,549,cs),
(45,538,l),
(36,536,o),
(33,531,o),
(33,523,cs),
(33,467,ls),
(33,462,o),
(37,459,o),
(43,462,c),
(97,481,l)
);
}
);
width = 703;
}
);
note = onequarter;
unicode = 188;
},
{
glyphname = onehalf;
layers = (
{
layerId = m01;
shapes = (
{
closed = 1;
nodes = (
(469,554,o),
(462,556,o),
(456,556,cs),
(443,556,ls),
(435,556,o),
(431,552,o),
(427,544,cs),
(133,11,ls),
(130,6,o),
(132,0,o),
(139,0,cs),
(189,0,l),
(208,0,ls),
(216,0,o),
(220,3,o),
(224,11,cs),
(485,488,ls),
(502,519,o),
(497,543,o),
(474,551,c)
);
},
{
closed = 1;
nodes = (
(97,237,ls),
(97,231,o),
(100,228,o),
(106,228,cs),
(167,228,ls),
(173,228,o),
(176,231,o),
(176,237,cs),
(176,516,ls),
(176,519,o),
(176,523,o),
(175,527,cs),
(173,543,o),
(164,552,o),
(148,554,c),
(144,556,o),
(140,556,o),
(136,556,cs),
(125,556,ls),
(117,556,o),
(110,556,o),
(103,554,c),
(99,554,o),
(95,554,o),
(92,553,cs),
(86,552,o),
(79,551,o),
(75,548,c),
(45,538,l),
(39,537,o),
(35,533,o),
(34,528,c),
(33,527,o),
(33,523,o),
(33,521,cs),
(33,467,ls),
(33,462,o),
(37,459,o),
(43,462,c),
(97,481,l)
);
},
{
closed = 1;
nodes = (
(554,115,o),
(687,135,o),
(687,244,cs),
(687,306,o),
(634,339,o),
(562,339,cs),
(529,339,o),
(491,329,o),
(467,316,cs),
(448,304,o),
(444,288,o),
(452,271,cs),
(460,252,l),
(461,247,o),
(466,244,o),
(472,248,cs),
(499,262,o),
(524,274,o),
(555,274,cs),
(590,274,o),
(609,259,o),
(609,234,cs),
(609,154,o),
(442,165,o),
(442,8,cs),
(442,3,o),
(444,0,o),
(449,0,cs),
(682,0,ls),
(690,0,o),
(692,4,o),
(692,10,cs),
(692,25,ls),
(692,51,o),
(679,65,o),
(650,65,cs),
(537,65,l)
);
}
);
width = 747;
}
);
note = onehalf;
unicode = 189;
},
{
glyphname = threequarters;
layers = (
{
layerId = m01;
shapes = (
{
closed = 1;
nodes = (
(605,9,ls),
(605,3,o),
(608,0,o),
(613,0,cs),
(670,0,ls),
(676,0,o),
(680,3,o),
(680,9,cs),
(680,70,l),
(726,70,ls),
(732,70,o),
(735,73,o),
(735,78,cs),
(735,97,ls),
(735,119,o),
(722,130,o),
(698,130,cs),
(680,130,l),
(680,294,ls),
(680,317,o),
(665,328,o),
(643,328,cs),
(597,328,ls),
(583,328,o),
(577,322,o),
(572,314,cs),
(445,131,ls),
(440,123,o),
(438,120,o),
(438,112,cs),
(438,78,ls),
(438,73,o),
(442,70,o),
(448,70,cs),
(605,70,l)
);
},
{
closed = 1;
nodes = (
(273,0,ls),
(280,0,o),
(284,3,o),
(288,11,cs),
(550,488,ls),
(571,527,o),
(557,556,o),
(520,556,cs),
(507,556,ls),
(498,556,o),
(495,552,o),
(491,544,cs),
(198,11,ls),
(195,6,o),
(197,0,o),
(204,0,cs)
);
},
{
closed = 1;
nodes = (
(605,262,l),
(605,130,l),
(513,130,l)
);
},
{
closed = 1;
nodes = (
(250,418,o),
(269,439,o),
(269,477,cs),
(269,537,o),
(219,566,o),
(146,566,cs),
(109,566,o),
(78,556,o),
(57,546,cs),
(39,537,o),
(31,521,o),
(39,502,cs),
(47,482,ls),
(50,473,o),
(58,474,o),
(64,478,cs),
(87,492,o),
(109,502,o),
(142,502,cs),
(177,502,o),
(196,488,o),
(196,466,cs),
(196,442,o),
(177,428,o),
(141,428,cs),
(92,428,ls),
(85,428,o),
(82,424,o),
(82,418,cs),
(82,403,ls),
(82,378,o),
(95,363,o),
(123,363,cs),
(136,363,ls),
(185,363,o),
(208,357,o),
(208,326,cs),
(208,298,o),
(184,284,o),
(142,284,cs),
(97,284,o),
(70,299,o),
(49,322,cs),
(45,326,o),
(42,327,o),
(39,327,cs),
(32,327,o),
(29,319,o),
(29,313,cs),
(29,279,o),
(66,221,o),
(153,221,cs),
(235,221,o),
(279,261,o),
(279,321,cs),
(279,362,o),
(259,388,o),
(218,401,c)
);
}
);
width = 768;
}
);
note = threequarters;
unicode = 190;
},
{
glyphname = questiondown;
layers = (
{
layerId = m01;
shapes = (
{
closed = 1;
nodes = (
(239,264,o),
(266,289,o),
(266,324,cs),
(266,359,o),
(239,384,o),
(206,384,cs),
(172,384,o),
(146,359,o),
(146,324,cs),
(146,289,o),
(172,264,o),
(206,264,cs)
);
},
{
closed = 1;
nodes = (
(10,-140,o),
(87,-192,o),
(196,-192,cs),
(257,-192,o),
(307,-176,o),
(359,-145,cs),
(368,-140,o),
(369,-133,o),
(368,-126,c),
(349,-69,l),
(348,-63,o),
(344,-61,o),
(341,-61,cs),
(338,-61,o),
(334,-62,o),
(328,-66,cs),
(284,-89,o),
(249,-103,o),
(197,-103,cs),
(143,-103,o),
(110,-76,o),
(110,-29,cs),
(110,61,o),
(247,82,o),
(247,170,cs),
(247,199,o),
(225,221,o),
(195,221,cs),
(177,221,ls),
(169,221,o),
(166,217,o),
(166,210,cs),
(166,189,ls),
(166,172,o),
(163,164,o),
(147,152,cs),
(68,92,o),
(10,42,o),
(10,-44,cs)
);
}
);
width = 343;
}
);
note = questiondown;
unicode = 191;
},
{
glyphname = Agrave;
kernLeft = A;
kernRight = A;
layers = (
{
layerId = m01;
shapes = (
{
closed = 1;
nodes = (
(258,438,l),
(333,223,l),
(184,223,l)
);
},
{
closed = 1;
nodes = (
(361,140,l),
(406,13,ls),
(409,4,o),
(414,0,o),
(425,0,cs),
(504,0,ls),
(511,0,o),
(514,6,o),
(511,11,c),
(340,482,ls),
(318,541,o),
(296,556,o),
(248,556,cs),
(215,556,ls),
(209,556,o),
(205,553,o),
(203,546,cs),
(9,11,ls),
(7,6,o),
(10,0,o),
(17,0,cs),
(94,0,ls),
(103,0,o),
(106,4,o),
(109,13,cs),
(154,140,l)
);
},
{
closed = 1;
nodes = (
(240,609,ls),
(250,601,o),
(260,598,o),
(273,598,cs),
(339,598,ls),
(347,598,o),
(349,606,o),
(345,610,cs),
(261,686,ls),
(253,693,o),
(246,696,o),
(235,696,cs),
(155,696,ls),
(148,696,o),
(145,688,o),
(151,683,cs)
);
}
);
width = 521;
}
);
note = Agrave;
unicode = 192;
},
{
glyphname = Aacute;
kernLeft = A;
kernRight = A;
layers = (
{
layerId = m01;
shapes = (
{
closed = 1;
nodes = (
(258,438,l),
(333,223,l),
(184,223,l)
);
},
{
closed = 1;
nodes = (
(361,140,l),
(406,13,ls),
(409,4,o),
(414,0,o),
(425,0,cs),
(504,0,ls),
(511,0,o),
(514,6,o),
(511,11,c),
(340,482,ls),
(318,541,o),
(296,556,o),
(248,556,cs),
(215,556,ls),
(209,556,o),
(205,553,o),
(203,546,cs),
(9,11,ls),
(7,6,o),
(10,0,o),
(17,0,cs),
(94,0,ls),
(103,0,o),
(106,4,o),
(109,13,cs),
(154,140,l)
);
},
{
closed = 1;
nodes = (
(237,598,ls),
(250,598,o),
(260,601,o),
(270,609,cs),
(359,683,ls),
(365,688,o),
(363,696,o),
(355,696,cs),
(276,696,ls),
(264,696,o),
(258,693,o),
(249,686,cs),
(165,610,ls),
(161,606,o),
(164,598,o),
(170,598,cs)
);
}
);
width = 521;
}
);
note = Aacute;
unicode = 193;
},
{
glyphname = Acircumflex;
kernLeft = A;
kernRight = A;
layers = (
{
layerId = m01;
shapes = (
{
closed = 1;
nodes = (
(258,438,l),
(333,223,l),
(184,223,l)
);
},
{
closed = 1;
nodes = (
(361,140,l),
(406,13,ls),
(409,4,o),
(414,0,o),
(425,0,cs),
(504,0,ls),
(511,0,o),
(514,6,o),
(511,11,c),
(340,482,ls),
(318,541,o),
(296,556,o),
(248,556,cs),
(215,556,ls),
(209,556,o),
(205,553,o),
(203,546,cs),
(9,11,ls),
(7,6,o),
(10,0,o),
(17,0,cs),
(94,0,ls),
(103,0,o),
(106,4,o),
(109,13,cs),
(154,140,l)
);
},
{
closed = 1;
nodes = (
(304,611,ls),
(313,601,o),
(323,598,o),
(335,598,cs),
(394,598,ls),
(402,598,o),
(404,606,o),
(400,610,cs),
(325,686,ls),
(316,696,o),
(310,696,o),
(298,696,cs),
(223,696,ls),
(210,696,o),
(204,694,o),
(195,686,cs),
(120,610,ls),
(116,606,o),
(119,598,o),
(125,598,cs),
(184,598,ls),
(197,598,o),
(207,601,o),
(216,611,cs),
(261,661,l)
);
}
);
width = 521;
}
);
note = Acircumflex;
unicode = 194;
},
{
glyphname = Atilde;
kernLeft = A;
kernRight = A;
layers = (
{
layerId = m01;
shapes = (
{
closed = 1;
nodes = (
(258,438,l),
(333,223,l),
(184,223,l)
);
},
{
closed = 1;
nodes = (
(361,140,l),
(406,13,ls),
(409,4,o),
(414,0,o),
(425,0,cs),
(504,0,ls),
(511,0,o),
(514,6,o),
(511,11,c),
(340,482,ls),
(318,541,o),
(296,556,o),
(248,556,cs),
(215,556,ls),
(209,556,o),
(205,553,o),
(203,546,cs),
(9,11,ls),
(7,6,o),
(10,0,o),
(17,0,cs),
(94,0,ls),
(103,0,o),
(106,4,o),
(109,13,cs),
(154,140,l)
);
},
{
closed = 1;
nodes = (
(166,597,ls),
(173,597,o),
(178,600,o),
(179,607,cs),
(180,619,o),
(185,629,o),
(200,629,cs),
(226,629,o),
(269,600,o),
(308,600,cs),
(359,600,o),
(379,629,o),
(385,686,cs),
(386,692,o),
(382,696,o),
(375,696,cs),
(334,696,ls),
(329,696,o),
(324,693,o),
(323,686,cs),
(320,672,o),
(314,664,o),
(301,664,cs),
(271,664,o),
(231,696,o),
(186,696,cs),
(144,696,o),
(120,663,o),
(116,608,cs),
(116,601,o),
(119,597,o),
(126,597,cs)
);
}
);
width = 521;
}
);
note = Atilde;
unicode = 195;
},
{
glyphname = Adieresis;
kernLeft = A;
kernRight = A;
layers = (
{
layerId = m01;
shapes = (
{
closed = 1;
nodes = (
(258,438,l),
(333,223,l),
(184,223,l)
);
},
{
closed = 1;
nodes = (
(361,140,l),
(406,13,ls),
(409,4,o),
(414,0,o),
(425,0,cs),
(504,0,ls),
(511,0,o),
(514,6,o),
(511,11,c),
(340,482,ls),
(318,541,o),
(296,556,o),
(248,556,cs),
(215,556,ls),
(209,556,o),
(205,553,o),
(203,546,cs),
(9,11,ls),
(7,6,o),
(10,0,o),
(17,0,cs),
(94,0,ls),
(103,0,o),
(106,4,o),
(109,13,cs),
(154,140,l)
);
},
{
closed = 1;
nodes = (
(122,611,o),
(146,587,o),
(176,587,cs),
(206,587,o),
(230,611,o),
(230,642,cs),
(230,673,o),
(206,697,o),
(176,697,cs),
(146,697,o),
(122,673,o),
(122,642,cs)
);
},
{
closed = 1;
nodes = (
(279,611,o),
(303,587,o),
(334,587,cs),
(364,587,o),
(387,611,o),
(387,642,cs),
(387,673,o),
(364,697,o),
(334,697,cs),
(303,697,o),
(279,673,o),
(279,642,cs)
);
}
);
width = 521;
}
);
note = Adieresis;
unicode = 196;
},
{
glyphname = Aring;
kernLeft = A;
kernRight = A;
layers = (
{
layerId = m01;
shapes = (
{
closed = 1;
nodes = (
(258,438,l),
(333,223,l),
(184,223,l)
);
},
{
closed = 1;
nodes = (
(361,140,l),
(406,13,ls),
(409,4,o),
(414,0,o),
(425,0,cs),
(504,0,ls),
(511,0,o),
(514,6,o),
(511,11,c),
(340,482,ls),
(318,541,o),
(296,556,o),
(248,556,cs),
(215,556,ls),
(209,556,o),
(205,553,o),
(203,546,cs),
(9,11,ls),
(7,6,o),
(10,0,o),
(17,0,cs),
(94,0,ls),
(103,0,o),
(106,4,o),
(109,13,cs),
(154,140,l)
);
},
{
closed = 1;
nodes = (
(178,620,o),
(213,586,o),
(254,586,cs),
(297,586,o),
(331,620,o),
(331,662,cs),
(331,703,o),
(297,737,o),
(254,737,cs),
(213,737,o),
(178,703,o),
(178,662,cs)
);
},
{
closed = 1;
nodes = (
(235,628,o),
(221,643,o),
(221,662,cs),
(221,681,o),
(235,696,o),
(254,696,cs),
(274,696,o),
(287,681,o),
(287,662,cs),
(287,643,o),
(274,628,o),
(254,628,cs)
);
}
);
width = 521;
}
);
note = Aring;
unicode = 197;
},
{
glyphname = AE;
kernRight = E;
layers = (
{
layerId = m01;
shapes = (
{
closed = 1;
nodes = (
(350,140,l),
(350,11,ls),
(350,3,o),
(352,0,o),
(360,0,cs),
(670,0,ls),
(679,0,o),
(684,6,o),
(684,14,cs),
(684,35,ls),
(684,71,o),
(664,91,o),
(627,91,cs),
(449,91,l),
(449,233,l),
(643,233,ls),
(651,233,o),
(656,238,o),
(656,247,cs),
(656,269,ls),
(656,304,o),
(637,323,o),
(599,323,cs),
(449,323,l),
(449,464,l),
(662,464,ls),
(671,464,o),
(675,471,o),
(675,478,cs),
(675,499,ls),
(675,536,o),
(655,556,o),
(618,556,cs),
(314,556,ls),
(304,556,o),
(297,552,o),
(294,544,c),
(6,11,ls),
(3,5,o),
(6,0,o),
(13,0,cs),
(93,0,ls),
(102,0,o),
(108,3,o),
(113,13,cs),
(179,140,l)
);
},
{
closed = 1;
nodes = (
(350,466,l),
(350,224,l),
(222,224,l)
);
}
);
width = 708;
}
);
note = AE;
unicode = 198;
},
{
glyphname = Ccedilla;
kernLeft = C;
kernRight = C;
layers = (
{
layerId = m01;
shapes = (
{
closed = 1;
nodes = (
(455,12,o),
(492,92,o),
(492,132,cs),
(492,147,o),
(487,156,o),
(477,156,cs),
(472,156,o),
(467,155,o),
(461,147,cs),
(435,118,o),
(383,83,o),
(313,83,cs),
(213,83,o),
(144,148,o),
(144,276,cs),
(144,408,o),
(211,472,o),
(310,472,cs),
(367,472,o),
(403,458,o),
(445,436,cs),
(451,433,o),
(456,431,o),
(460,431,cs),
(465,431,o),
(467,433,o),
(470,442,cs),
(476,467,ls),
(483,502,o),
(475,522,o),
(437,541,cs),
(402,556,o),
(363,566,o),
(308,566,cs),
(154,566,o),
(44,457,o),
(44,276,cs),
(44,112,o),
(131,7,o),
(266,-9,c),
(208,-100,ls),
(205,-105,o),
(205,-112,o),
(213,-112,cs),
(275,-112,ls),
(287,-112,o),
(296,-109,o),
(302,-97,cs),
(346,-8,l)
);
}
);
width = 511;
}
);
note = Ccedilla;
unicode = 199;
},
{
glyphname = Egrave;
kernRight = E;
layers = (
{
layerId = m01;
shapes = (
{
closed = 1;
nodes = (
(154,232,l),
(350,232,ls),
(359,232,o),
(363,237,o),
(363,246,cs),
(363,268,ls),
(363,304,o),
(344,323,o),
(305,323,cs),
(154,323,l),
(154,465,l),
(369,465,ls),
(378,465,o),
(383,471,o),
(383,479,cs),
(383,500,ls),
(383,536,o),
(363,556,o),
(325,556,cs),
(67,556,ls),
(60,556,o),
(56,552,o),
(56,544,cs),
(56,11,ls),
(56,3,o),
(60,0,o),
(67,0,cs),
(378,0,ls),
(387,0,o),
(391,6,o),
(391,14,cs),
(391,35,ls),
(391,71,o),
(372,91,o),
(333,91,cs),
(154,91,l)
);
},
{
closed = 1;
nodes = (
(187,609,ls),
(197,601,o),
(207,598,o),
(219,598,cs),
(285,598,ls),
(293,598,o),
(295,606,o),
(291,610,cs),
(208,686,ls),
(199,693,o),
(193,696,o),
(181,696,cs),
(101,696,ls),
(94,696,o),
(92,688,o),
(97,683,cs)
);
}
);
width = 418;
}
);
note = Egrave;
unicode = 200;
},
{
glyphname = Eacute;
kernRight = E;
layers = (
{
layerId = m01;
shapes = (
{
closed = 1;
nodes = (
(154,232,l),
(350,232,ls),
(359,232,o),
(363,237,o),
(363,246,cs),
(363,268,ls),
(363,304,o),
(344,323,o),
(305,323,cs),
(154,323,l),
(154,465,l),
(369,465,ls),
(378,465,o),
(383,471,o),
(383,479,cs),
(383,500,ls),
(383,536,o),
(363,556,o),
(325,556,cs),
(67,556,ls),
(60,556,o),
(56,552,o),
(56,544,cs),
(56,11,ls),
(56,3,o),
(60,0,o),
(67,0,cs),
(378,0,ls),
(387,0,o),
(391,6,o),
(391,14,cs),
(391,35,ls),
(391,71,o),
(372,91,o),
(333,91,cs),
(154,91,l)
);
},
{
closed = 1;
nodes = (
(204,598,ls),
(217,598,o),
(227,601,o),
(237,609,cs),
(326,683,ls),
(332,688,o),
(329,696,o),
(322,696,cs),
(243,696,ls),
(231,696,o),
(225,693,o),
(216,686,cs),
(132,610,ls),
(128,606,o),
(130,598,o),
(137,598,cs)
);
}
);
width = 418;
}
);
note = Eacute;
unicode = 201;
},
{
glyphname = Ecircumflex;
kernRight = E;
layers = (
{
layerId = m01;
shapes = (
{
closed = 1;
nodes = (
(154,232,l),
(350,232,ls),
(359,232,o),
(363,237,o),
(363,246,cs),
(363,268,ls),
(363,304,o),
(344,323,o),
(305,323,cs),
(154,323,l),
(154,465,l),
(369,465,ls),
(378,465,o),
(383,471,o),
(383,479,cs),
(383,500,ls),
(383,536,o),
(363,556,o),
(325,556,cs),
(67,556,ls),
(60,556,o),
(56,552,o),
(56,544,cs),
(56,11,ls),
(56,3,o),
(60,0,o),
(67,0,cs),
(378,0,ls),
(387,0,o),
(391,6,o),
(391,14,cs),
(391,35,ls),
(391,71,o),
(372,91,o),
(333,91,cs),
(154,91,l)
);
},
{
closed = 1;
nodes = (
(257,611,ls),
(265,601,o),
(275,598,o),
(288,598,cs),
(347,598,ls),
(355,598,o),
(357,606,o),
(353,610,cs),
(278,686,ls),
(269,696,o),
(263,696,o),
(250,696,cs),
(176,696,ls),
(163,696,o),
(157,694,o),
(148,686,cs),
(73,610,ls),
(69,606,o),
(72,598,o),
(78,598,cs),
(137,598,ls),
(150,598,o),
(160,601,o),
(169,611,cs),
(214,661,l)
);
}
);
width = 418;
}
);
note = Ecircumflex;
unicode = 202;
},
{
glyphname = Edieresis;
kernRight = E;
layers = (
{
layerId = m01;
shapes = (
{
closed = 1;
nodes = (
(154,232,l),
(350,232,ls),
(359,232,o),
(363,237,o),
(363,246,cs),
(363,268,ls),
(363,304,o),
(344,323,o),
(305,323,cs),
(154,323,l),
(154,465,l),
(369,465,ls),
(378,465,o),
(383,471,o),
(383,479,cs),
(383,500,ls),
(383,536,o),
(363,556,o),
(325,556,cs),
(67,556,ls),
(60,556,o),
(56,552,o),
(56,544,cs),
(56,11,ls),
(56,3,o),
(60,0,o),
(67,0,cs),
(378,0,ls),
(387,0,o),
(391,6,o),
(391,14,cs),
(391,35,ls),
(391,71,o),
(372,91,o),
(333,91,cs),
(154,91,l)
);
},
{
closed = 1;
nodes = (
(85,611,o),
(109,587,o),
(140,587,cs),
(170,587,o),
(194,611,o),
(194,642,cs),
(194,673,o),
(170,697,o),
(140,697,cs),
(109,697,o),
(85,673,o),
(85,642,cs)
);
},
{
closed = 1;
nodes = (
(243,611,o),
(266,587,o),
(297,587,cs),
(327,587,o),
(350,611,o),
(350,642,cs),
(350,673,o),
(327,697,o),
(297,697,cs),
(266,697,o),
(243,673,o),
(243,642,cs)
);
}
);
width = 418;
}
);
note = Edieresis;
unicode = 203;
},
{
glyphname = Igrave;
kernRight = I;
layers = (
{
layerId = m01;
shapes = (
{
closed = 1;
nodes = (
(147,0,ls),
(156,0,o),
(158,3,o),
(158,11,cs),
(158,469,ls),
(158,531,o),
(132,556,o),
(80,556,cs),
(71,556,ls),
(64,556,o),
(60,552,o),
(60,544,cs),
(60,11,ls),
(60,3,o),
(64,0,o),
(71,0,cs)
);
},
{
closed = 1;
nodes = (
(99,609,ls),
(109,601,o),
(119,598,o),
(132,598,cs),
(197,598,ls),
(206,598,o),
(207,606,o),
(203,610,cs),
(120,686,ls),
(111,693,o),
(105,696,o),
(93,696,cs),
(13,696,ls),
(7,696,o),
(4,688,o),
(10,683,cs)
);
}
);
width = 212;
}
);
note = Igrave;
unicode = 204;
},
{
glyphname = Iacute;
kernRight = I;
layers = (
{
layerId = m01;
shapes = (
{
closed = 1;
nodes = (
(148,0,ls),
(156,0,o),
(159,3,o),
(159,11,cs),
(159,469,ls),
(159,531,o),
(132,556,o),
(81,556,cs),
(72,556,ls),
(65,556,o),
(61,552,o),
(61,544,cs),
(61,11,ls),
(61,3,o),
(65,0,o),
(72,0,cs)
);
},
{
closed = 1;
nodes = (
(80,598,ls),
(93,598,o),
(102,601,o),
(112,609,cs),
(202,683,ls),
(208,688,o),
(205,696,o),
(198,696,cs),
(118,696,ls),
(107,696,o),
(101,693,o),
(92,686,cs),
(8,610,ls),
(4,606,o),
(6,598,o),
(13,598,cs)
);
}
);
width = 212;
}
);
note = Iacute;
unicode = 205;
},
{
glyphname = Icircumflex;
kernRight = I;
layers = (
{
layerId = m01;
shapes = (
{
closed = 1;
nodes = (
(144,0,ls),
(153,0,o),
(155,3,o),
(155,11,cs),
(155,469,ls),
(155,531,o),
(129,556,o),
(77,556,cs),
(68,556,ls),
(61,556,o),
(57,552,o),
(57,544,cs),
(57,11,ls),
(57,3,o),
(61,0,o),
(68,0,cs)
);
},
{
closed = 1;
nodes = (
(150,611,ls),
(158,601,o),
(168,598,o),
(181,598,cs),
(239,598,ls),
(248,598,o),
(249,606,o),
(245,610,cs),
(171,686,ls),
(162,696,o),
(156,696,o),
(143,696,cs),
(69,696,ls),
(55,696,o),
(50,694,o),
(41,686,cs),
(-34,610,ls),
(-38,606,o),
(-36,598,o),
(-29,598,cs),
(30,598,ls),
(43,598,o),
(53,601,o),
(61,611,cs),
(106,661,l)
);
}
);
width = 212;
}
);
note = Icircumflex;
unicode = 206;
},
{
glyphname = Idieresis;
kernRight = I;
layers = (
{
layerId = m01;
shapes = (
{
closed = 1;
nodes = (
(144,0,ls),
(152,0,o),
(155,3,o),
(155,11,cs),
(155,469,ls),
(155,531,o),
(129,556,o),
(77,556,cs),
(68,556,ls),
(61,556,o),
(57,552,o),
(57,544,cs),
(57,11,ls),
(57,3,o),
(61,0,o),
(68,0,cs)
);
},
{
closed = 1;
nodes = (
(-27,611,o),
(-3,587,o),
(27,587,cs),
(57,587,o),
(81,611,o),
(81,642,cs),
(81,673,o),
(57,697,o),
(27,697,cs),
(-3,697,o),
(-27,673,o),
(-27,642,cs)
);
},
{
closed = 1;
nodes = (
(130,611,o),
(154,587,o),
(185,587,cs),
(215,587,o),
(238,611,o),
(238,642,cs),
(238,673,o),
(215,697,o),
(185,697,cs),
(154,697,o),
(130,673,o),
(130,642,cs)
);
}
);
width = 212;
}
);
note = Idieresis;
unicode = 207;
},
{
glyphname = Eth;
layers = (
{
layerId = m01;
shapes = (
{
closed = 1;
nodes = (
(70,11,ls),
(70,3,o),
(73,0,o),
(80,0,cs),
(235,0,ls),
(413,0,o),
(527,86,o),
(527,286,cs),
(527,487,o),
(394,556,o),
(243,556,cs),
(80,556,ls),
(73,556,o),
(70,552,o),
(70,544,cs),
(70,324,l),
(21,324,ls),
(13,324,o),
(10,322,o),
(10,314,cs),
(10,246,ls),
(10,239,o),
(13,235,o),
(21,235,cs),
(70,235,l)
);
},
{
closed = 1;
nodes = (
(168,235,l),
(307,235,ls),
(314,235,o),
(319,241,o),
(319,249,cs),
(319,269,ls),
(319,304,o),
(299,324,o),
(263,324,cs),
(168,324,l),
(168,464,l),
(241,464,ls),
(359,464,o),
(426,417,o),
(426,283,cs),
(426,154,o),
(359,91,o),
(246,91,cs),
(168,91,l)
);
}
);
width = 571;
}
);
note = Eth;
unicode = 208;
},
{
glyphname = Ntilde;
kernRight = N;
layers = (
{
layerId = m01;
shapes = (
{
closed = 1;
nodes = (
(178,507,ls),
(157,542,o),
(138,556,o),
(97,556,cs),
(67,556,ls),
(60,556,o),
(56,552,o),
(56,544,cs),
(56,11,ls),
(56,3,o),
(60,0,o),
(67,0,cs),
(143,0,ls),
(152,0,o),
(154,3,o),
(154,11,cs),
(154,368,l),
(372,13,ls),
(378,3,o),
(384,0,o),
(394,0,cs),
(465,0,ls),
(472,0,o),
(476,3,o),
(476,11,cs),
(476,469,ls),
(476,531,o),
(449,556,o),
(397,556,cs),
(389,556,ls),
(381,556,o),
(378,552,o),
(378,544,cs),
(378,180,l)
);
},
{
closed = 1;
nodes = (
(181,597,ls),
(187,597,o),
(192,600,o),
(193,607,cs),
(195,619,o),
(200,629,o),
(215,629,cs),
(241,629,o),
(283,600,o),
(322,600,cs),
(374,600,o),
(394,629,o),
(400,686,cs),
(400,692,o),
(397,696,o),
(390,696,cs),
(349,696,ls),
(343,696,o),
(338,693,o),
(337,686,cs),
(334,672,o),
(328,664,o),
(315,664,cs),
(285,664,o),
(245,696,o),
(201,696,cs),
(158,696,o),
(134,663,o),
(130,608,cs),
(130,601,o),
(133,597,o),
(140,597,cs)
);
}
);
width = 533;
}
);
note = Ntilde;
unicode = 209;
},
{
glyphname = Ograve;
kernLeft = O;
kernRight = O;
layers = (
{
layerId = m01;
shapes = (
{
closed = 1;
nodes = (
(217,83,o),
(143,129,o),
(143,277,cs),
(143,425,o),
(217,473,o),
(303,473,cs),
(387,473,o),
(462,425,o),
(462,277,cs),
(462,129,o),
(389,83,o),
(303,83,cs)
);
},
{
closed = 1;
nodes = (
(468,-10,o),
(562,101,o),
(562,277,cs),
(562,453,o),
(466,566,o),
(303,566,cs),
(140,566,o),
(43,453,o),
(43,277,cs),
(43,101,o),
(138,-10,o),
(303,-10,cs)
);
},
{
closed = 1;
nodes = (
(288,609,ls),
(298,601,o),
(308,598,o),
(321,598,cs),
(386,598,ls),
(395,598,o),
(396,606,o),
(392,610,cs),
(309,686,ls),
(300,693,o),
(294,696,o),
(282,696,cs),
(202,696,ls),
(196,696,o),
(193,688,o),
(199,683,cs)
);
}
);
width = 607;
}
);
note = Ograve;
unicode = 210;
},
{
glyphname = Oacute;
kernLeft = O;
kernRight = O;
layers = (
{
layerId = m01;
shapes = (
{
closed = 1;
nodes = (
(217,83,o),
(143,129,o),
(143,277,cs),
(143,425,o),
(217,473,o),
(303,473,cs),
(387,473,o),
(462,425,o),
(462,277,cs),
(462,129,o),
(389,83,o),
(303,83,cs)
);
},
{
closed = 1;
nodes = (
(468,-10,o),
(562,101,o),
(562,277,cs),
(562,453,o),
(466,566,o),
(303,566,cs),
(140,566,o),
(43,453,o),
(43,277,cs),
(43,101,o),
(138,-10,o),
(303,-10,cs)
);
},
{
closed = 1;
nodes = (
(284,598,ls),
(297,598,o),
(306,601,o),
(316,609,cs),
(406,683,ls),
(412,688,o),
(409,696,o),
(402,696,cs),
(322,696,ls),
(311,696,o),
(305,693,o),
(296,686,cs),
(212,610,ls),
(208,606,o),
(210,598,o),
(217,598,cs)
);
}
);
width = 607;
}
);
note = Oacute;
unicode = 211;
},
{
glyphname = Ocircumflex;
kernLeft = O;
kernRight = O;
layers = (
{
layerId = m01;
shapes = (
{
closed = 1;
nodes = (
(217,83,o),
(143,129,o),
(143,277,cs),
(143,425,o),
(217,473,o),
(303,473,cs),
(387,473,o),
(462,425,o),
(462,277,cs),
(462,129,o),
(389,83,o),
(303,83,cs)
);
},
{
closed = 1;
nodes = (
(468,-10,o),
(562,101,o),
(562,277,cs),
(562,453,o),
(466,566,o),
(303,566,cs),
(140,566,o),
(43,453,o),
(43,277,cs),
(43,101,o),
(138,-10,o),
(303,-10,cs)
);
},
{
closed = 1;
nodes = (
(346,611,ls),
(355,601,o),
(365,598,o),
(377,598,cs),
(436,598,ls),
(444,598,o),
(446,606,o),
(442,610,cs),
(367,686,l),
(359,696,o),
(352,696,o),
(340,696,cs),
(265,696,ls),
(252,696,o),
(246,694,o),
(237,686,cs),
(162,610,l),
(159,606,o),
(161,598,o),
(167,598,cs),
(226,598,ls),
(239,598,o),
(249,601,o),
(258,611,cs),
(303,661,l)
);
}
);
width = 607;
}
);
note = Ocircumflex;
unicode = 212;
},
{
glyphname = Otilde;
kernLeft = O;
kernRight = O;
layers = (
{
layerId = m01;
shapes = (
{
closed = 1;
nodes = (
(217,83,o),
(143,129,o),
(143,277,cs),
(143,425,o),
(217,473,o),
(303,473,cs),
(387,473,o),
(462,425,o),
(462,277,cs),
(462,129,o),
(389,83,o),
(303,83,cs)
);
},
{
closed = 1;
nodes = (
(468,-10,o),
(562,101,o),
(562,277,cs),
(562,453,o),
(466,566,o),
(303,566,cs),
(140,566,o),
(43,453,o),
(43,277,cs),
(43,101,o),
(138,-10,o),
(303,-10,cs)
);
},
{
closed = 1;
nodes = (
(215,597,ls),
(221,597,o),
(226,600,o),
(227,607,cs),
(229,619,o),
(234,629,o),
(249,629,cs),
(275,629,o),
(317,600,o),
(356,600,cs),
(407,600,o),
(427,629,o),
(434,686,c),
(434,692,o),
(430,696,o),
(424,696,cs),
(382,696,ls),
(377,696,o),
(372,693,o),
(371,686,cs),
(368,672,o),
(362,664,o),
(349,664,cs),
(319,664,o),
(279,696,o),
(235,696,cs),
(192,696,o),
(168,663,o),
(164,608,cs),
(164,601,o),
(167,597,o),
(174,597,cs)
);
}
);
width = 607;
}
);
note = Otilde;
unicode = 213;
},
{
glyphname = Odieresis;
kernLeft = O;
kernRight = O;
layers = (
{
layerId = m01;
shapes = (
{
closed = 1;
nodes = (
(217,83,o),
(143,129,o),
(143,277,cs),
(143,425,o),
(217,473,o),
(303,473,cs),
(387,473,o),
(462,425,o),
(462,277,cs),
(462,129,o),
(389,83,o),
(303,83,cs)
);
},
{
closed = 1;
nodes = (
(468,-10,o),
(562,101,o),
(562,277,cs),
(562,453,o),
(466,566,o),
(303,566,cs),
(140,566,o),
(43,453,o),
(43,277,cs),
(43,101,o),
(138,-10,o),
(303,-10,cs)
);
},
{
closed = 1;
nodes = (
(171,611,o),
(195,587,o),
(225,587,cs),
(255,587,o),
(279,611,o),
(279,642,cs),
(279,673,o),
(255,697,o),
(225,697,cs),
(195,697,o),
(171,673,o),
(171,642,cs)
);
},
{
closed = 1;
nodes = (
(328,611,o),
(351,587,o),
(382,587,cs),
(412,587,o),
(436,611,o),
(436,642,cs),
(436,673,o),
(412,697,o),
(382,697,cs),
(351,697,o),
(328,673,o),
(328,642,cs)
);
}
);
width = 607;
}
);
note = Odieresis;
unicode = 214;
},
{
glyphname = multiply;
layers = (
{
layerId = m01;
shapes = (
{
closed = 1;
nodes = (
(55,172,ls),
(49,166,o),
(49,163,o),
(55,157,cs),
(93,118,l),
(97,112,o),
(101,112,o),
(107,118,cs),
(210,221,l),
(277,153,ls),
(313,116,o),
(336,110,o),
(374,148,cs),
(380,154,o),
(380,158,o),
(374,164,cs),
(264,274,l),
(365,376,ls),
(371,382,o),
(371,386,o),
(365,392,cs),
(327,429,ls),
(321,436,o),
(317,436,o),
(311,429,cs),
(210,328,l),
(143,394,ls),
(106,432,o),
(84,438,o),
(45,399,cs),
(39,393,o),
(40,389,o),
(46,383,cs),
(156,274,l)
);
}
);
width = 418;
}
);
note = multiply;
unicode = 215;
},
{
glyphname = Oslash;
kernLeft = O;
kernRight = O;
layers = (
{
layerId = m01;
shapes = (
{
closed = 1;
nodes = (
(155,178,o),
(144,221,o),
(144,277,cs),
(144,426,o),
(219,472,o),
(304,472,cs),
(327,472,o),
(351,468,o),
(372,459,c),
(174,149,l)
);
},
{
closed = 1;
nodes = (
(452,374,o),
(462,333,o),
(462,277,cs),
(462,129,o),
(390,84,o),
(304,84,cs),
(281,84,o),
(259,87,o),
(239,96,c),
(435,403,l)
);
},
{
closed = 1;
nodes = (
(468,-10,o),
(563,100,o),
(563,277,cs),
(563,453,o),
(467,566,o),
(304,566,cs),
(141,566,o),
(44,453,o),
(44,277,cs),
(44,100,o),
(139,-10,o),
(304,-10,cs)
);
}
);
width = 607;
}
);
note = Oslash;
unicode = 216;
},
{
glyphname = Ugrave;
kernLeft = U;
kernRight = U;
layers = (
{
layerId = m01;
shapes = (
{
closed = 1;
nodes = (
(440,-10,o),
(471,127,o),
(471,204,cs),
(471,469,ls),
(471,531,o),
(444,556,o),
(392,556,cs),
(384,556,ls),
(377,556,o),
(372,552,o),
(372,544,cs),
(372,222,ls),
(372,140,o),
(343,82,o),
(260,82,cs),
(178,82,o),
(151,139,o),
(151,222,cs),
(151,469,ls),
(151,531,o),
(125,556,o),
(72,556,cs),
(64,556,ls),
(56,556,o),
(53,552,o),
(53,544,cs),
(53,203,ls),
(53,120,o),
(86,-10,o),
(260,-10,cs)
);
},
{
closed = 1;
nodes = (
(235,609,ls),
(245,601,o),
(255,598,o),
(268,598,cs),
(334,598,ls),
(342,598,o),
(344,606,o),
(340,610,cs),
(256,686,ls),
(247,693,o),
(241,696,o),
(230,696,cs),
(150,696,ls),
(143,696,o),
(140,688,o),
(146,683,cs)
);
}
);
width = 526;
}
);
note = Ugrave;
unicode = 217;
},
{
glyphname = Uacute;
kernLeft = U;
kernRight = U;
layers = (
{
layerId = m01;
shapes = (
{
closed = 1;
nodes = (
(440,-10,o),
(471,127,o),
(471,204,cs),
(471,469,ls),
(471,531,o),
(444,556,o),
(392,556,cs),
(384,556,ls),
(377,556,o),
(372,552,o),
(372,544,cs),
(372,222,ls),
(372,140,o),
(343,82,o),
(260,82,cs),
(178,82,o),
(151,139,o),
(151,222,cs),
(151,469,ls),
(151,531,o),
(125,556,o),
(72,556,cs),
(64,556,ls),
(56,556,o),
(53,552,o),
(53,544,cs),
(53,203,ls),
(53,120,o),
(86,-10,o),
(260,-10,cs)
);
},
{
closed = 1;
nodes = (
(235,598,ls),
(249,598,o),
(258,601,o),
(268,609,cs),
(357,683,ls),
(364,688,o),
(361,696,o),
(354,696,cs),
(274,696,ls),
(262,696,o),
(256,693,o),
(247,686,cs),
(164,610,ls),
(160,606,o),
(162,598,o),
(169,598,cs)
);
}
);
width = 526;
}
);
note = Uacute;
unicode = 218;
},
{
glyphname = Ucircumflex;
kernLeft = U;
kernRight = U;
layers = (
{
layerId = m01;
shapes = (
{
closed = 1;
nodes = (
(440,-10,o),
(471,127,o),
(471,204,cs),
(471,469,ls),
(471,531,o),
(444,556,o),
(392,556,cs),
(384,556,ls),
(377,556,o),
(372,552,o),
(372,544,cs),
(372,222,ls),
(372,140,o),
(343,82,o),
(260,82,cs),
(178,82,o),
(151,139,o),
(151,222,cs),
(151,469,ls),
(151,531,o),
(125,556,o),
(72,556,cs),
(64,556,ls),
(56,556,o),
(53,552,o),
(53,544,cs),
(53,203,ls),
(53,120,o),
(86,-10,o),
(260,-10,cs)
);
},
{
closed = 1;
nodes = (
(306,611,ls),
(314,601,o),
(324,598,o),
(337,598,cs),
(395,598,ls),
(404,598,o),
(405,606,o),
(401,610,cs),
(327,686,ls),
(318,696,o),
(312,696,o),
(299,696,cs),
(225,696,ls),
(211,696,o),
(206,694,o),
(197,686,cs),
(122,610,ls),
(118,606,o),
(120,598,o),
(127,598,cs),
(186,598,ls),
(199,598,o),
(209,601,o),
(217,611,cs),
(262,661,l)
);
}
);
width = 526;
}
);
note = Ucircumflex;
unicode = 219;
},
{
glyphname = Udieresis;
kernLeft = U;
kernRight = U;
layers = (
{
layerId = m01;
shapes = (
{
closed = 1;
nodes = (
(440,-10,o),
(471,127,o),
(471,204,cs),
(471,469,ls),
(471,531,o),
(444,556,o),
(392,556,cs),
(384,556,ls),
(377,556,o),
(372,552,o),
(372,544,cs),
(372,222,ls),
(372,140,o),
(343,82,o),
(260,82,cs),
(178,82,o),
(151,139,o),
(151,222,cs),
(151,469,ls),
(151,531,o),
(125,556,o),
(72,556,cs),
(64,556,ls),
(56,556,o),
(53,552,o),
(53,544,cs),
(53,203,ls),
(53,120,o),
(86,-10,o),
(260,-10,cs)
);
},
{
closed = 1;
nodes = (
(124,611,o),
(148,587,o),
(179,587,cs),
(209,587,o),
(232,611,o),
(232,642,cs),
(232,673,o),
(209,697,o),
(179,697,cs),
(148,697,o),
(124,673,o),
(124,642,cs)
);
},
{
closed = 1;
nodes = (
(281,611,o),
(305,587,o),
(336,587,cs),
(366,587,o),
(389,611,o),
(389,642,cs),
(389,673,o),
(366,697,o),
(336,697,cs),
(305,697,o),
(281,673,o),
(281,642,cs)
);
}
);
width = 526;
}
);
note = Udieresis;
unicode = 220;
},
{
glyphname = Yacute;
kernLeft = Y;
kernRight = Y;
layers = (
{
layerId = m01;
shapes = (
{
closed = 1;
nodes = (
(184,11,ls),
(184,3,o),
(186,0,o),
(194,0,cs),
(271,0,ls),
(279,0,o),
(282,3,o),
(282,11,cs),
(282,206,l),
(463,543,ls),
(466,549,o),
(464,556,o),
(456,556,cs),
(379,556,ls),
(369,556,o),
(365,552,o),
(360,542,cs),
(238,308,l),
(137,500,ls),
(116,541,o),
(93,556,o),
(50,556,cs),
(11,556,ls),
(4,556,o),
(2,549,o),
(5,544,cs),
(184,208,l)
);
},
{
closed = 1;
nodes = (
(221,598,ls),
(235,598,o),
(244,601,o),
(254,609,cs),
(344,683,ls),
(350,688,o),
(347,696,o),
(340,696,cs),
(260,696,ls),
(249,696,o),
(243,693,o),
(234,686,cs),
(150,610,ls),
(146,606,o),
(148,598,o),
(155,598,cs)
);
}
);
width = 466;
}
);
note = Yacute;
unicode = 221;
},
{
glyphname = Thorn;
layers = (
{
layerId = m01;
shapes = (
{
closed = 1;
nodes = (
(155,371,l),
(269,371,ls),
(325,371,o),
(365,339,o),
(365,281,cs),
(365,206,o),
(312,188,o),
(268,188,cs),
(155,188,l)
);
},
{
closed = 1;
nodes = (
(273,97,ls),
(391,97,o),
(463,174,o),
(463,282,cs),
(463,389,o),
(399,461,o),
(261,461,cs),
(155,461,l),
(155,468,ls),
(155,531,o),
(128,556,o),
(77,556,cs),
(68,556,ls),
(61,556,o),
(57,552,o),
(57,544,cs),
(57,11,ls),
(57,3,o),
(61,0,o),
(68,0,cs),
(144,0,ls),
(152,0,o),
(155,3,o),
(155,11,cs),
(155,97,l)
);
}
);
width = 496;
}
);
note = Thorn;
unicode = 222;
},
{
glyphname = germandbls;
layers = (
{
layerId = m01;
shapes = (
{
closed = 1;
nodes = (
(193,105,o),
(190,107,o),
(186,107,cs),
(180,107,o),
(175,102,o),
(175,89,cs),
(175,42,o),
(225,-10,o),
(305,-10,cs),
(386,-10,o),
(443,40,o),
(443,114,cs),
(443,235,o),
(301,245,o),
(301,299,cs),
(301,334,o),
(374,389,o),
(374,454,cs),
(374,502,o),
(333,566,o),
(213,566,cs),
(116,566,o),
(47,507,o),
(47,403,cs),
(47,11,ls),
(47,3,o),
(50,0,o),
(56,0,cs),
(131,0,ls),
(139,0,o),
(141,3,o),
(141,11,cs),
(141,402,ls),
(141,454,o),
(170,484,o),
(215,484,cs),
(254,484,o),
(278,463,o),
(278,433,cs),
(278,387,o),
(210,344,o),
(210,286,cs),
(210,187,o),
(345,179,o),
(345,108,cs),
(345,84,o),
(328,67,o),
(289,67,cs),
(250,67,o),
(225,81,o),
(195,103,cs)
);
}
);
width = 466;
}
);
note = germandbls;
unicode = 223;
},
{
glyphname = agrave;
kernLeft = a;
kernRight = a;
layers = (
{
layerId = m01;
shapes = (
{
closed = 1;
nodes = (
(321,11,ls),
(321,3,o),
(324,0,o),
(331,0,cs),
(405,0,ls),
(414,0,o),
(416,3,o),
(416,11,cs),
(416,364,ls),
(416,372,o),
(414,376,o),
(405,376,cs),
(400,376,ls),
(365,376,o),
(339,363,o),
(329,332,c),
(305,361,o),
(264,386,o),
(206,386,cs),
(99,386,o),
(32,301,o),
(32,189,cs),
(32,81,o),
(91,-9,o),
(204,-9,cs),
(251,-9,o),
(294,11,o),
(321,47,c)
);
},
{
closed = 1;
nodes = (
(189,81,o),
(130,103,o),
(130,189,cs),
(130,271,o),
(186,294,o),
(226,294,cs),
(263,294,o),
(321,278,o),
(321,189,cs),
(321,99,o),
(263,81,o),
(225,81,cs)
);
},
{
closed = 1;
nodes = (
(208,441,ls),
(218,433,o),
(228,430,o),
(240,430,cs),
(306,430,ls),
(314,430,o),
(316,438,o),
(312,442,cs),
(229,518,ls),
(220,526,o),
(214,528,o),
(202,528,cs),
(122,528,ls),
(115,528,o),
(113,521,o),
(118,516,cs)
);
}
);
width = 463;
}
);
note = agrave;
unicode = 224;
},
{
glyphname = aacute;
kernLeft = a;
kernRight = a;
layers = (
{
layerId = m01;
shapes = (
{
closed = 1;
nodes = (
(321,11,ls),
(321,3,o),
(324,0,o),
(331,0,cs),
(405,0,ls),
(414,0,o),
(416,3,o),
(416,11,cs),
(416,364,ls),
(416,372,o),
(414,376,o),
(405,376,cs),
(400,376,ls),
(365,376,o),
(339,363,o),
(329,332,c),
(305,361,o),
(264,386,o),
(206,386,cs),
(99,386,o),
(32,301,o),
(32,189,cs),
(32,81,o),
(91,-9,o),
(204,-9,cs),
(251,-9,o),
(294,11,o),
(321,47,c)
);
},
{
closed = 1;
nodes = (
(189,81,o),
(130,103,o),
(130,189,cs),
(130,271,o),
(186,294,o),
(226,294,cs),
(263,294,o),
(321,278,o),
(321,189,cs),
(321,99,o),
(263,81,o),
(225,81,cs)
);
},
{
closed = 1;
nodes = (
(213,430,ls),
(226,430,o),
(235,433,o),
(245,441,cs),
(335,516,ls),
(341,521,o),
(338,528,o),
(331,528,cs),
(251,528,ls),
(240,528,o),
(234,526,o),
(225,518,cs),
(141,442,ls),
(137,438,o),
(139,430,o),
(146,430,cs)
);
}
);
width = 463;
}
);
note = aacute;
unicode = 225;
},
{
glyphname = acircumflex;
kernLeft = a;
kernRight = a;
layers = (
{
layerId = m01;
shapes = (
{
closed = 1;
nodes = (
(321,11,ls),
(321,3,o),
(324,0,o),
(331,0,cs),
(405,0,ls),
(414,0,o),
(416,3,o),
(416,11,cs),
(416,364,ls),
(416,372,o),
(414,376,o),
(405,376,cs),
(400,376,ls),
(365,376,o),
(339,363,o),
(329,332,c),
(305,361,o),
(264,386,o),
(206,386,cs),
(99,386,o),
(32,301,o),
(32,189,cs),
(32,81,o),
(91,-9,o),
(204,-9,cs),
(251,-9,o),
(294,11,o),
(321,47,c)
);
},
{
closed = 1;
nodes = (
(189,81,o),
(130,103,o),
(130,189,cs),
(130,271,o),
(186,294,o),
(226,294,cs),
(263,294,o),
(321,278,o),
(321,189,cs),
(321,99,o),
(263,81,o),
(225,81,cs)
);
},
{
closed = 1;
nodes = (
(276,443,ls),
(284,433,o),
(294,430,o),
(307,430,cs),
(365,430,ls),
(374,430,o),
(375,438,o),
(371,442,cs),
(297,518,ls),
(288,528,o),
(282,528,o),
(269,528,cs),
(195,528,ls),
(181,528,o),
(176,527,o),
(167,518,cs),
(92,442,ls),
(88,438,o),
(90,430,o),
(97,430,cs),
(156,430,ls),
(169,430,o),
(179,433,o),
(188,443,cs),
(233,493,l)
);
}
);
width = 463;
}
);
note = acircumflex;
unicode = 226;
},
{
glyphname = atilde;
kernLeft = a;
kernRight = a;
layers = (
{
layerId = m01;
shapes = (
{
closed = 1;
nodes = (
(321,11,ls),
(321,3,o),
(324,0,o),
(331,0,cs),
(405,0,ls),
(414,0,o),
(416,3,o),
(416,11,cs),
(416,364,ls),
(416,372,o),
(414,376,o),
(405,376,cs),
(400,376,ls),
(365,376,o),
(339,363,o),
(329,332,c),
(305,361,o),
(264,386,o),
(206,386,cs),
(99,386,o),
(32,301,o),
(32,189,cs),
(32,81,o),
(91,-9,o),
(204,-9,cs),
(251,-9,o),
(294,11,o),
(321,47,c)
);
},
{
closed = 1;
nodes = (
(189,81,o),
(130,103,o),
(130,189,cs),
(130,271,o),
(186,294,o),
(226,294,cs),
(263,294,o),
(321,278,o),
(321,189,cs),
(321,99,o),
(263,81,o),
(225,81,cs)
);
},
{
closed = 1;
nodes = (
(148,429,ls),
(154,429,o),
(159,432,o),
(160,439,cs),
(161,451,o),
(166,461,o),
(181,461,cs),
(208,461,o),
(250,432,o),
(289,432,cs),
(340,432,o),
(360,461,o),
(366,518,cs),
(367,524,o),
(363,528,o),
(356,528,cs),
(315,528,ls),
(310,528,o),
(305,526,o),
(304,518,cs),
(301,504,o),
(295,497,o),
(282,497,cs),
(252,497,o),
(212,528,o),
(168,528,cs),
(125,528,o),
(101,496,o),
(97,440,cs),
(97,433,o),
(100,429,o),
(107,429,cs)
);
}
);
width = 463;
}
);
note = atilde;
unicode = 227;
},
{
glyphname = adieresis;
kernLeft = a;
kernRight = a;
layers = (
{
layerId = m01;
shapes = (
{
closed = 1;
nodes = (
(321,11,ls),
(321,3,o),
(324,0,o),
(331,0,cs),
(405,0,ls),
(414,0,o),
(416,3,o),
(416,11,cs),
(416,364,ls),
(416,372,o),
(414,376,o),
(405,376,cs),
(400,376,ls),
(365,376,o),
(339,363,o),
(329,332,c),
(305,361,o),
(264,386,o),
(206,386,cs),
(99,386,o),
(32,301,o),
(32,189,cs),
(32,81,o),
(91,-9,o),
(204,-9,cs),
(251,-9,o),
(294,11,o),
(321,47,c)
);
},
{
closed = 1;
nodes = (
(189,81,o),
(130,103,o),
(130,189,cs),
(130,271,o),
(186,294,o),
(226,294,cs),
(263,294,o),
(321,278,o),
(321,189,cs),
(321,99,o),
(263,81,o),
(225,81,cs)
);
},
{
closed = 1;
nodes = (
(92,443,o),
(116,419,o),
(146,419,cs),
(176,419,o),
(200,443,o),
(200,474,cs),
(200,506,o),
(176,529,o),
(146,529,cs),
(116,529,o),
(92,506,o),
(92,474,cs)
);
},
{
closed = 1;
nodes = (
(249,443,o),
(273,419,o),
(304,419,cs),
(334,419,o),
(357,443,o),
(357,474,cs),
(357,506,o),
(334,529,o),
(304,529,cs),
(273,529,o),
(249,506,o),
(249,474,cs)
);
}
);
width = 463;
}
);
note = adieresis;
unicode = 228;
},
{
glyphname = aring;
kernLeft = a;
kernRight = a;
layers = (
{
layerId = m01;
shapes = (
{
closed = 1;
nodes = (
(321,11,ls),
(321,3,o),
(324,0,o),
(331,0,cs),
(405,0,ls),
(414,0,o),
(416,3,o),
(416,11,cs),
(416,364,ls),
(416,372,o),
(414,376,o),
(405,376,cs),
(400,376,ls),
(365,376,o),
(339,363,o),
(329,332,c),
(305,361,o),
(264,386,o),
(206,386,cs),
(99,386,o),
(32,301,o),
(32,189,cs),
(32,81,o),
(91,-9,o),
(204,-9,cs),
(251,-9,o),
(294,11,o),
(321,47,c)
);
},
{
closed = 1;
nodes = (
(189,81,o),
(130,103,o),
(130,189,cs),
(130,271,o),
(186,294,o),
(226,294,cs),
(263,294,o),
(321,278,o),
(321,189,cs),
(321,99,o),
(263,81,o),
(225,81,cs)
);
},
{
closed = 1;
nodes = (
(147,452,o),
(182,418,o),
(224,418,cs),
(266,418,o),
(300,452,o),
(300,494,cs),
(300,536,o),
(266,569,o),
(224,569,cs),
(182,569,o),
(147,536,o),
(147,494,cs)
);
},
{
closed = 1;
nodes = (
(205,460,o),
(191,475,o),
(191,494,cs),
(191,513,o),
(205,528,o),
(224,528,cs),
(244,528,o),
(256,513,o),
(256,494,cs),
(256,475,o),
(244,460,o),
(224,460,cs)
);
}
);
width = 463;
}
);
note = aring;
unicode = 229;
},
{
glyphname = ae;
kernLeft = a;
kernRight = e;
layers = (
{
layerId = m01;
shapes = (
{
closed = 1;
nodes = (
(450,10,o),
(492,-9,o),
(551,-9,cs),
(660,-9,o),
(701,54,o),
(701,94,cs),
(701,102,o),
(697,109,o),
(690,109,cs),
(686,109,o),
(680,105,o),
(675,102,cs),
(641,85,o),
(614,73,o),
(562,73,cs),
(502,73,o),
(461,98,o),
(454,154,c),
(690,154,ls),
(700,154,o),
(705,158,o),
(706,168,cs),
(707,179,o),
(709,194,o),
(709,215,cs),
(709,302,o),
(659,386,o),
(540,386,cs),
(484,386,o),
(447,364,o),
(415,329,c),
(415,364,ls),
(415,372,o),
(412,376,o),
(405,376,cs),
(403,376,ls),
(365,376,o),
(341,362,o),
(331,329,c),
(307,359,o),
(268,386,o),
(208,386,cs),
(101,386,o),
(33,301,o),
(33,189,cs),
(33,81,o),
(92,-9,o),
(205,-9,cs),
(254,-9,o),
(297,11,o),
(324,47,c),
(324,11,ls),
(324,3,o),
(327,0,o),
(335,0,cs),
(405,0,ls),
(412,0,o),
(415,3,o),
(415,11,cs),
(415,47,l)
);
},
{
closed = 1;
nodes = (
(190,81,o),
(131,103,o),
(131,189,cs),
(131,272,o),
(187,294,o),
(228,294,cs),
(264,294,o),
(322,278,o),
(322,189,cs),
(322,99,o),
(264,81,o),
(227,81,cs)
);
},
{
closed = 1;
nodes = (
(459,274,o),
(489,303,o),
(540,303,cs),
(601,303,o),
(616,258,o),
(614,223,c),
(455,223,l)
);
}
);
width = 739;
}
);
note = ae;
unicode = 230;
},
{
glyphname = ccedilla;
kernLeft = c;
kernRight = c;
layers = (
{
layerId = m01;
shapes = (
{
closed = 1;
nodes = (
(324,6,o),
(348,59,o),
(348,95,cs),
(348,104,o),
(345,111,o),
(337,111,cs),
(334,111,o),
(329,108,o),
(325,104,c),
(308,92,o),
(280,74,o),
(238,74,cs),
(167,74,o),
(131,117,o),
(131,186,cs),
(131,259,o),
(174,294,o),
(227,294,cs),
(261,294,o),
(281,288,o),
(312,274,c),
(315,272,o),
(319,271,o),
(321,271,cs),
(326,271,o),
(327,274,o),
(329,279,cs),
(335,301,ls),
(345,338,o),
(335,358,o),
(301,372,cs),
(278,381,o),
(252,384,o),
(223,384,cs),
(109,384,o),
(33,309,o),
(33,188,cs),
(33,82,o),
(87,12,o),
(172,-6,c),
(114,-97,ls),
(111,-102,o),
(111,-109,o),
(119,-109,cs),
(181,-109,ls),
(194,-109,o),
(203,-106,o),
(209,-94,cs),
(252,-7,l)
);
}
);
width = 363;
}
);
note = ccedilla;
unicode = 231;
},
{
glyphname = egrave;
kernLeft = e;
kernRight = e;
layers = (
{
layerId = m01;
shapes = (
{
closed = 1;
nodes = (
(368,154,ls),
(379,154,o),
(384,158,o),
(385,167,cs),
(386,178,o),
(387,193,o),
(387,213,cs),
(387,301,o),
(336,384,o),
(217,384,cs),
(104,384,o),
(33,302,o),
(33,189,cs),
(33,59,o),
(119,-10,o),
(228,-10,cs),
(337,-10,o),
(380,52,o),
(380,94,cs),
(380,102,o),
(376,108,o),
(369,108,cs),
(365,108,o),
(359,106,o),
(353,102,cs),
(319,83,o),
(290,72,o),
(240,72,cs),
(179,72,o),
(136,101,o),
(129,154,c)
);
},
{
closed = 1;
nodes = (
(136,272,o),
(166,303,o),
(217,303,cs),
(279,303,o),
(295,257,o),
(291,223,c),
(129,223,l)
);
},
{
closed = 1;
nodes = (
(186,441,ls),
(196,433,o),
(206,430,o),
(219,430,cs),
(285,430,ls),
(293,430,o),
(295,438,o),
(291,442,cs),
(207,518,ls),
(199,526,o),
(192,528,o),
(181,528,cs),
(101,528,ls),
(94,528,o),
(91,521,o),
(97,516,cs)
);
}
);
width = 418;
}
);
note = egrave;
unicode = 232;
},
{
glyphname = eacute;
kernLeft = e;
kernRight = e;
layers = (
{
layerId = m01;
shapes = (
{
closed = 1;
nodes = (
(368,154,ls),
(379,154,o),
(384,158,o),
(385,167,cs),
(386,178,o),
(387,193,o),
(387,213,cs),
(387,301,o),
(336,384,o),
(217,384,cs),
(104,384,o),
(33,302,o),
(33,189,cs),
(33,59,o),
(119,-10,o),
(228,-10,cs),
(337,-10,o),
(380,52,o),
(380,94,cs),
(380,102,o),
(376,108,o),
(369,108,cs),
(365,108,o),
(359,106,o),
(353,102,cs),
(319,83,o),
(290,72,o),
(240,72,cs),
(179,72,o),
(136,101,o),
(129,154,c)
);
},
{
closed = 1;
nodes = (
(136,272,o),
(166,303,o),
(217,303,cs),
(279,303,o),
(295,257,o),
(291,223,c),
(129,223,l)
);
},
{
closed = 1;
nodes = (
(191,430,ls),
(205,430,o),
(214,433,o),
(224,441,cs),
(314,516,ls),
(320,521,o),
(317,528,o),
(310,528,cs),
(230,528,ls),
(219,528,o),
(212,526,o),
(204,518,cs),
(120,442,ls),
(116,438,o),
(118,430,o),
(125,430,cs)
);
}
);
width = 418;
}
);
note = eacute;
unicode = 233;
},
{
glyphname = ecircumflex;
kernLeft = e;
kernRight = e;
layers = (
{
layerId = m01;
shapes = (
{
closed = 1;
nodes = (
(368,154,ls),
(379,154,o),
(384,158,o),
(385,167,cs),
(386,178,o),
(387,193,o),
(387,213,cs),
(387,301,o),
(336,384,o),
(217,384,cs),
(104,384,o),
(33,302,o),
(33,189,cs),
(33,59,o),
(119,-10,o),
(228,-10,cs),
(337,-10,o),
(380,52,o),
(380,94,cs),
(380,102,o),
(376,108,o),
(369,108,cs),
(365,108,o),
(359,106,o),
(353,102,cs),
(319,83,o),
(290,72,o),
(240,72,cs),
(179,72,o),
(136,101,o),
(129,154,c)
);
},
{
closed = 1;
nodes = (
(136,272,o),
(166,303,o),
(217,303,cs),
(279,303,o),
(295,257,o),
(291,223,c),
(129,223,l)
);
},
{
closed = 1;
nodes = (
(261,443,ls),
(269,433,o),
(279,430,o),
(292,430,cs),
(350,430,ls),
(359,430,o),
(360,438,o),
(356,442,cs),
(282,518,ls),
(273,528,o),
(267,528,o),
(254,528,cs),
(180,528,ls),
(166,528,o),
(161,527,o),
(152,518,cs),
(77,442,ls),
(73,438,o),
(75,430,o),
(82,430,cs),
(141,430,ls),
(154,430,o),
(164,433,o),
(172,443,cs),
(217,493,l)
);
}
);
width = 418;
}
);
note = ecircumflex;
unicode = 234;
},
{
glyphname = edieresis;
kernLeft = e;
kernRight = e;
layers = (
{
layerId = m01;
shapes = (
{
closed = 1;
nodes = (
(368,154,ls),
(379,154,o),
(384,158,o),
(385,167,cs),
(386,178,o),
(387,193,o),
(387,213,cs),
(387,301,o),
(336,384,o),
(217,384,cs),
(104,384,o),
(33,302,o),
(33,189,cs),
(33,59,o),
(119,-10,o),
(228,-10,cs),
(337,-10,o),
(380,52,o),
(380,94,cs),
(380,102,o),
(376,108,o),
(369,108,cs),
(365,108,o),
(359,106,o),
(353,102,cs),
(319,83,o),
(290,72,o),
(240,72,cs),
(179,72,o),
(136,101,o),
(129,154,c)
);
},
{
closed = 1;
nodes = (
(136,272,o),
(166,303,o),
(217,303,cs),
(279,303,o),
(295,257,o),
(291,223,c),
(129,223,l)
);
},
{
closed = 1;
nodes = (
(84,443,o),
(108,419,o),
(139,419,cs),
(169,419,o),
(192,443,o),
(192,474,cs),
(192,506,o),
(169,529,o),
(139,529,cs),
(108,529,o),
(84,506,o),
(84,474,cs)
);
},
{
closed = 1;
nodes = (
(241,443,o),
(265,419,o),
(296,419,cs),
(326,419,o),
(349,443,o),
(349,474,cs),
(349,506,o),
(326,529,o),
(296,529,cs),
(265,529,o),
(241,506,o),
(241,474,cs)
);
}
);
width = 418;
}
);
note = edieresis;
unicode = 235;
},
{
glyphname = igrave;
kernLeft = i;
kernRight = i;
layers = (
{
layerId = m01;
shapes = (
{
closed = 1;
nodes = (
(132,0,ls),
(139,0,o),
(142,3,o),
(142,11,cs),
(142,291,ls),
(142,351,o),
(114,376,o),
(63,376,cs),
(58,376,ls),
(50,376,o),
(47,372,o),
(47,364,cs),
(47,11,ls),
(47,3,o),
(50,0,o),
(58,0,cs)
);
},
{
closed = 1;
nodes = (
(87,441,ls),
(97,433,o),
(107,430,o),
(120,430,cs),
(185,430,ls),
(194,430,o),
(195,438,o),
(191,442,cs),
(108,518,ls),
(99,526,o),
(93,528,o),
(81,528,cs),
(1,528,ls),
(-5,528,o),
(-8,521,o),
(-2,516,cs)
);
}
);
width = 188;
}
);
note = igrave;
unicode = 236;
},
{
glyphname = iacute;
kernLeft = i;
kernRight = i;
layers = (
{
layerId = m01;
shapes = (
{
closed = 1;
nodes = (
(132,0,ls),
(139,0,o),
(142,3,o),
(142,11,cs),
(142,291,ls),
(142,351,o),
(114,376,o),
(63,376,cs),
(58,376,ls),
(50,376,o),
(47,372,o),
(47,364,cs),
(47,11,ls),
(47,3,o),
(50,0,o),
(58,0,cs)
);
},
{
closed = 1;
nodes = (
(68,430,ls),
(81,430,o),
(90,433,o),
(100,441,cs),
(190,516,ls),
(196,521,o),
(193,528,o),
(186,528,cs),
(106,528,ls),
(95,528,o),
(89,526,o),
(80,518,cs),
(-4,442,ls),
(-8,438,o),
(-6,430,o),
(1,430,cs)
);
}
);
width = 188;
}
);
note = iacute;
unicode = 237;
},
{
glyphname = icircumflex;
kernLeft = i;
kernRight = i;
layers = (
{
layerId = m01;
shapes = (
{
closed = 1;
nodes = (
(131,0,ls),
(138,0,o),
(141,3,o),
(141,11,cs),
(141,291,ls),
(141,351,o),
(113,376,o),
(62,376,cs),
(57,376,ls),
(49,376,o),
(46,372,o),
(46,364,cs),
(46,11,ls),
(46,3,o),
(49,0,o),
(57,0,cs)
);
},
{
closed = 1;
nodes = (
(138,443,ls),
(146,433,o),
(156,430,o),
(169,430,cs),
(227,430,ls),
(236,430,o),
(237,438,o),
(233,442,cs),
(159,518,ls),
(150,528,o),
(144,528,o),
(131,528,cs),
(57,528,ls),
(43,528,o),
(38,527,o),
(29,518,cs),
(-46,442,ls),
(-50,438,o),
(-48,430,o),
(-41,430,cs),
(18,430,ls),
(31,430,o),
(41,433,o),
(49,443,cs),
(94,493,l)
);
}
);
width = 188;
}
);
note = icircumflex;
unicode = 238;
},
{
glyphname = idieresis;
kernLeft = i;
kernRight = i;
layers = (
{
layerId = m01;
shapes = (
{
closed = 1;
nodes = (
(131,0,ls),
(138,0,o),
(141,3,o),
(141,11,cs),
(141,291,ls),
(141,351,o),
(113,376,o),
(62,376,cs),
(57,376,ls),
(49,376,o),
(46,372,o),
(46,364,cs),
(46,11,ls),
(46,3,o),
(49,0,o),
(57,0,cs)
);
},
{
closed = 1;
nodes = (
(-39,443,o),
(-15,419,o),
(15,419,cs),
(45,419,o),
(69,443,o),
(69,474,cs),
(69,506,o),
(45,529,o),
(15,529,cs),
(-15,529,o),
(-39,506,o),
(-39,474,cs)
);
},
{
closed = 1;
nodes = (
(118,443,o),
(142,419,o),
(173,419,cs),
(203,419,o),
(226,443,o),
(226,474,cs),
(226,506,o),
(203,529,o),
(173,529,cs),
(142,529,o),
(118,506,o),
(118,474,cs)
);
}
);
width = 188;
}
);
note = idieresis;
unicode = 239;
},
{
glyphname = eth;
layers = (
{
layerId = m01;
shapes = (
{
closed = 1;
nodes = (
(104,374,o),
(33,294,o),
(33,188,cs),
(33,70,o),
(106,-10,o),
(221,-10,cs),
(346,-10,o),
(413,76,o),
(413,195,cs),
(413,244,o),
(397,289,o),
(368,329,cs),
(268,473,l),
(317,499,ls),
(323,502,o),
(323,507,o),
(319,512,cs),
(303,537,ls),
(299,542,o),
(295,544,o),
(288,541,cs),
(238,514,l),
(212,549,o),
(183,556,o),
(140,556,cs),
(119,556,ls),
(113,556,o),
(110,549,o),
(113,544,cs),
(161,474,l),
(104,446,ls),
(98,443,o),
(97,441,o),
(101,433,cs),
(117,408,ls),
(120,403,o),
(125,402,o),
(131,404,c),
(190,434,l),
(232,374,l)
);
},
{
closed = 1;
nodes = (
(164,79,o),
(130,119,o),
(130,182,cs),
(130,254,o),
(170,287,o),
(222,287,cs),
(274,287,o),
(315,254,o),
(315,182,cs),
(315,108,o),
(273,79,o),
(221,79,cs)
);
}
);
width = 446;
}
);
note = eth;
unicode = 240;
},
{
glyphname = ntilde;
kernLeft = n;
kernRight = n;
layers = (
{
layerId = m01;
shapes = (
{
closed = 1;
nodes = (
(128,359,o),
(101,376,o),
(63,376,cs),
(58,376,ls),
(50,376,o),
(47,372,o),
(47,364,cs),
(47,11,ls),
(47,3,o),
(50,0,o),
(58,0,cs),
(131,0,ls),
(139,0,o),
(143,3,o),
(143,11,cs),
(143,202,ls),
(143,269,o),
(177,295,o),
(224,295,cs),
(270,295,o),
(305,269,o),
(305,204,cs),
(305,11,ls),
(305,3,o),
(308,0,o),
(316,0,cs),
(390,0,ls),
(398,0,o),
(401,3,o),
(401,11,cs),
(401,216,ls),
(401,326,o),
(343,383,o),
(249,383,cs),
(202,383,o),
(161,361,o),
(136,327,c)
);
},
{
closed = 1;
nodes = (
(140,429,ls),
(146,429,o),
(151,432,o),
(152,439,cs),
(154,451,o),
(159,461,o),
(174,461,cs),
(200,461,o),
(242,432,o),
(281,432,cs),
(333,432,o),
(353,461,o),
(359,518,cs),
(359,524,o),
(355,528,o),
(349,528,cs),
(308,528,ls),
(302,528,o),
(297,526,o),
(296,518,cs),
(293,504,o),
(287,497,o),
(274,497,cs),
(244,497,o),
(204,528,o),
(160,528,cs),
(117,528,o),
(93,496,o),
(89,440,cs),
(89,433,o),
(92,429,o),
(99,429,cs)
);
}
);
width = 444;
}
);
note = ntilde;
unicode = 241;
},
{
glyphname = ograve;
kernLeft = o;
kernRight = o;
layers = (
{
layerId = m01;
shapes = (
{
closed = 1;
nodes = (
(344,-10,o),
(417,69,o),
(417,188,cs),
(417,307,o),
(342,384,o),
(225,384,cs),
(107,384,o),
(33,307,o),
(33,188,cs),
(33,68,o),
(109,-10,o),
(226,-10,cs)
);
},
{
closed = 1;
nodes = (
(173,81,o),
(131,112,o),
(131,187,cs),
(131,261,o),
(173,294,o),
(225,294,cs),
(276,294,o),
(319,261,o),
(319,186,cs),
(319,111,o),
(275,81,o),
(225,81,cs)
);
},
{
closed = 1;
nodes = (
(210,441,ls),
(220,433,o),
(230,430,o),
(243,430,cs),
(309,430,ls),
(317,430,o),
(319,438,o),
(315,442,cs),
(231,518,ls),
(222,526,o),
(216,528,o),
(205,528,cs),
(125,528,ls),
(118,528,o),
(115,521,o),
(121,516,cs)
);
}
);
width = 451;
}
);
note = ograve;
unicode = 242;
},
{
glyphname = oacute;
kernLeft = o;
kernRight = o;
layers = (
{
layerId = m01;
shapes = (
{
closed = 1;
nodes = (
(344,-10,o),
(417,69,o),
(417,188,cs),
(417,307,o),
(342,384,o),
(225,384,cs),
(107,384,o),
(33,307,o),
(33,188,cs),
(33,68,o),
(109,-10,o),
(226,-10,cs)
);
},
{
closed = 1;
nodes = (
(173,81,o),
(131,112,o),
(131,187,cs),
(131,261,o),
(173,294,o),
(225,294,cs),
(276,294,o),
(319,261,o),
(319,186,cs),
(319,111,o),
(275,81,o),
(225,81,cs)
);
},
{
closed = 1;
nodes = (
(206,430,ls),
(219,430,o),
(229,433,o),
(239,441,cs),
(328,516,ls),
(334,521,o),
(331,528,o),
(324,528,cs),
(245,528,ls),
(233,528,o),
(227,526,o),
(218,518,cs),
(134,442,ls),
(130,438,o),
(132,430,o),
(139,430,cs)
);
}
);
width = 451;
}
);
note = oacute;
unicode = 243;
},
{
glyphname = ocircumflex;
kernLeft = o;
kernRight = o;
layers = (
{
layerId = m01;
shapes = (
{
closed = 1;
nodes = (
(344,-10,o),
(417,69,o),
(417,188,cs),
(417,307,o),
(342,384,o),
(225,384,cs),
(107,384,o),
(33,307,o),
(33,188,cs),
(33,68,o),
(109,-10,o),
(226,-10,cs)
);
},
{
closed = 1;
nodes = (
(173,81,o),
(131,112,o),
(131,187,cs),
(131,261,o),
(173,294,o),
(225,294,cs),
(276,294,o),
(319,261,o),
(319,186,cs),
(319,111,o),
(275,81,o),
(225,81,cs)
);
},
{
closed = 1;
nodes = (
(271,443,ls),
(279,433,o),
(289,430,o),
(302,430,cs),
(360,430,ls),
(369,430,o),
(370,438,o),
(366,442,cs),
(292,518,ls),
(283,528,o),
(277,528,o),
(264,528,cs),
(190,528,ls),
(176,528,o),
(171,527,o),
(162,518,cs),
(87,442,ls),
(83,438,o),
(85,430,o),
(92,430,cs),
(151,430,ls),
(164,430,o),
(174,433,o),
(182,443,cs),
(227,493,l)
);
}
);
width = 451;
}
);
note = ocircumflex;
unicode = 244;
},
{
glyphname = otilde;
kernLeft = o;
kernRight = o;
layers = (
{
layerId = m01;
shapes = (
{
closed = 1;
nodes = (
(344,-10,o),
(417,69,o),
(417,188,cs),
(417,307,o),
(342,384,o),
(225,384,cs),
(107,384,o),
(33,307,o),
(33,188,cs),
(33,68,o),
(109,-10,o),
(226,-10,cs)
);
},
{
closed = 1;
nodes = (
(173,81,o),
(131,112,o),
(131,187,cs),
(131,261,o),
(173,294,o),
(225,294,cs),
(276,294,o),
(319,261,o),
(319,186,cs),
(319,111,o),
(275,81,o),
(225,81,cs)
);
},
{
closed = 1;
nodes = (
(137,429,ls),
(144,429,o),
(149,432,o),
(150,439,cs),
(151,451,o),
(156,461,o),
(171,461,cs),
(197,461,o),
(240,432,o),
(279,432,cs),
(330,432,o),
(350,461,o),
(356,518,cs),
(357,524,o),
(353,528,o),
(346,528,cs),
(305,528,ls),
(300,528,o),
(295,526,o),
(294,518,cs),
(291,504,o),
(285,497,o),
(272,497,cs),
(242,497,o),
(202,528,o),
(157,528,cs),
(115,528,o),
(91,496,o),
(87,440,cs),
(87,433,o),
(90,429,o),
(97,429,cs)
);
}
);
width = 451;
}
);
note = otilde;
unicode = 245;
},
{
glyphname = odieresis;
kernLeft = o;
kernRight = o;
layers = (
{
layerId = m01;
shapes = (
{
closed = 1;
nodes = (
(344,-10,o),
(417,69,o),
(417,188,cs),
(417,307,o),
(342,384,o),
(225,384,cs),
(107,384,o),
(33,307,o),
(33,188,cs),
(33,68,o),
(109,-10,o),
(226,-10,cs)
);
},
{
closed = 1;
nodes = (
(173,81,o),
(131,112,o),
(131,187,cs),
(131,261,o),
(173,294,o),
(225,294,cs),
(276,294,o),
(319,261,o),
(319,186,cs),
(319,111,o),
(275,81,o),
(225,81,cs)
);
},
{
closed = 1;
nodes = (
(93,443,o),
(117,419,o),
(147,419,cs),
(177,419,o),
(201,443,o),
(201,474,cs),
(201,506,o),
(177,529,o),
(147,529,cs),
(117,529,o),
(93,506,o),
(93,474,cs)
);
},
{
closed = 1;
nodes = (
(250,443,o),
(274,419,o),
(305,419,cs),
(335,419,o),
(358,443,o),
(358,474,cs),
(358,506,o),
(335,529,o),
(305,529,cs),
(274,529,o),
(250,506,o),
(250,474,cs)
);
}
);
width = 451;
}
);
note = odieresis;
unicode = 246;
},
{
glyphname = divide;
layers = (
{
layerId = m01;
shapes = (
{
closed = 1;
nodes = (
(374,231,ls),
(382,231,o),
(385,234,o),
(385,242,cs),
(385,254,ls),
(385,289,o),
(364,311,o),
(324,311,cs),
(44,311,ls),
(36,311,o),
(33,308,o),
(33,299,cs),
(33,242,ls),
(33,234,o),
(36,231,o),
(44,231,cs)
);
},
{
closed = 1;
nodes = (
(155,383,o),
(179,359,o),
(209,359,cs),
(239,359,o),
(262,383,o),
(262,413,cs),
(262,444,o),
(239,467,o),
(209,467,cs),
(179,467,o),
(155,444,o),
(155,413,cs)
);
},
{
closed = 1;
nodes = (
(155,96,o),
(179,74,o),
(209,74,cs),
(239,74,o),
(262,96,o),
(262,127,cs),
(262,158,o),
(239,182,o),
(209,182,cs),
(179,182,o),
(155,158,o),
(155,127,cs)
);
}
);
width = 418;
}
);
note = divide;
unicode = 247;
},
{
glyphname = oslash;
kernLeft = o;
kernRight = o;
layers = (
{
layerId = m01;
shapes = (
{
closed = 1;
nodes = (
(138,136,o),
(131,159,o),
(131,187,cs),
(131,261,o),
(173,294,o),
(225,294,cs),
(237,294,o),
(248,291,o),
(258,287,c),
(149,119,l)
);
},
{
closed = 1;
nodes = (
(314,231,o),
(319,211,o),
(319,186,cs),
(319,111,o),
(276,81,o),
(225,81,cs),
(216,81,o),
(208,82,o),
(201,84,c),
(305,248,l)
);
},
{
closed = 1;
nodes = (
(344,-10,o),
(418,70,o),
(418,188,cs),
(418,307,o),
(342,384,o),
(225,384,cs),
(107,384,o),
(33,307,o),
(33,188,cs),
(33,69,o),
(108,-10,o),
(226,-10,cs)
);
}
);
width = 451;
}
);
note = oslash;
unicode = 248;
},
{
glyphname = ugrave;
kernLeft = u;
kernRight = u;
layers = (
{
layerId = m01;
shapes = (
{
closed = 1;
nodes = (
(341,-10,o),
(395,62,o),
(395,176,cs),
(395,291,ls),
(395,351,o),
(367,376,o),
(315,376,cs),
(310,376,ls),
(303,376,o),
(299,372,o),
(299,364,cs),
(299,169,ls),
(299,102,o),
(264,78,o),
(219,78,cs),
(175,78,o),
(142,106,o),
(142,170,cs),
(142,291,ls),
(142,351,o),
(113,376,o),
(61,376,cs),
(56,376,ls),
(49,376,o),
(46,372,o),
(46,364,cs),
(46,182,ls),
(46,67,o),
(98,-10,o),
(219,-10,cs)
);
},
{
closed = 1;
nodes = (
(193,441,ls),
(203,433,o),
(213,430,o),
(225,430,cs),
(291,430,ls),
(299,430,o),
(301,438,o),
(297,442,cs),
(214,518,ls),
(205,526,o),
(199,528,o),
(187,528,cs),
(107,528,ls),
(100,528,o),
(98,521,o),
(103,516,cs)
);
}
);
width = 441;
}
);
note = ugrave;
unicode = 249;
},
{
glyphname = uacute;
kernLeft = u;
kernRight = u;
layers = (
{
layerId = m01;
shapes = (
{
closed = 1;
nodes = (
(341,-10,o),
(395,62,o),
(395,176,cs),
(395,291,ls),
(395,351,o),
(367,376,o),
(315,376,cs),
(310,376,ls),
(303,376,o),
(299,372,o),
(299,364,cs),
(299,169,ls),
(299,102,o),
(264,78,o),
(219,78,cs),
(175,78,o),
(142,106,o),
(142,170,cs),
(142,291,ls),
(142,351,o),
(113,376,o),
(61,376,cs),
(56,376,ls),
(49,376,o),
(46,372,o),
(46,364,cs),
(46,182,ls),
(46,67,o),
(98,-10,o),
(219,-10,cs)
);
},
{
closed = 1;
nodes = (
(193,430,ls),
(206,430,o),
(215,433,o),
(225,441,cs),
(315,516,ls),
(321,521,o),
(318,528,o),
(311,528,cs),
(232,528,ls),
(220,528,o),
(214,526,o),
(205,518,cs),
(121,442,ls),
(117,438,o),
(119,430,o),
(126,430,cs)
);
}
);
width = 441;
}
);
note = uacute;
unicode = 250;
},
{
glyphname = ucircumflex;
kernLeft = u;
kernRight = u;
layers = (
{
layerId = m01;
shapes = (
{
closed = 1;
nodes = (
(341,-10,o),
(395,62,o),
(395,176,cs),
(395,291,ls),
(395,351,o),
(367,376,o),
(315,376,cs),
(310,376,ls),
(303,376,o),
(299,372,o),
(299,364,cs),
(299,169,ls),
(299,102,o),
(264,78,o),
(219,78,cs),
(175,78,o),
(142,106,o),
(142,170,cs),
(142,291,ls),
(142,351,o),
(113,376,o),
(61,376,cs),
(56,376,ls),
(49,376,o),
(46,372,o),
(46,364,cs),
(46,182,ls),
(46,67,o),
(98,-10,o),
(219,-10,cs)
);
},
{
closed = 1;
nodes = (
(260,443,ls),
(268,433,o),
(278,430,o),
(291,430,cs),
(349,430,ls),
(358,430,o),
(359,438,o),
(355,442,cs),
(281,518,ls),
(272,528,o),
(266,528,o),
(253,528,cs),
(179,528,ls),
(165,528,o),
(160,527,o),
(151,518,cs),
(76,442,ls),
(72,438,o),
(74,430,o),
(81,430,cs),
(140,430,ls),
(153,430,o),
(163,433,o),
(172,443,cs),
(217,493,l)
);
}
);
width = 441;
}
);
note = ucircumflex;
unicode = 251;
},
{
glyphname = udieresis;
kernLeft = u;
kernRight = u;
layers = (
{
layerId = m01;
shapes = (
{
closed = 1;
nodes = (
(341,-10,o),
(395,62,o),
(395,176,cs),
(395,291,ls),
(395,351,o),
(367,376,o),
(315,376,cs),
(310,376,ls),
(303,376,o),
(299,372,o),
(299,364,cs),
(299,169,ls),
(299,102,o),
(264,78,o),
(219,78,cs),
(175,78,o),
(142,106,o),
(142,170,cs),
(142,291,ls),
(142,351,o),
(113,376,o),
(61,376,cs),
(56,376,ls),
(49,376,o),
(46,372,o),
(46,364,cs),
(46,182,ls),
(46,67,o),
(98,-10,o),
(219,-10,cs)
);
},
{
closed = 1;
nodes = (
(87,443,o),
(111,419,o),
(142,419,cs),
(172,419,o),
(195,443,o),
(195,474,cs),
(195,506,o),
(172,529,o),
(142,529,cs),
(111,529,o),
(87,506,o),
(87,474,cs)
);
},
{
closed = 1;
nodes = (
(244,443,o),
(268,419,o),
(299,419,cs),
(329,419,o),
(352,443,o),
(352,474,cs),
(352,506,o),
(329,529,o),
(299,529,cs),
(268,529,o),
(244,506,o),
(244,474,cs)
);
}
);
width = 441;
}
);
note = udieresis;
unicode = 252;
},
{
glyphname = yacute;
kernLeft = y;
kernRight = y;
layers = (
{
layerId = m01;
shapes = (
{
closed = 1;
nodes = (
(123,-68,o),
(106,-88,o),
(69,-88,cs),
(50,-88,o),
(34,-82,o),
(15,-68,cs),
(12,-66,o),
(9,-63,o),
(6,-63,cs),
(-2,-63,o),
(-6,-73,o),
(-6,-82,cs),
(-6,-123,o),
(28,-171,o),
(92,-171,cs),
(178,-171,o),
(213,-99,o),
(247,-1,cs),
(377,364,l),
(378,369,o),
(377,376,o),
(371,376,cs),
(297,376,ls),
(288,376,o),
(285,372,o),
(281,363,c),
(197,109,l),
(135,295,ls),
(112,358,o),
(93,376,o),
(38,376,cs),
(17,376,ls),
(12,376,o),
(9,369,o),
(11,364,cs),
(145,-9,l)
);
},
{
closed = 1;
nodes = (
(177,430,ls),
(191,430,o),
(200,433,o),
(210,441,cs),
(300,516,ls),
(306,521,o),
(303,528,o),
(296,528,cs),
(216,528,ls),
(205,528,o),
(198,526,o),
(190,518,cs),
(106,442,ls),
(102,438,o),
(104,430,o),
(111,430,cs)
);
}
);
width = 388;
}
);
note = yacute;
unicode = 253;
},
{
glyphname = thorn;
layers = (
{
layerId = m01;
shapes = (
{
closed = 1;
nodes = (
(168,9,o),
(210,-9,o),
(259,-9,cs),
(370,-9,o),
(430,80,o),
(430,189,cs),
(430,301,o),
(368,384,o),
(253,384,cs),
(203,384,o),
(164,362,o),
(141,334,c),
(141,472,ls),
(141,532,o),
(113,556,o),
(61,556,cs),
(56,556,ls),
(50,556,o),
(47,552,o),
(47,544,cs),
(47,-149,ls),
(47,-157,o),
(50,-160,o),
(56,-160,cs),
(131,-160,ls),
(139,-160,o),
(141,-157,o),
(141,-149,cs),
(141,44,l)
);
},
{
closed = 1;
nodes = (
(185,81,o),
(141,117,o),
(141,190,cs),
(141,263,o),
(184,294,o),
(236,294,cs),
(294,294,o),
(331,254,o),
(331,190,cs),
(331,121,o),
(291,81,o),
(238,81,cs)
);
}
);
width = 462;
}
);
note = thorn;
unicode = 254;
},
{
glyphname = ydieresis;
kernLeft = y;
kernRight = y;
layers = (
{
layerId = m01;
shapes = (
{
closed = 1;
nodes = (
(123,-68,o),
(106,-88,o),
(69,-88,cs),
(50,-88,o),
(34,-82,o),
(15,-68,cs),
(12,-66,o),
(9,-63,o),
(6,-63,cs),
(-2,-63,o),
(-6,-73,o),
(-6,-82,cs),
(-6,-123,o),
(28,-171,o),
(92,-171,cs),
(178,-171,o),
(213,-99,o),
(247,-1,cs),
(377,364,l),
(378,369,o),
(377,376,o),
(371,376,cs),
(297,376,ls),
(288,376,o),
(285,372,o),
(281,363,c),
(197,109,l),
(135,295,ls),
(112,358,o),
(93,376,o),
(38,376,cs),
(17,376,ls),
(12,376,o),
(9,369,o),
(11,364,cs),
(145,-9,l)
);
},
{
closed = 1;
nodes = (
(59,443,o),
(83,419,o),
(113,419,cs),
(143,419,o),
(167,443,o),
(167,474,cs),
(167,506,o),
(143,529,o),
(113,529,cs),
(83,529,o),
(59,506,o),
(59,474,cs)
);
},
{
closed = 1;
nodes = (
(216,443,o),
(240,419,o),
(271,419,cs),
(301,419,o),
(324,443,o),
(324,474,cs),
(324,506,o),
(301,529,o),
(271,529,cs),
(240,529,o),
(216,506,o),
(216,474,cs)
);
}
);
width = 388;
}
);
note = ydieresis;
unicode = 255;
},
{
glyphname = dotlessi;
kernLeft = r;
kernRight = i;
layers = (
{
layerId = m01;
shapes = (
{
closed = 1;
nodes = (
(131,0,ls),
(138,0,o),
(141,3,o),
(141,11,cs),
(141,291,ls),
(141,351,o),
(113,376,o),
(62,376,cs),
(57,376,ls),
(49,376,o),
(46,372,o),
(46,364,cs),
(46,11,ls),
(46,3,o),
(49,0,o),
(57,0,cs)
);
}
);
width = 188;
}
);
note = dotlessi;
unicode = 305;
},
{
glyphname = Lslash;
layers = (
{
layerId = m01;
shapes = (
{
closed = 1;
nodes = (
(167,249,l),
(287,313,ls),
(293,316,o),
(298,324,o),
(298,332,cs),
(298,393,ls),
(298,398,o),
(292,402,o),
(285,398,cs),
(167,334,l),
(167,468,ls),
(167,531,o),
(140,556,o),
(89,556,cs),
(79,556,ls),
(72,556,o),
(69,552,o),
(69,544,cs),
(69,281,l),
(28,259,ls),
(21,256,o),
(16,249,o),
(16,241,cs),
(16,180,ls),
(16,174,o),
(23,171,o),
(29,174,cs),
(69,196,l),
(69,11,ls),
(69,3,o),
(72,0,o),
(79,0,cs),
(358,0,ls),
(368,0,o),
(373,6,o),
(373,14,cs),
(373,35,ls),
(373,71,o),
(353,91,o),
(314,91,cs),
(167,91,l)
);
}
);
width = 389;
}
);
note = Lslash;
unicode = 321;
},
{
glyphname = lslash;
layers = (
{
layerId = m01;
shapes = (
{
closed = 1;
nodes = (
(64,119,ls),
(64,32,o),
(103,-8,o),
(167,-8,cs),
(239,-8,o),
(263,46,o),
(263,87,cs),
(263,93,o),
(259,100,o),
(253,100,cs),
(249,100,o),
(245,97,o),
(242,95,cs),
(229,83,o),
(217,76,o),
(198,76,cs),
(172,76,o),
(159,93,o),
(159,128,cs),
(159,245,l),
(208,271,ls),
(215,274,o),
(219,281,o),
(219,289,cs),
(219,346,ls),
(219,353,o),
(213,356,o),
(207,353,cs),
(159,327,l),
(159,472,ls),
(159,532,o),
(131,556,o),
(80,556,cs),
(75,556,ls),
(67,556,o),
(64,552,o),
(64,544,cs),
(64,274,l),
(28,256,ls),
(20,252,o),
(16,246,o),
(16,237,cs),
(16,180,ls),
(16,174,o),
(23,171,o),
(29,174,cs),
(64,193,l)
);
}
);
width = 263;
}
);
note = lslash;
unicode = 322;
},
{
glyphname = OE;
kernLeft = O;
kernRight = E;
layers = (
{
layerId = m01;
shapes = (
{
closed = 1;
nodes = (
(560,233,l),
(754,233,ls),
(763,233,o),
(768,238,o),
(768,247,cs),
(768,269,ls),
(768,304,o),
(748,323,o),
(710,323,cs),
(560,323,l),
(560,464,l),
(774,464,ls),
(782,464,o),
(787,471,o),
(787,478,cs),
(787,499,ls),
(787,536,o),
(767,556,o),
(730,556,cs),
(471,556,ls),
(463,556,o),
(461,552,o),
(461,544,cs),
(461,507,l),
(422,546,o),
(368,566,o),
(304,566,cs),
(141,566,o),
(44,453,o),
(44,277,cs),
(44,100,o),
(139,-10,o),
(304,-10,cs),
(368,-10,o),
(422,11,o),
(461,47,c),
(461,11,ls),
(461,3,o),
(463,0,o),
(471,0,cs),
(782,0,ls),
(791,0,o),
(796,6,o),
(796,14,cs),
(796,35,ls),
(796,71,o),
(776,91,o),
(738,91,cs),
(560,91,l)
);
},
{
closed = 1;
nodes = (
(219,84,o),
(144,129,o),
(144,277,cs),
(144,426,o),
(219,472,o),
(304,472,cs),
(388,472,o),
(461,426,o),
(461,277,cs),
(461,129,o),
(390,84,o),
(304,84,cs)
);
}
);
width = 822;
}
);
note = OE;
unicode = 338;
},
{
glyphname = oe;
kernLeft = o;
kernRight = e;
layers = (
{
layerId = m01;
shapes = (
{
closed = 1;
nodes = (
(399,11,o),
(451,-10,o),
(507,-10,cs),
(617,-10,o),
(660,52,o),
(660,94,cs),
(660,102,o),
(656,108,o),
(650,108,cs),
(645,108,o),
(641,105,o),
(635,102,cs),
(601,84,o),
(571,72,o),
(521,72,cs),
(460,72,o),
(420,98,o),
(412,154,c),
(649,154,ls),
(660,154,o),
(665,158,o),
(665,167,cs),
(666,178,o),
(667,193,o),
(667,214,cs),
(667,301,o),
(617,384,o),
(497,384,cs),
(441,384,o),
(395,361,o),
(365,323,c),
(333,362,o),
(286,384,o),
(225,384,cs),
(107,384,o),
(33,307,o),
(33,188,cs),
(33,69,o),
(108,-10,o),
(226,-10,cs),
(287,-10,o),
(334,14,o),
(366,53,c)
);
},
{
closed = 1;
nodes = (
(173,81,o),
(131,112,o),
(131,187,cs),
(131,261,o),
(173,294,o),
(225,294,cs),
(276,294,o),
(319,261,o),
(319,186,cs),
(319,111,o),
(276,81,o),
(225,81,cs)
);
},
{
closed = 1;
nodes = (
(417,273,o),
(448,303,o),
(497,303,cs),
(560,303,o),
(576,258,o),
(572,223,c),
(413,223,l)
);
}
);
width = 698;
}
);
note = oe;
unicode = 339;
},
{
glyphname = Scaron;
kernLeft = S;
kernRight = S;
layers = (
{
layerId = m01;
shapes = (
{
closed = 1;
nodes = (
(40,156,o),
(36,157,o),
(32,157,cs),
(24,157,o),
(18,149,o),
(18,136,cs),
(18,69,o),
(81,-10,o),
(223,-10,cs),
(352,-10,o),
(427,59,o),
(427,163,cs),
(427,354,o),
(135,304,o),
(135,413,cs),
(135,457,o),
(176,478,o),
(231,478,cs),
(284,478,o),
(332,464,o),
(374,441,cs),
(380,438,o),
(385,436,o),
(389,436,cs),
(396,436,o),
(397,440,o),
(400,448,c),
(405,470,ls),
(412,506,o),
(405,528,o),
(364,543,cs),
(326,557,o),
(281,566,o),
(230,566,cs),
(121,566,o),
(35,509,o),
(35,408,cs),
(35,212,o),
(327,258,o),
(327,154,cs),
(327,108,o),
(286,79,o),
(212,79,cs),
(134,79,o),
(86,108,o),
(43,152,c)
);
},
{
closed = 1;
nodes = (
(184,683,ls),
(176,692,o),
(165,696,o),
(152,696,cs),
(93,696,ls),
(86,696,o),
(84,687,o),
(88,683,cs),
(163,609,ls),
(172,600,o),
(177,598,o),
(191,598,cs),
(265,598,ls),
(278,598,o),
(284,600,o),
(293,609,cs),
(367,683,ls),
(372,688,o),
(370,696,o),
(361,696,cs),
(303,696,ls),
(290,696,o),
(280,692,o),
(272,683,cs),
(227,634,l)
);
}
);
width = 452;
}
);
note = Scaron;
unicode = 352;
},
{
glyphname = scaron;
kernLeft = s;
layers = (
{
layerId = m01;
shapes = (
{
closed = 1;
nodes = (
(37,111,o),
(34,113,o),
(31,113,cs),
(24,113,o),
(19,107,o),
(19,93,cs),
(19,40,o),
(76,-10,o),
(160,-10,cs),
(249,-10,o),
(306,40,o),
(306,115,cs),
(306,231,o),
(125,218,o),
(125,274,cs),
(125,297,o),
(146,307,o),
(173,307,cs),
(204,307,o),
(232,300,o),
(265,284,cs),
(270,282,o),
(272,280,o),
(276,280,cs),
(280,280,o),
(282,282,o),
(284,288,cs),
(287,299,ls),
(298,336,o),
(287,354,o),
(254,369,cs),
(232,379,o),
(205,384,o),
(175,384,cs),
(99,384,o),
(29,349,o),
(29,268,cs),
(29,146,o),
(210,164,o),
(210,107,cs),
(210,82,o),
(188,68,o),
(149,68,cs),
(101,68,o),
(70,84,o),
(39,109,cs)
);
},
{
closed = 1;
nodes = (
(117,516,ls),
(110,524,o),
(99,528,o),
(86,528,cs),
(27,528,ls),
(20,528,o),
(18,519,o),
(22,516,c),
(97,441,ls),
(106,432,o),
(111,430,o),
(125,430,cs),
(199,430,ls),
(212,430,o),
(218,432,o),
(227,441,cs),
(301,516,ls),
(306,521,o),
(304,528,o),
(295,528,cs),
(237,528,ls),
(224,528,o),
(214,524,o),
(206,516,cs),
(161,466,l)
);
}
);
width = 324;
}
);
note = scaron;
unicode = 353;
},
{
glyphname = Ydieresis;
kernLeft = Y;
kernRight = Y;
layers = (
{
layerId = m01;
shapes = (
{
closed = 1;
nodes = (
(184,11,ls),
(184,3,o),
(186,0,o),
(194,0,cs),
(271,0,ls),
(279,0,o),
(282,3,o),
(282,11,cs),
(282,206,l),
(463,543,ls),
(466,549,o),
(464,556,o),
(456,556,cs),
(379,556,ls),
(369,556,o),
(365,552,o),
(360,542,cs),
(238,308,l),
(137,500,ls),
(116,541,o),
(93,556,o),
(50,556,cs),
(11,556,ls),
(4,556,o),
(2,549,o),
(5,544,cs),
(184,208,l)
);
},
{
closed = 1;
nodes = (
(98,611,o),
(121,587,o),
(152,587,cs),
(182,587,o),
(206,611,o),
(206,642,cs),
(206,673,o),
(182,697,o),
(152,697,cs),
(121,697,o),
(98,673,o),
(98,642,cs)
);
},
{
closed = 1;
nodes = (
(255,611,o),
(278,587,o),
(309,587,cs),
(339,587,o),
(363,611,o),
(363,642,cs),
(363,673,o),
(339,697,o),
(309,697,cs),
(278,697,o),
(255,673,o),
(255,642,cs)
);
}
);
width = 466;
}
);
note = Ydieresis;
unicode = 376;
},
{
glyphname = Zcaron;
kernLeft = Z;
kernRight = Z;
layers = (
{
layerId = m01;
shapes = (
{
closed = 1;
nodes = (
(405,445,ls),
(415,459,o),
(418,468,o),
(418,482,cs),
(418,496,ls),
(418,537,o),
(395,556,o),
(356,556,cs),
(46,556,ls),
(39,556,o),
(35,552,o),
(35,544,cs),
(35,476,ls),
(35,469,o),
(39,465,o),
(46,465,cs),
(300,465,l),
(43,108,ls),
(33,94,o),
(29,84,o),
(29,69,cs),
(29,11,ls),
(29,3,o),
(32,0,o),
(39,0,cs),
(405,0,ls),
(415,0,o),
(419,6,o),
(419,14,cs),
(419,35,ls),
(419,71,o),
(400,91,o),
(361,91,cs),
(148,91,l)
);
},
{
closed = 1;
nodes = (
(179,683,ls),
(171,692,o),
(160,696,o),
(147,696,cs),
(88,696,ls),
(82,696,o),
(80,687,o),
(83,683,c),
(158,609,ls),
(167,600,o),
(173,598,o),
(186,598,cs),
(261,598,ls),
(273,598,o),
(280,600,o),
(288,609,cs),
(363,683,ls),
(368,688,o),
(365,696,o),
(357,696,cs),
(298,696,ls),
(286,696,o),
(276,692,o),
(267,683,cs),
(223,634,l)
);
}
);
width = 452;
}
);
note = Zcaron;
unicode = 381;
},
{
glyphname = zcaron;
kernLeft = z;
kernRight = z;
layers = (
{
layerId = m01;
shapes = (
{
closed = 1;
nodes = (
(305,275,ls),
(314,286,o),
(318,296,o),
(318,311,cs),
(318,359,o),
(303,376,o),
(259,376,cs),
(45,376,ls),
(37,376,o),
(34,372,o),
(34,364,cs),
(34,301,ls),
(34,294,o),
(37,290,o),
(45,290,cs),
(204,290,l),
(40,87,ls),
(30,74,o),
(27,68,o),
(27,54,cs),
(27,11,ls),
(27,3,o),
(30,0,o),
(38,0,cs),
(311,0,ls),
(318,0,o),
(321,3,o),
(321,11,cs),
(321,74,ls),
(321,82,o),
(318,86,o),
(311,86,cs),
(149,86,l)
);
},
{
closed = 1;
nodes = (
(129,516,ls),
(121,524,o),
(110,528,o),
(97,528,cs),
(38,528,ls),
(31,528,o),
(29,519,o),
(33,516,c),
(108,441,ls),
(117,432,o),
(123,430,o),
(136,430,cs),
(210,430,ls),
(223,430,o),
(229,432,o),
(238,441,cs),
(313,516,ls),
(318,521,o),
(315,528,o),
(306,528,cs),
(248,528,ls),
(235,528,o),
(225,524,o),
(217,516,cs),
(173,466,l)
);
}
);
width = 349;
}
);
note = zcaron;
unicode = 382;
},
{
glyphname = florin;
layers = (
{
layerId = m01;
shapes = (
{
closed = 1;
nodes = (
(77,-28,ls),
(69,-72,o),
(53,-89,o),
(22,-89,cs),
(3,-89,o),
(-11,-83,o),
(-28,-72,c),
(-30,-70,o),
(-33,-69,o),
(-36,-69,cs),
(-49,-69,o),
(-51,-88,o),
(-51,-97,cs),
(-51,-132,o),
(-25,-171,o),
(37,-171,cs),
(103,-171,o),
(154,-127,o),
(171,-34,cs),
(229,289,l),
(321,289,ls),
(329,289,o),
(332,294,o),
(333,301,cs),
(345,364,ls),
(346,372,o),
(344,376,o),
(337,376,cs),
(244,376,l),
(252,418,ls),
(259,462,o),
(275,478,o),
(305,478,cs),
(325,478,o),
(338,472,o),
(355,462,c),
(358,459,o),
(360,459,o),
(363,459,cs),
(377,459,o),
(378,478,o),
(378,488,cs),
(378,523,o),
(353,561,o),
(292,561,cs),
(227,561,o),
(171,517,o),
(156,424,cs),
(148,376,l),
(79,376,ls),
(72,376,o),
(67,372,o),
(66,364,cs),
(55,301,ls),
(54,294,o),
(56,289,o),
(64,289,cs),
(133,289,l)
);
}
);
width = 413;
}
);
note = florin;
unicode = 402;
},
{
glyphname = circumflex;
layers = (
{
layerId = m01;
shapes = (
{
closed = 1;
nodes = (
(189,443,ls),
(197,433,o),
(207,430,o),
(220,430,cs),
(278,430,ls),
(287,430,o),
(288,438,o),
(284,442,cs),
(210,518,ls),
(201,528,o),
(195,528,o),
(182,528,cs),
(108,528,ls),
(94,528,o),
(89,527,o),
(80,518,cs),
(5,442,ls),
(1,438,o),
(3,430,o),
(10,430,cs),
(69,430,ls),
(82,430,o),
(92,433,o),
(100,443,cs),
(145,493,l)
);
}
);
width = 284;
}
);
note = circumflex;
unicode = 710;
},
{
glyphname = caron;
layers = (
{
layerId = m01;
shapes = (
{
closed = 1;
nodes = (
(100,516,ls),
(93,524,o),
(82,528,o),
(69,528,cs),
(10,528,ls),
(3,528,o),
(1,519,o),
(5,516,c),
(80,441,ls),
(89,432,o),
(94,430,o),
(108,430,cs),
(182,430,ls),
(195,430,o),
(201,432,o),
(210,441,cs),
(284,516,ls),
(289,521,o),
(287,528,o),
(278,528,cs),
(220,528,ls),
(207,528,o),
(197,524,o),
(189,516,cs),
(144,466,l)
);
}
);
width = 284;
}
);
note = caron;
unicode = 711;
},
{
glyphname = breve;
layers = (
{
layerId = m01;
shapes = (
{
closed = 1;
nodes = (
(12,459,o),
(52,419,o),
(124,419,cs),
(198,419,o),
(238,459,o),
(248,517,cs),
(249,523,o),
(246,527,o),
(241,527,cs),
(189,527,ls),
(183,527,o),
(180,524,o),
(179,518,cs),
(173,493,o),
(156,477,o),
(124,477,cs),
(93,477,o),
(77,492,o),
(71,518,cs),
(70,524,o),
(66,527,o),
(61,527,cs),
(9,527,ls),
(4,527,o),
(1,523,o),
(2,517,cs)
);
}
);
width = 248;
}
);
note = breve;
unicode = 728;
},
{
glyphname = dotaccent;
layers = (
{
layerId = m01;
shapes = (
{
closed = 1;
nodes = (
(0,443,o),
(24,419,o),
(55,419,cs),
(85,419,o),
(108,443,o),
(108,473,cs),
(108,506,o),
(85,529,o),
(55,529,cs),
(24,529,o),
(0,506,o),
(0,473,cs)
);
}
);
width = 108;
}
);
note = dotaccent;
unicode = 729;
},
{
glyphname = ring;
layers = (
{
layerId = m01;
shapes = (
{
closed = 1;
nodes = (
(0,452,o),
(35,418,o),
(77,418,cs),
(119,418,o),
(153,452,o),
(153,494,cs),
(153,536,o),
(119,569,o),
(77,569,cs),
(35,569,o),
(0,536,o),
(0,494,cs)
);
},
{
closed = 1;
nodes = (
(58,460,o),
(44,475,o),
(44,494,cs),
(44,513,o),
(58,528,o),
(77,528,cs),
(97,528,o),
(109,513,o),
(109,494,cs),
(109,475,o),
(97,460,o),
(77,460,cs)
);
}
);
width = 153;
}
);
note = ring;
unicode = 730;
},
{
glyphname = ogonek;
layers = (
{
layerId = m01;
shapes = (
{
closed = 1;
nodes = (
(126,-97,o),
(119,-99,o),
(110,-99,cs),
(84,-99,o),
(70,-88,o),
(70,-66,cs),
(70,-39,o),
(92,-20,o),
(125,-3,cs),
(129,-1,o),
(128,2,o),
(124,2,cs),
(62,2,ls),
(58,2,o),
(54,2,o),
(51,0,cs),
(26,-13,o),
(0,-39,o),
(0,-75,cs),
(0,-119,o),
(36,-150,o),
(94,-150,cs),
(108,-150,o),
(119,-149,o),
(132,-145,cs),
(139,-143,o),
(142,-141,o),
(142,-135,cs),
(142,-103,ls),
(142,-97,o),
(139,-94,o),
(132,-96,cs)
);
}
);
width = 142;
}
);
note = ogonek;
unicode = 731;
},
{
glyphname = tilde;
layers = (
{
layerId = m01;
shapes = (
{
closed = 1;
nodes = (
(51,429,ls),
(57,429,o),
(62,432,o),
(63,439,cs),
(64,451,o),
(69,461,o),
(84,461,cs),
(111,461,o),
(153,432,o),
(192,432,cs),
(243,432,o),
(263,461,o),
(269,518,cs),
(270,524,o),
(266,528,o),
(259,528,cs),
(218,528,ls),
(213,528,o),
(208,526,o),
(207,518,cs),
(204,504,o),
(198,497,o),
(185,497,cs),
(155,497,o),
(115,528,o),
(71,528,cs),
(28,528,o),
(4,496,o),
(0,440,cs),
(0,433,o),
(3,429,o),
(10,429,cs)
);
}
);
width = 271;
}
);
note = tilde;
unicode = 732;
},
{
glyphname = hungarumlaut;
layers = (
{
layerId = m01;
shapes = (
{
closed = 1;
nodes = (
(70,431,ls),
(83,431,o),
(90,433,o),
(98,443,cs),
(161,516,ls),
(165,521,o),
(162,528,o),
(154,528,cs),
(89,528,ls),
(77,528,o),
(69,524,o),
(62,516,cs),
(4,443,ls),
(0,438,o),
(3,431,o),
(10,431,cs)
);
},
{
closed = 1;
nodes = (
(158,438,o),
(162,431,o),
(169,431,cs),
(228,431,ls),
(242,431,o),
(249,433,o),
(257,443,cs),
(319,516,ls),
(323,521,o),
(320,528,o),
(313,528,cs),
(248,528,ls),
(236,528,o),
(227,524,o),
(220,516,cs),
(163,443,l)
);
}
);
width = 319;
}
);
note = hungarumlaut;
unicode = 733;
},
{
glyphname = uni03BC;
layers = (
{
layerId = m01;
shapes = (
{
closed = 1;
nodes = (
(164,-2,o),
(196,-10,o),
(230,-10,cs),
(344,-10,o),
(395,68,o),
(395,176,cs),
(395,291,ls),
(395,351,o),
(368,376,o),
(315,376,cs),
(310,376,ls),
(303,376,o),
(299,372,o),
(299,364,cs),
(299,169,ls),
(299,102,o),
(264,79,o),
(220,79,cs),
(175,79,o),
(141,105,o),
(141,170,cs),
(141,291,ls),
(141,351,o),
(113,376,o),
(61,376,cs),
(56,376,ls),
(50,376,o),
(47,372,o),
(47,364,cs),
(47,-149,ls),
(47,-157,o),
(50,-160,o),
(56,-160,cs),
(131,-160,ls),
(139,-160,o),
(141,-157,o),
(141,-149,cs),
(141,13,l)
);
}
);
width = 442;
}
);
note = uni03BC;
unicode = 956;
},
{
glyphname = uni060C;
layers = (
{
layerId = m01;
shapes = (
{
closed = 1;
nodes = (
(109,129,o),
(122,147,o),
(132,158,cs),
(145,172,o),
(149,191,o),
(132,207,c),
(129,209,o),
(127,209,o),
(126,207,c),
(75,168,o),
(35,114,o),
(35,51,cs),
(35,14,o),
(63,-13,o),
(96,-13,cs),
(129,-13,o),
(157,15,o),
(157,49,cs),
(157,80,o),
(136,106,o),
(104,111,c)
);
}
);
width = 192;
}
);
note = uni060C;
unicode = 1548;
},
{
glyphname = uni061B;
layers = (
{
layerId = m01;
shapes = (
{
closed = 1;
nodes = (
(133,205,o),
(160,233,o),
(160,267,cs),
(160,298,o),
(140,324,o),
(109,329,c),
(113,348,o),
(126,365,o),
(135,376,c),
(149,389,o),
(152,408,o),
(135,425,cs),
(133,427,o),
(131,428,o),
(129,426,cs),
(79,386,o),
(39,333,o),
(39,268,cs),
(39,233,o),
(66,205,o),
(99,205,cs)
);
},
{
closed = 1;
nodes = (
(66,112,o),
(38,84,o),
(38,49,cs),
(38,15,o),
(66,-13,o),
(99,-13,cs),
(133,-13,o),
(160,15,o),
(160,49,cs),
(160,84,o),
(133,112,o),
(99,112,cs)
);
}
);
width = 198;
}
);
note = uni061B;
unicode = 1563;
},
{
glyphname = uni061F;
layers = (
{
layerId = m01;
shapes = (
{
closed = 1;
nodes = (
(274,158,o),
(279,163,o),
(279,170,cs),
(278,227,ls),
(277,324,o),
(149,343,o),
(148,410,cs),
(147,457,o),
(185,473,o),
(217,473,cs),
(249,474,o),
(270,466,o),
(296,457,cs),
(303,454,o),
(309,452,o),
(314,452,cs),
(324,452,o),
(327,461,o),
(327,473,cs),
(327,522,o),
(275,564,o),
(208,564,cs),
(118,564,o),
(48,506,o),
(49,416,cs),
(50,292,o),
(179,289,o),
(180,216,cs),
(180,170,ls),
(180,163,o),
(185,158,o),
(192,158,cs),
(267,158,ls)
);
},
{
closed = 1;
nodes = (
(197,112,o),
(169,84,o),
(169,49,cs),
(169,15,o),
(197,-13,o),
(230,-13,cs),
(264,-13,o),
(291,15,o),
(291,49,cs),
(291,84,o),
(264,112,o),
(230,112,cs)
);
}
);
width = 370;
}
);
note = uni061F;
unicode = 1567;
},
{
glyphname = uni0621;
layers = (
{
layerId = m01;
shapes = (
{
closed = 1;
nodes = (
(210,88,o),
(179,133,o),
(179,177,cs),
(179,234,o),
(214,269,o),
(268,269,cs),
(295,269,o),
(321,261,o),
(347,248,cs),
(354,244,o),
(359,242,o),
(363,242,cs),
(375,242,o),
(377,258,o),
(377,267,cs),
(377,287,o),
(366,305,o),
(353,319,cs),
(331,340,o),
(298,353,o),
(256,353,cs),
(161,353,o),
(88,284,o),
(88,179,cs),
(88,149,o),
(97,113,o),
(121,82,c),
(101,77,o),
(84,69,o),
(71,57,cs),
(50,38,o),
(42,5,o),
(51,-18,cs),
(53,-23,o),
(56,-26,o),
(61,-26,cs),
(65,-26,o),
(69,-25,o),
(74,-22,cs),
(97,-6,o),
(121,0,o),
(154,0,cs),
(401,0,ls),
(414,0,o),
(418,3,o),
(418,16,cs),
(418,23,ls),
(418,61,o),
(389,88,o),
(342,88,cs),
(265,88,ls)
);
}
);
width = 456;
}
);
note = uni0621;
unicode = 1569;
},
{
glyphname = uni0622;
layers = (
{
layerId = m01;
shapes = (
{
closed = 1;
nodes = (
(183,624,o),
(201,645,o),
(201,671,cs),
(201,680,o),
(198,690,o),
(193,697,cs),
(192,699,o),
(190,701,o),
(188,701,cs),
(183,701,o),
(181,693,o),
(177,688,cs),
(171,680,o),
(163,672,o),
(152,672,cs),
(128,672,o),
(83,702,o),
(55,702,cs),
(27,704,o),
(9,683,o),
(9,658,cs),
(9,648,o),
(12,638,o),
(17,631,cs),
(18,629,o),
(20,628,o),
(22,628,cs),
(27,628,o),
(29,635,o),
(33,641,cs),
(39,648,o),
(47,657,o),
(58,657,cs),
(82,657,o),
(126,626,o),
(156,626,cs)
);
},
{
closed = 1;
nodes = (
(127,0,o),
(153,28,o),
(153,82,cs),
(153,546,ls),
(153,553,o),
(150,556,o),
(142,556,cs),
(133,556,ls),
(82,556,o),
(56,527,o),
(56,474,cs),
(56,10,ls),
(56,3,o),
(59,0,o),
(67,0,cs),
(75,0,ls)
);
}
);
width = 208;
}
);
note = uni0622;
unicode = 1570;
},
{
glyphname = uni0623;
layers = (
{
layerId = m01;
shapes = (
{
closed = 1;
nodes = (
(99,678,o),
(84,694,o),
(84,716,cs),
(84,736,o),
(98,751,o),
(122,751,cs),
(134,751,o),
(143,748,o),
(155,742,cs),
(163,738,o),
(165,736,o),
(168,736,cs),
(172,736,o),
(173,738,o),
(173,746,cs),
(173,773,o),
(148,796,o),
(112,795,cs),
(69,794,o),
(37,760,o),
(37,716,cs),
(37,703,o),
(40,688,o),
(48,675,c),
(29,670,o),
(17,658,o),
(16,639,cs),
(16,634,o),
(17,629,o),
(19,626,c),
(20,622,o),
(22,621,o),
(23,621,cs),
(24,621,o),
(26,622,o),
(30,624,cs),
(39,628,o),
(51,633,o),
(73,633,cs),
(186,633,ls),
(193,633,o),
(194,634,o),
(194,640,cs),
(194,645,ls),
(194,664,o),
(181,678,o),
(157,678,cs),
(121,678,ls)
);
},
{
closed = 1;
nodes = (
(82,556,o),
(55,527,o),
(55,474,cs),
(55,10,ls),
(55,3,o),
(59,0,o),
(67,0,cs),
(75,0,ls),
(127,0,o),
(153,28,o),
(153,82,cs),
(153,546,ls),
(153,553,o),
(149,556,o),
(142,556,cs),
(133,556,ls)
);
}
);
width = 208;
}
);
note = uni0623;
unicode = 1571;
},
{
glyphname = uni0624;
layers = (
{
layerId = m01;
shapes = (
{
closed = 1;
nodes = (
(146,451,o),
(147,452,o),
(151,454,cs),
(161,458,o),
(172,463,o),
(195,463,cs),
(307,463,ls),
(314,463,o),
(315,464,o),
(315,470,cs),
(315,475,ls),
(315,494,o),
(302,508,o),
(278,508,cs),
(242,508,ls),
(221,508,o),
(205,524,o),
(205,546,cs),
(205,566,o),
(220,581,o),
(243,581,cs),
(256,581,o),
(264,578,o),
(276,572,cs),
(284,568,o),
(287,566,o),
(290,566,cs),
(294,566,o),
(295,568,o),
(295,576,cs),
(295,603,o),
(270,626,o),
(234,625,cs),
(190,624,o),
(158,590,o),
(158,546,cs),
(158,533,o),
(162,518,o),
(170,505,c),
(151,500,o),
(139,488,o),
(137,469,cs),
(137,464,o),
(139,459,o),
(140,456,cs),
(142,452,o),
(143,451,o),
(145,451,cs)
);
},
{
closed = 1;
nodes = (
(357,344,o),
(307,384,o),
(226,384,cs),
(126,384,o),
(48,313,o),
(48,185,cs),
(48,74,o),
(117,-9,o),
(220,-10,cs),
(245,-10,o),
(274,-5,o),
(307,11,c),
(301,-66,o),
(265,-121,o),
(195,-122,cs),
(146,-123,o),
(126,-116,o),
(97,-107,cs),
(93,-106,o),
(87,-103,o),
(82,-103,cs),
(72,-103,o),
(66,-110,o),
(68,-121,cs),
(72,-143,o),
(84,-162,o),
(101,-178,cs),
(127,-200,o),
(164,-214,o),
(212,-214,cs),
(280,-215,o),
(339,-180,o),
(369,-118,cs),
(405,-51,o),
(407,36,o),
(407,123,cs),
(407,181,o),
(400,239,o),
(384,279,cs)
);
},
{
closed = 1;
nodes = (
(307,121,o),
(306,114,o),
(306,108,c),
(286,92,o),
(258,84,o),
(229,84,cs),
(180,84,o),
(149,123,o),
(149,189,cs),
(149,244,o),
(176,293,o),
(226,293,cs),
(261,293,o),
(281,272,o),
(294,243,cs),
(304,217,o),
(307,166,o),
(307,129,cs)
);
}
);
width = 456;
}
);
note = uni0624;
unicode = 1572;
},
{
glyphname = uni0625;
layers = (
{
layerId = m01;
shapes = (
{
closed = 1;
nodes = (
(126,0,o),
(152,28,o),
(152,82,cs),
(152,546,ls),
(152,553,o),
(149,556,o),
(141,556,cs),
(133,556,ls),
(81,556,o),
(55,527,o),
(55,474,cs),
(55,10,ls),
(55,3,o),
(59,0,o),
(66,0,cs),
(75,0,ls)
);
},
{
closed = 1;
nodes = (
(96,-190,o),
(81,-174,o),
(81,-153,cs),
(81,-132,o),
(95,-118,o),
(119,-118,cs),
(131,-118,o),
(140,-121,o),
(152,-127,cs),
(160,-131,o),
(162,-133,o),
(165,-133,cs),
(169,-133,o),
(170,-130,o),
(170,-123,cs),
(170,-95,o),
(145,-73,o),
(109,-73,cs),
(66,-74,o),
(34,-108,o),
(34,-152,cs),
(34,-165,o),
(37,-181,o),
(45,-193,c),
(26,-198,o),
(14,-210,o),
(13,-229,cs),
(13,-234,o),
(14,-239,o),
(16,-243,cs),
(17,-246,o),
(19,-247,o),
(20,-247,cs),
(21,-247,o),
(23,-246,o),
(27,-244,cs),
(36,-240,o),
(48,-235,o),
(70,-235,cs),
(183,-235,ls),
(190,-235,o),
(191,-234,o),
(191,-228,cs),
(191,-223,ls),
(191,-204,o),
(178,-190,o),
(154,-190,cs),
(118,-190,ls)
);
}
);
width = 208;
}
);
note = uni0625;
unicode = 1573;
},
{
glyphname = uni0626;
layers = (
{
layerId = m01;
shapes = (
{
closed = 1;
nodes = (
(55,309,o),
(57,311,o),
(61,312,c),
(70,317,o),
(82,322,o),
(104,322,cs),
(217,322,ls),
(224,322,o),
(225,323,o),
(225,328,cs),
(225,333,ls),
(225,352,o),
(212,367,o),
(188,367,cs),
(152,367,ls),
(130,367,o),
(115,383,o),
(115,404,cs),
(115,424,o),
(129,439,o),
(153,439,cs),
(165,439,o),
(174,436,o),
(186,430,cs),
(194,426,o),
(196,424,o),
(199,424,cs),
(203,424,o),
(204,427,o),
(204,434,cs),
(204,462,o),
(179,484,o),
(143,483,cs),
(100,482,o),
(68,448,o),
(68,404,cs),
(68,392,o),
(71,376,o),
(79,363,c),
(60,358,o),
(48,347,o),
(47,328,cs),
(47,322,o),
(48,318,o),
(50,314,cs),
(51,311,o),
(53,309,o),
(54,309,cs)
);
},
{
closed = 1;
nodes = (
(409,142,o),
(374,163,o),
(374,204,cs),
(374,259,o),
(415,293,o),
(472,293,cs),
(508,293,o),
(542,280,o),
(562,268,cs),
(568,265,o),
(573,263,o),
(576,263,cs),
(589,263,o),
(593,274,o),
(593,291,cs),
(593,312,o),
(583,331,o),
(568,345,cs),
(545,369,o),
(508,384,o),
(456,384,cs),
(354,384,o),
(275,311,o),
(275,203,cs),
(275,113,o),
(336,65,o),
(422,44,cs),
(473,33,o),
(535,26,o),
(523,-9,cs),
(500,-80,o),
(427,-122,o),
(339,-122,cs),
(223,-122,o),
(142,-52,o),
(142,67,cs),
(142,117,o),
(155,171,o),
(183,217,cs),
(185,221,o),
(188,227,o),
(188,231,cs),
(188,240,o),
(184,244,o),
(175,244,cs),
(171,244,o),
(166,243,o),
(161,240,cs),
(98,209,o),
(48,133,o),
(48,43,cs),
(48,-89,o),
(153,-214,o),
(339,-214,cs),
(493,-214,o),
(612,-126,o),
(626,10,cs),
(635,86,o),
(541,113,o),
(456,131,cs)
);
}
);
width = 673;
}
);
note = uni0626;
unicode = 1574;
},
{
glyphname = uni0627;
layers = (
{
layerId = m01;
shapes = (
{
closed = 1;
nodes = (
(127,0,o),
(153,28,o),
(153,82,cs),
(153,546,ls),
(153,553,o),
(150,556,o),
(142,556,cs),
(134,556,ls),
(82,556,o),
(56,527,o),
(56,474,cs),
(56,10,ls),
(56,3,o),
(59,0,o),
(67,0,cs),
(75,0,ls)
);
}
);
width = 208;
}
);
note = uni0627;
unicode = 1575;
},
{
glyphname = uni0628;
layers = (
{
layerId = m01;
shapes = (
{
closed = 1;
nodes = (
(629,366,o),
(603,337,o),
(603,284,cs),
(603,180,ls),
(603,129,o),
(580,97,o),
(532,97,cs),
(239,97,ls),
(179,97,o),
(133,124,o),
(133,189,cs),
(133,226,o),
(148,254,o),
(166,279,cs),
(169,283,o),
(172,288,o),
(172,296,cs),
(172,302,o),
(169,308,o),
(159,308,cs),
(155,308,o),
(150,306,o),
(144,303,cs),
(85,278,o),
(48,218,o),
(48,157,cs),
(48,57,o),
(126,0,o),
(235,0,cs),
(530,0,ls),
(638,0,o),
(701,68,o),
(701,178,cs),
(701,356,ls),
(701,363,o),
(697,366,o),
(690,366,cs),
(681,366,ls)
);
},
{
closed = 1;
nodes = (
(354,-65,o),
(330,-88,o),
(330,-118,cs),
(330,-148,o),
(354,-172,o),
(382,-172,cs),
(412,-172,o),
(435,-148,o),
(435,-118,cs),
(435,-88,o),
(412,-65,o),
(382,-65,cs)
);
}
);
width = 757;
}
);
note = uni0628;
unicode = 1576;
},
{
glyphname = uni0629;
layers = (
{
layerId = m01;
shapes = (
{
closed = 1;
nodes = (
(155,531,o),
(177,553,o),
(177,582,cs),
(177,611,o),
(155,633,o),
(127,633,cs),
(100,633,o),
(77,611,o),
(77,582,cs),
(77,553,o),
(100,531,o),
(127,531,cs)
);
},
{
closed = 1;
nodes = (
(276,531,o),
(298,553,o),
(298,582,cs),
(298,611,o),
(276,633,o),
(248,633,cs),
(220,633,o),
(198,611,o),
(198,582,cs),
(198,553,o),
(220,531,o),
(248,531,cs)
);
},
{
closed = 1;
nodes = (
(314,364,o),
(305,371,o),
(297,377,cs),
(264,404,o),
(236,422,o),
(218,461,cs),
(215,468,o),
(213,473,o),
(205,472,c),
(203,471,o),
(198,469,o),
(196,468,cs),
(165,452,o),
(149,428,o),
(154,401,cs),
(157,389,o),
(162,381,o),
(169,372,c),
(80,325,o),
(48,249,o),
(48,183,cs),
(48,51,o),
(136,-10,o),
(229,-10,cs),
(337,-10,o),
(409,68,o),
(409,183,cs),
(409,251,o),
(382,305,o),
(323,356,cs)
);
},
{
closed = 1;
nodes = (
(183,83,o),
(147,125,o),
(149,181,cs),
(149,224,o),
(165,267,o),
(229,304,c),
(251,286,o),
(264,274,o),
(278,258,cs),
(301,232,o),
(308,207,o),
(309,182,cs),
(310,125,o),
(275,83,o),
(229,83,cs)
);
}
);
width = 457;
}
);
note = uni0629;
unicode = 1577;
},
{
glyphname = uni062A;
layers = (
{
layerId = m01;
shapes = (
{
closed = 1;
nodes = (
(351,373,o),
(373,396,o),
(373,424,cs),
(373,453,o),
(351,475,o),
(323,475,cs),
(295,475,o),
(273,453,o),
(273,424,cs),
(273,396,o),
(295,373,o),
(323,373,cs)
);
},
{
closed = 1;
nodes = (
(471,373,o),
(494,396,o),
(494,424,cs),
(494,453,o),
(471,475,o),
(444,475,cs),
(416,475,o),
(394,453,o),
(394,424,cs),
(394,396,o),
(416,373,o),
(444,373,cs)
);
},
{
closed = 1;
nodes = (
(629,366,o),
(603,337,o),
(603,284,cs),
(603,180,ls),
(603,129,o),
(580,97,o),
(532,97,cs),
(239,97,ls),
(179,97,o),
(133,124,o),
(133,189,cs),
(133,226,o),
(148,254,o),
(166,279,cs),
(169,283,o),
(172,288,o),
(172,296,cs),
(172,302,o),
(169,308,o),
(159,308,cs),
(155,308,o),
(150,306,o),
(144,303,cs),
(85,278,o),
(48,218,o),
(48,157,cs),
(48,57,o),
(126,0,o),
(235,0,cs),
(530,0,ls),
(638,0,o),
(701,68,o),
(701,178,cs),
(701,356,ls),
(701,363,o),
(697,366,o),
(690,366,cs),
(681,366,ls)
);
}
);
width = 757;
}
);
note = uni062A;
unicode = 1578;
},
{
glyphname = uni062B;
layers = (
{
layerId = m01;
shapes = (
{
closed = 1;
nodes = (
(409,482,o),
(430,503,o),
(430,528,cs),
(430,555,o),
(409,576,o),
(384,576,cs),
(358,576,o),
(337,555,o),
(337,528,cs),
(337,503,o),
(358,482,o),
(384,482,cs)
);
},
{
closed = 1;
nodes = (
(351,372,o),
(374,395,o),
(374,423,cs),
(374,452,o),
(351,474,o),
(323,474,cs),
(296,474,o),
(274,452,o),
(274,423,cs),
(274,395,o),
(296,372,o),
(323,372,cs)
);
},
{
closed = 1;
nodes = (
(471,372,o),
(494,395,o),
(494,423,cs),
(494,452,o),
(471,474,o),
(444,474,cs),
(416,474,o),
(394,452,o),
(394,423,cs),
(394,395,o),
(416,372,o),
(444,372,cs)
);
},
{
closed = 1;
nodes = (
(629,366,o),
(603,337,o),
(603,284,cs),
(603,180,ls),
(603,129,o),
(580,97,o),
(532,97,cs),
(239,97,ls),
(179,97,o),
(133,124,o),
(133,189,cs),
(133,226,o),
(148,254,o),
(166,279,cs),
(169,283,o),
(172,288,o),
(172,296,cs),
(172,302,o),
(169,308,o),
(159,308,cs),
(155,308,o),
(150,306,o),
(144,303,cs),
(85,278,o),
(48,218,o),
(48,157,cs),
(48,57,o),
(126,0,o),
(235,0,cs),
(530,0,ls),
(638,0,o),
(701,68,o),
(701,178,cs),
(701,356,ls),
(701,363,o),
(697,366,o),
(690,366,cs),
(681,366,ls)
);
}
);
width = 757;
}
);
note = uni062B;
unicode = 1579;
},
{
glyphname = uni062C;
layers = (
{
layerId = m01;
shapes = (
{
closed = 1;
nodes = (
(316,293,o),
(350,257,o),
(373,194,cs),
(392,139,o),
(400,114,o),
(417,97,c),
(277,97,ls),
(136,97,o),
(48,6,o),
(48,-116,cs),
(48,-236,o),
(135,-330,o),
(275,-331,cs),
(321,-332,o),
(361,-323,o),
(395,-307,cs),
(434,-288,o),
(462,-257,o),
(470,-218,cs),
(472,-209,o),
(468,-202,o),
(462,-200,cs),
(458,-198,o),
(452,-199,o),
(443,-203,cs),
(421,-215,o),
(402,-223,o),
(381,-229,cs),
(355,-237,o),
(328,-241,o),
(289,-239,cs),
(199,-238,o),
(153,-184,o),
(153,-119,cs),
(153,-58,o),
(198,0,o),
(278,0,cs),
(472,0,ls),
(531,0,o),
(562,37,o),
(562,86,cs),
(562,96,o),
(559,96,o),
(550,97,cs),
(537,98,o),
(526,103,o),
(519,112,cs),
(500,133,o),
(491,154,o),
(474,211,cs),
(438,321,o),
(373,384,o),
(272,384,cs),
(227,384,o),
(194,372,o),
(165,350,cs),
(136,328,o),
(107,283,o),
(107,247,cs),
(107,239,o),
(112,234,o),
(120,234,cs),
(127,233,o),
(132,236,o),
(139,242,cs),
(170,270,o),
(212,293,o),
(257,293,cs)
);
},
{
closed = 1;
nodes = (
(286,-65,o),
(263,-88,o),
(263,-118,cs),
(263,-148,o),
(286,-172,o),
(315,-172,cs),
(345,-172,o),
(368,-148,o),
(368,-118,cs),
(368,-88,o),
(345,-65,o),
(315,-65,cs)
);
}
);
width = 603;
}
);
note = uni062C;
unicode = 1580;
},
{
glyphname = uni062D;
layers = (
{
layerId = m01;
shapes = (
{
closed = 1;
nodes = (
(316,293,o),
(350,257,o),
(373,194,cs),
(392,139,o),
(400,114,o),
(417,97,c),
(277,97,ls),
(136,97,o),
(48,6,o),
(48,-116,cs),
(48,-236,o),
(135,-330,o),
(275,-331,cs),
(321,-332,o),
(361,-323,o),
(395,-307,cs),
(434,-288,o),
(462,-257,o),
(470,-218,cs),
(472,-209,o),
(468,-202,o),
(462,-200,cs),
(458,-198,o),
(452,-199,o),
(443,-203,cs),
(421,-215,o),
(402,-223,o),
(381,-229,cs),
(355,-237,o),
(328,-241,o),
(289,-239,cs),
(199,-238,o),
(153,-184,o),
(153,-119,cs),
(153,-58,o),
(198,0,o),
(278,0,cs),
(472,0,ls),
(531,0,o),
(562,37,o),
(562,86,cs),
(562,96,o),
(559,96,o),
(550,97,cs),
(537,98,o),
(526,103,o),
(519,112,cs),
(500,133,o),
(491,154,o),
(474,211,cs),
(438,321,o),
(373,384,o),
(272,384,cs),
(227,384,o),
(194,372,o),
(165,350,cs),
(136,328,o),
(107,283,o),
(107,247,cs),
(107,239,o),
(112,234,o),
(120,234,cs),
(127,233,o),
(132,236,o),
(139,242,cs),
(170,270,o),
(212,293,o),
(257,293,cs)
);
}
);
width = 603;
}
);
note = uni062D;
unicode = 1581;
},
{
glyphname = uni062E;
layers = (
{
layerId = m01;
shapes = (
{
closed = 1;
nodes = (
(245,552,o),
(221,529,o),
(221,498,cs),
(221,468,o),
(245,444,o),
(274,444,cs),
(303,444,o),
(326,468,o),
(326,498,cs),
(326,529,o),
(303,552,o),
(274,552,cs)
);
},
{
closed = 1;
nodes = (
(316,293,o),
(350,257,o),
(373,194,cs),
(392,139,o),
(400,114,o),
(417,97,c),
(277,97,ls),
(136,97,o),
(48,6,o),
(48,-116,cs),
(48,-236,o),
(135,-330,o),
(275,-331,cs),
(321,-332,o),
(361,-323,o),
(395,-307,cs),
(434,-288,o),
(462,-257,o),
(470,-218,cs),
(472,-209,o),
(468,-202,o),
(462,-200,cs),
(458,-198,o),
(452,-199,o),
(443,-203,cs),
(421,-215,o),
(402,-223,o),
(381,-229,cs),
(355,-237,o),
(328,-241,o),
(289,-239,cs),
(199,-238,o),
(153,-184,o),
(153,-119,cs),
(153,-58,o),
(198,0,o),
(278,0,cs),
(472,0,ls),
(531,0,o),
(562,37,o),
(562,86,cs),
(562,96,o),
(559,96,o),
(550,97,cs),
(537,98,o),
(526,103,o),
(519,112,cs),
(500,133,o),
(491,154,o),
(474,211,cs),
(438,321,o),
(373,384,o),
(272,384,cs),
(227,384,o),
(194,372,o),
(165,350,cs),
(136,328,o),
(107,283,o),
(107,247,cs),
(107,239,o),
(112,234,o),
(120,234,cs),
(127,233,o),
(132,236,o),
(139,242,cs),
(170,270,o),
(212,293,o),
(257,293,cs)
);
}
);
width = 603;
}
);
note = uni062E;
unicode = 1582;
},
{
glyphname = uni062F;
layers = (
{
layerId = m01;
shapes = (
{
closed = 1;
nodes = (
(296,0,o),
(376,76,o),
(376,187,cs),
(376,303,o),
(314,383,o),
(215,384,cs),
(183,385,o),
(154,375,o),
(133,358,cs),
(114,343,o),
(102,324,o),
(100,303,cs),
(99,288,o),
(102,276,o),
(113,275,cs),
(119,274,o),
(122,277,o),
(130,280,cs),
(150,288,o),
(165,293,o),
(192,293,cs),
(245,292,o),
(276,252,o),
(276,191,cs),
(276,146,o),
(246,97,o),
(199,97,cs),
(127,97,ls),
(75,97,o),
(43,67,o),
(43,26,cs),
(43,17,ls),
(43,2,o),
(47,0,o),
(62,0,cs),
(201,0,ls)
);
}
);
width = 424;
}
);
note = uni062F;
unicode = 1583;
},
{
glyphname = uni0630;
layers = (
{
layerId = m01;
shapes = (
{
closed = 1;
nodes = (
(124,549,o),
(100,526,o),
(100,496,cs),
(100,466,o),
(124,442,o),
(153,442,cs),
(182,442,o),
(205,466,o),
(205,496,cs),
(205,526,o),
(182,549,o),
(153,549,cs)
);
},
{
closed = 1;
nodes = (
(296,0,o),
(376,76,o),
(376,187,cs),
(376,303,o),
(314,383,o),
(215,384,cs),
(183,385,o),
(154,375,o),
(133,358,cs),
(114,343,o),
(102,324,o),
(100,303,cs),
(99,288,o),
(102,276,o),
(113,275,cs),
(119,274,o),
(122,277,o),
(130,280,cs),
(150,288,o),
(165,293,o),
(192,293,cs),
(245,292,o),
(276,252,o),
(276,191,cs),
(276,146,o),
(246,97,o),
(199,97,cs),
(127,97,ls),
(75,97,o),
(43,67,o),
(43,26,cs),
(43,17,ls),
(43,2,o),
(47,0,o),
(62,0,cs),
(201,0,ls)
);
}
);
width = 424;
}
);
note = uni0630;
unicode = 1584;
},
{
glyphname = uni0631;
layers = (
{
layerId = m01;
shapes = (
{
closed = 1;
nodes = (
(-5,-123,o),
(-27,-118,o),
(-58,-107,cs),
(-62,-106,o),
(-68,-103,o),
(-73,-103,cs),
(-83,-103,o),
(-89,-111,o),
(-87,-120,cs),
(-83,-145,o),
(-69,-167,o),
(-50,-183,cs),
(-24,-202,o),
(7,-214,o),
(42,-214,cs),
(157,-216,o),
(212,-127,o),
(212,24,cs),
(212,356,ls),
(212,363,o),
(208,366,o),
(201,366,cs),
(192,366,ls),
(140,366,o),
(114,337,o),
(114,284,cs),
(114,3,ls),
(114,-77,o),
(88,-120,o),
(23,-122,cs)
);
}
);
width = 267;
}
);
note = uni0631;
unicode = 1585;
},
{
glyphname = uni0632;
layers = (
{
layerId = m01;
shapes = (
{
closed = 1;
nodes = (
(137,533,o),
(113,510,o),
(113,479,cs),
(113,449,o),
(137,426,o),
(166,426,cs),
(195,426,o),
(218,449,o),
(218,479,cs),
(218,510,o),
(195,533,o),
(166,533,cs)
);
},
{
closed = 1;
nodes = (
(-5,-123,o),
(-27,-118,o),
(-58,-107,cs),
(-62,-106,o),
(-68,-103,o),
(-73,-103,cs),
(-83,-103,o),
(-89,-111,o),
(-87,-120,cs),
(-83,-145,o),
(-69,-167,o),
(-50,-183,cs),
(-24,-202,o),
(7,-214,o),
(42,-214,cs),
(157,-216,o),
(212,-127,o),
(212,24,cs),
(212,356,ls),
(212,363,o),
(208,366,o),
(201,366,cs),
(192,366,ls),
(140,366,o),
(114,337,o),
(114,284,cs),
(114,3,ls),
(114,-77,o),
(88,-120,o),
(23,-122,cs)
);
}
);
width = 267;
}
);
note = uni0632;
unicode = 1586;
},
{
glyphname = uni0633;
layers = (
{
layerId = m01;
shapes = (
{
closed = 1;
nodes = (
(975,366,o),
(947,338,o),
(947,284,cs),
(947,168,ls),
(947,115,o),
(924,82,o),
(876,82,cs),
(827,82,o),
(804,115,o),
(804,168,cs),
(804,334,ls),
(804,341,o),
(800,344,o),
(793,344,cs),
(784,344,ls),
(732,344,o),
(706,315,o),
(706,262,cs),
(706,168,ls),
(706,114,o),
(683,82,o),
(635,82,cs),
(587,82,o),
(563,115,o),
(563,168,cs),
(563,311,ls),
(563,318,o),
(560,322,o),
(552,322,cs),
(544,322,ls),
(491,322,o),
(466,292,o),
(466,239,cs),
(466,64,ls),
(466,-61,o),
(391,-122,o),
(304,-122,cs),
(215,-122,o),
(140,-61,o),
(142,64,cs),
(142,121,o),
(161,173,o),
(187,216,c),
(191,220,o),
(192,224,o),
(192,228,cs),
(193,236,o),
(186,241,o),
(178,241,cs),
(174,241,o),
(169,239,o),
(164,237,cs),
(97,209,o),
(49,135,o),
(48,44,cs),
(48,-112,o),
(157,-214,o),
(304,-214,cs),
(436,-214,o),
(535,-134,o),
(558,4,c),
(580,-5,o),
(605,-10,o),
(634,-10,cs),
(681,-10,o),
(726,5,o),
(755,33,c),
(784,5,o),
(829,-10,o),
(877,-10,cs),
(985,-10,o),
(1045,59,o),
(1045,168,cs),
(1045,356,ls),
(1045,363,o),
(1041,366,o),
(1034,366,cs),
(1025,366,ls)
);
}
);
width = 1101;
}
);
note = uni0633;
unicode = 1587;
},
{
glyphname = uni0634;
layers = (
{
layerId = m01;
shapes = (
{
closed = 1;
nodes = (
(778,514,o),
(799,536,o),
(799,561,cs),
(799,588,o),
(778,608,o),
(753,608,cs),
(727,608,o),
(707,588,o),
(707,561,cs),
(707,536,o),
(727,514,o),
(753,514,cs)
);
},
{
closed = 1;
nodes = (
(720,405,o),
(743,428,o),
(743,456,cs),
(743,485,o),
(720,507,o),
(692,507,cs),
(665,507,o),
(643,485,o),
(643,456,cs),
(643,428,o),
(665,405,o),
(692,405,cs)
);
},
{
closed = 1;
nodes = (
(763,428,o),
(785,405,o),
(813,405,cs),
(841,405,o),
(863,428,o),
(863,456,cs),
(863,485,o),
(841,507,o),
(813,507,cs),
(785,507,o),
(763,485,o),
(763,456,cs)
);
},
{
closed = 1;
nodes = (
(975,366,o),
(947,338,o),
(947,284,cs),
(947,168,ls),
(947,115,o),
(924,82,o),
(876,82,cs),
(827,82,o),
(804,115,o),
(804,168,cs),
(804,334,ls),
(804,341,o),
(800,344,o),
(793,344,cs),
(784,344,ls),
(732,344,o),
(706,315,o),
(706,262,cs),
(706,168,ls),
(706,114,o),
(683,82,o),
(635,82,cs),
(587,82,o),
(563,115,o),
(563,168,cs),
(563,311,ls),
(563,318,o),
(560,322,o),
(552,322,cs),
(544,322,ls),
(491,322,o),
(466,292,o),
(466,239,cs),
(466,64,ls),
(466,-61,o),
(391,-122,o),
(304,-122,cs),
(215,-122,o),
(140,-61,o),
(142,64,cs),
(142,121,o),
(161,173,o),
(187,216,c),
(191,220,o),
(192,224,o),
(192,228,cs),
(193,236,o),
(186,241,o),
(178,241,cs),
(174,241,o),
(169,239,o),
(164,237,cs),
(97,209,o),
(49,135,o),
(48,44,cs),
(48,-112,o),
(157,-214,o),
(304,-214,cs),
(436,-214,o),
(535,-134,o),
(558,4,c),
(580,-5,o),
(605,-10,o),
(634,-10,cs),
(681,-10,o),
(726,5,o),
(755,33,c),
(784,5,o),
(829,-10,o),
(877,-10,cs),
(985,-10,o),
(1045,59,o),
(1045,168,cs),
(1045,356,ls),
(1045,363,o),
(1041,366,o),
(1034,366,cs),
(1025,366,ls)
);
}
);
width = 1101;
}
);
note = uni0634;
unicode = 1588;
},
{
glyphname = uni0635;
layers = (
{
layerId = m01;
shapes = (
{
closed = 1;
nodes = (
(817,384,o),
(694,257,o),
(642,97,c),
(606,97,o),
(572,118,o),
(571,178,cs),
(571,356,ls),
(571,363,o),
(568,366,o),
(560,366,cs),
(552,366,ls),
(500,366,o),
(474,337,o),
(474,284,cs),
(474,64,ls),
(474,-61,o),
(399,-122,o),
(312,-122,cs),
(223,-122,o),
(148,-61,o),
(150,64,cs),
(150,121,o),
(169,173,o),
(195,216,c),
(199,220,o),
(200,224,o),
(200,228,cs),
(201,236,o),
(194,241,o),
(186,241,cs),
(182,241,o),
(177,239,o),
(172,237,cs),
(105,209,o),
(57,135,o),
(56,44,cs),
(56,-112,o),
(165,-214,o),
(312,-214,cs),
(447,-214,o),
(548,-131,o),
(568,14,c),
(588,6,o),
(614,0,o),
(644,0,cs),
(1017,0,ls),
(1113,0,o),
(1193,69,o),
(1193,186,cs),
(1193,302,o),
(1114,384,o),
(989,384,cs)
);
},
{
closed = 1;
nodes = (
(792,213,o),
(877,293,o),
(983,293,cs),
(1040,293,o),
(1093,262,o),
(1094,191,cs),
(1094,143,o),
(1065,97,o),
(1011,97,cs),
(749,97,l)
);
}
);
width = 1242;
}
);
note = uni0635;
unicode = 1589;
},
{
glyphname = uni0636;
layers = (
{
layerId = m01;
shapes = (
{
closed = 1;
nodes = (
(993,443,o),
(1016,467,o),
(1016,497,cs),
(1016,527,o),
(993,550,o),
(964,550,cs),
(935,550,o),
(911,527,o),
(911,497,cs),
(911,467,o),
(935,443,o),
(964,443,cs)
);
},
{
closed = 1;
nodes = (
(817,384,o),
(694,257,o),
(642,97,c),
(606,97,o),
(572,118,o),
(571,178,cs),
(571,356,ls),
(571,363,o),
(568,366,o),
(560,366,cs),
(552,366,ls),
(500,366,o),
(474,337,o),
(474,284,cs),
(474,64,ls),
(474,-61,o),
(399,-122,o),
(312,-122,cs),
(223,-122,o),
(148,-61,o),
(150,64,cs),
(150,121,o),
(169,173,o),
(195,216,c),
(199,220,o),
(200,224,o),
(200,228,cs),
(201,236,o),
(194,241,o),
(186,241,cs),
(182,241,o),
(177,239,o),
(172,237,cs),
(105,209,o),
(57,135,o),
(56,44,cs),
(56,-112,o),
(165,-214,o),
(312,-214,cs),
(447,-214,o),
(548,-131,o),
(568,14,c),
(588,6,o),
(614,0,o),
(644,0,cs),
(1017,0,ls),
(1113,0,o),
(1193,69,o),
(1193,186,cs),
(1193,302,o),
(1114,384,o),
(989,384,cs)
);
},
{
closed = 1;
nodes = (
(792,213,o),
(877,293,o),
(983,293,cs),
(1040,293,o),
(1093,262,o),
(1094,191,cs),
(1094,143,o),
(1065,97,o),
(1011,97,cs),
(749,97,l)
);
}
);
width = 1242;
}
);
note = uni0636;
unicode = 1590;
},
{
glyphname = uni0637;
layers = (
{
layerId = m01;
shapes = (
{
closed = 1;
nodes = (
(406,384,o),
(325,340,o),
(265,273,c),
(265,546,ls),
(265,553,o),
(261,556,o),
(254,556,cs),
(245,556,ls),
(194,556,o),
(167,527,o),
(167,474,cs),
(167,97,l),
(127,97,ls),
(75,97,o),
(43,67,o),
(43,26,cs),
(43,17,ls),
(43,2,o),
(47,0,o),
(62,0,cs),
(532,0,ls),
(629,0,o),
(709,69,o),
(709,186,cs),
(709,302,o),
(629,384,o),
(504,384,cs)
);
},
{
closed = 1;
nodes = (
(308,213,o),
(392,293,o),
(499,293,cs),
(556,293,o),
(609,262,o),
(609,191,cs),
(610,143,o),
(581,97,o),
(526,97,cs),
(265,97,l)
);
}
);
width = 757;
}
);
note = uni0637;
unicode = 1591;
},
{
glyphname = uni0638;
layers = (
{
layerId = m01;
shapes = (
{
closed = 1;
nodes = (
(406,384,o),
(325,340,o),
(265,273,c),
(265,546,ls),
(265,553,o),
(261,556,o),
(254,556,cs),
(245,556,ls),
(194,556,o),
(167,527,o),
(167,474,cs),
(167,97,l),
(127,97,ls),
(75,97,o),
(43,67,o),
(43,26,cs),
(43,17,ls),
(43,2,o),
(47,0,o),
(62,0,cs),
(532,0,ls),
(629,0,o),
(709,69,o),
(709,186,cs),
(709,302,o),
(629,384,o),
(504,384,cs)
);
},
{
closed = 1;
nodes = (
(507,442,o),
(530,466,o),
(530,496,cs),
(530,527,o),
(507,549,o),
(478,549,cs),
(449,549,o),
(425,527,o),
(425,496,cs),
(425,466,o),
(449,442,o),
(478,442,cs)
);
},
{
closed = 1;
nodes = (
(308,213,o),
(392,293,o),
(499,293,cs),
(556,293,o),
(609,262,o),
(609,191,cs),
(610,143,o),
(581,97,o),
(526,97,cs),
(265,97,l)
);
}
);
width = 757;
}
);
note = uni0638;
unicode = 1592;
},
{
glyphname = uni0639;
layers = (
{
layerId = m01;
shapes = (
{
closed = 1;
nodes = (
(458,-198,o),
(452,-199,o),
(443,-203,cs),
(421,-215,o),
(402,-223,o),
(381,-229,cs),
(355,-237,o),
(328,-241,o),
(289,-239,cs),
(199,-238,o),
(153,-184,o),
(153,-119,cs),
(153,-58,o),
(198,0,o),
(278,0,cs),
(451,0,ls),
(465,0,o),
(469,2,o),
(469,17,cs),
(469,25,ls),
(469,66,o),
(437,97,o),
(386,97,cs),
(278,97,ls),
(216,97,o),
(186,148,o),
(187,193,cs),
(187,256,o),
(231,293,o),
(292,293,cs),
(330,293,o),
(366,279,o),
(386,268,c),
(391,264,o),
(396,263,o),
(400,263,cs),
(412,263,o),
(416,274,o),
(416,288,cs),
(415,343,o),
(358,384,o),
(278,384,cs),
(172,384,o),
(87,308,o),
(87,194,cs),
(88,147,o),
(108,96,o),
(145,63,c),
(84,26,o),
(48,-39,o),
(48,-116,cs),
(48,-236,o),
(135,-330,o),
(275,-331,cs),
(321,-332,o),
(361,-323,o),
(395,-307,cs),
(434,-288,o),
(462,-257,o),
(470,-218,cs),
(472,-209,o),
(468,-202,o),
(462,-200,cs)
);
}
);
width = 513;
}
);
note = uni0639;
unicode = 1593;
},
{
glyphname = uni063A;
layers = (
{
layerId = m01;
shapes = (
{
closed = 1;
nodes = (
(299,441,o),
(322,464,o),
(322,494,cs),
(322,525,o),
(299,548,o),
(270,548,cs),
(241,548,o),
(217,525,o),
(217,494,cs),
(217,464,o),
(241,441,o),
(270,441,cs)
);
},
{
closed = 1;
nodes = (
(458,-198,o),
(452,-199,o),
(443,-203,cs),
(421,-215,o),
(402,-223,o),
(381,-229,cs),
(355,-237,o),
(328,-241,o),
(289,-239,cs),
(199,-238,o),
(153,-184,o),
(153,-119,cs),
(153,-58,o),
(198,0,o),
(278,0,cs),
(451,0,ls),
(465,0,o),
(469,2,o),
(469,17,cs),
(469,25,ls),
(469,66,o),
(437,97,o),
(386,97,cs),
(278,97,ls),
(216,97,o),
(186,148,o),
(187,193,cs),
(187,256,o),
(231,293,o),
(292,293,cs),
(330,293,o),
(366,279,o),
(386,268,c),
(391,264,o),
(396,263,o),
(400,263,cs),
(412,263,o),
(416,274,o),
(416,288,cs),
(415,343,o),
(358,384,o),
(278,384,cs),
(172,384,o),
(87,308,o),
(87,194,cs),
(88,147,o),
(108,96,o),
(145,63,c),
(84,26,o),
(48,-39,o),
(48,-116,cs),
(48,-236,o),
(135,-330,o),
(275,-331,cs),
(321,-332,o),
(361,-323,o),
(395,-307,cs),
(434,-288,o),
(462,-257,o),
(470,-218,cs),
(472,-209,o),
(468,-202,o),
(462,-200,cs)
);
}
);
width = 513;
}
);
note = uni063A;
unicode = 1594;
},
{
glyphname = uni0640;
layers = (
{
layerId = m01;
shapes = (
{
closed = 1;
nodes = (
(-2,0,l),
(114,0,l),
(114,97,l),
(-2,97,l)
);
}
);
width = 104;
}
);
note = uni0640;
unicode = 1600;
},
{
glyphname = uni0641;
layers = (
{
layerId = m01;
shapes = (
{
closed = 1;
nodes = (
(664,444,o),
(687,468,o),
(687,498,cs),
(687,529,o),
(664,552,o),
(635,552,cs),
(606,552,o),
(582,529,o),
(582,498,cs),
(582,468,o),
(606,444,o),
(635,444,cs)
);
},
{
closed = 1;
nodes = (
(531,384,o),
(455,308,o),
(455,192,cs),
(455,158,o),
(462,123,o),
(479,97,c),
(239,97,ls),
(179,97,o),
(133,124,o),
(133,189,cs),
(133,226,o),
(148,254,o),
(166,279,cs),
(169,283,o),
(172,288,o),
(172,296,cs),
(172,302,o),
(169,308,o),
(159,308,cs),
(155,308,o),
(150,306,o),
(144,303,cs),
(85,278,o),
(48,218,o),
(48,157,cs),
(48,57,o),
(126,0,o),
(235,0,cs),
(636,0,ls),
(735,2,o),
(810,77,o),
(810,192,cs),
(810,308,o),
(734,384,o),
(632,384,cs)
);
},
{
closed = 1;
nodes = (
(578,97,o),
(555,153,o),
(555,194,cs),
(555,236,o),
(578,293,o),
(633,293,cs),
(688,293,o),
(710,236,o),
(710,194,cs),
(710,153,o),
(688,97,o),
(633,97,cs)
);
}
);
width = 859;
}
);
note = uni0641;
unicode = 1601;
},
{
glyphname = uni0642;
layers = (
{
layerId = m01;
shapes = (
{
closed = 1;
nodes = (
(421,443,o),
(444,465,o),
(444,494,cs),
(444,522,o),
(421,544,o),
(394,544,cs),
(366,544,o),
(344,522,o),
(344,494,cs),
(344,465,o),
(366,443,o),
(394,443,cs)
);
},
{
closed = 1;
nodes = (
(542,443,o),
(564,465,o),
(564,494,cs),
(564,522,o),
(542,544,o),
(514,544,cs),
(486,544,o),
(464,522,o),
(464,494,cs),
(464,465,o),
(486,443,o),
(514,443,cs)
);
},
{
closed = 1;
nodes = (
(585,344,o),
(535,384,o),
(454,384,cs),
(354,384,o),
(276,313,o),
(276,185,cs),
(276,74,o),
(345,-9,o),
(447,-10,cs),
(472,-10,o),
(497,-6,o),
(525,7,c),
(503,-75,o),
(437,-122,o),
(341,-122,cs),
(225,-122,o),
(145,-53,o),
(144,64,cs),
(143,114,o),
(156,169,o),
(184,217,cs),
(187,221,o),
(189,227,o),
(189,231,cs),
(190,240,o),
(185,244,o),
(176,244,cs),
(172,244,o),
(168,243,o),
(162,240,cs),
(100,209,o),
(51,135,o),
(50,46,cs),
(48,-88,o),
(154,-214,o),
(341,-214,cs),
(524,-215,o),
(631,-103,o),
(635,98,cs),
(636,160,o),
(630,234,o),
(611,279,cs)
);
},
{
closed = 1;
nodes = (
(376,244,o),
(404,293,o),
(454,293,cs),
(489,293,o),
(509,272,o),
(521,243,cs),
(531,217,o),
(535,166,o),
(535,129,cs),
(535,121,o),
(534,114,o),
(534,108,c),
(514,92,o),
(486,84,o),
(456,84,cs),
(408,84,o),
(376,123,o),
(376,189,cs)
);
}
);
width = 682;
}
);
note = uni0642;
unicode = 1602;
},
{
glyphname = uni0643;
layers = (
{
layerId = m01;
shapes = (
{
closed = 1;
nodes = (
(629,556,o),
(603,527,o),
(603,474,cs),
(603,180,ls),
(603,129,o),
(580,97,o),
(532,97,cs),
(239,97,ls),
(179,97,o),
(133,124,o),
(133,189,cs),
(133,226,o),
(148,254,o),
(166,279,cs),
(169,283,o),
(172,288,o),
(172,296,cs),
(172,302,o),
(169,308,o),
(159,308,cs),
(155,308,o),
(150,306,o),
(144,303,cs),
(85,278,o),
(48,218,o),
(48,157,cs),
(48,57,o),
(126,0,o),
(235,0,cs),
(530,0,ls),
(638,0,o),
(701,68,o),
(701,178,cs),
(701,546,ls),
(701,553,o),
(697,556,o),
(690,556,cs),
(681,556,ls)
);
},
{
closed = 1;
nodes = (
(291,263,o),
(293,264,o),
(297,266,cs),
(311,272,o),
(328,274,o),
(348,274,cs),
(474,274,ls),
(481,274,o),
(482,276,o),
(482,283,cs),
(482,287,ls),
(482,308,o),
(469,323,o),
(442,323,cs),
(402,323,ls),
(371,323,o),
(355,347,o),
(355,367,cs),
(355,393,o),
(372,408,o),
(400,408,cs),
(415,408,o),
(427,405,o),
(439,399,cs),
(445,396,o),
(450,393,o),
(454,393,cs),
(459,392,o),
(461,398,o),
(461,406,cs),
(460,434,o),
(431,457,o),
(390,456,cs),
(347,456,o),
(304,424,o),
(304,367,cs),
(304,351,o),
(310,333,o),
(320,319,c),
(293,312,o),
(277,292,o),
(282,268,cs),
(283,265,o),
(285,263,o),
(288,263,cs)
);
}
);
width = 757;
}
);
note = uni0643;
unicode = 1603;
},
{
glyphname = uni0644;
layers = (
{
layerId = m01;
shapes = (
{
closed = 1;
nodes = (
(455,-214,o),
(563,-109,o),
(563,67,cs),
(563,546,ls),
(563,553,o),
(560,556,o),
(552,556,cs),
(544,556,ls),
(492,556,o),
(466,527,o),
(466,474,cs),
(466,64,ls),
(466,-61,o),
(391,-122,o),
(304,-122,cs),
(215,-122,o),
(140,-61,o),
(142,64,cs),
(142,121,o),
(161,173,o),
(187,216,c),
(191,220,o),
(192,224,o),
(192,228,cs),
(193,236,o),
(186,241,o),
(178,241,cs),
(174,241,o),
(169,239,o),
(164,237,cs),
(97,209,o),
(49,135,o),
(48,44,cs),
(48,-112,o),
(157,-214,o),
(304,-214,cs)
);
}
);
width = 619;
}
);
note = uni0644;
unicode = 1604;
},
{
glyphname = uni0645;
layers = (
{
layerId = m01;
shapes = (
{
closed = 1;
nodes = (
(288,384,o),
(247,294,o),
(196,188,cs),
(184,163,o),
(176,143,o),
(166,130,c),
(85,116,o),
(39,56,o),
(39,-44,cs),
(39,-278,ls),
(39,-286,o),
(43,-288,o),
(50,-288,cs),
(59,-288,ls),
(108,-288,o),
(137,-262,o),
(137,-207,cs),
(137,-46,ls),
(137,8,o),
(157,34,o),
(201,36,cs),
(216,36,l),
(272,6,o),
(325,-10,o),
(387,-10,cs),
(494,-10,o),
(560,53,o),
(560,172,cs),
(560,266,o),
(516,384,o),
(386,384,cs)
);
},
{
closed = 1;
nodes = (
(366,83,o),
(324,89,o),
(271,117,c),
(277,127,o),
(284,141,o),
(293,161,cs),
(326,232,o),
(355,293,o),
(391,293,cs),
(431,293,o),
(459,254,o),
(459,173,cs),
(459,105,o),
(431,86,o),
(392,84,cs)
);
}
);
width = 608;
}
);
note = uni0645;
unicode = 1605;
},
{
glyphname = uni0646;
layers = (
{
layerId = m01;
shapes = (
{
closed = 1;
nodes = (
(279,436,o),
(255,413,o),
(255,382,cs),
(255,352,o),
(279,328,o),
(308,328,cs),
(337,328,o),
(360,352,o),
(360,382,cs),
(360,413,o),
(337,436,o),
(308,436,cs)
);
},
{
closed = 1;
nodes = (
(455,-214,o),
(563,-109,o),
(563,67,cs),
(563,356,ls),
(563,363,o),
(560,366,o),
(552,366,cs),
(544,366,ls),
(492,366,o),
(466,337,o),
(466,284,cs),
(466,64,ls),
(466,-61,o),
(391,-122,o),
(304,-122,cs),
(215,-122,o),
(140,-61,o),
(142,64,cs),
(142,121,o),
(161,173,o),
(187,216,c),
(191,220,o),
(192,224,o),
(192,228,cs),
(193,236,o),
(186,241,o),
(178,241,cs),
(174,241,o),
(169,239,o),
(164,237,cs),
(97,209,o),
(49,135,o),
(48,44,cs),
(48,-112,o),
(157,-214,o),
(304,-214,cs)
);
}
);
width = 619;
}
);
note = uni0646;
unicode = 1606;
},
{
glyphname = uni0647;
layers = (
{
layerId = m01;
shapes = (
{
closed = 1;
nodes = (
(314,364,o),
(305,371,o),
(297,377,cs),
(264,404,o),
(236,422,o),
(218,461,cs),
(215,468,o),
(213,473,o),
(205,472,c),
(203,471,o),
(198,469,o),
(196,468,cs),
(165,452,o),
(149,428,o),
(154,401,cs),
(157,389,o),
(162,381,o),
(169,372,c),
(80,325,o),
(48,249,o),
(48,183,cs),
(48,51,o),
(136,-10,o),
(229,-10,cs),
(337,-10,o),
(409,68,o),
(409,183,cs),
(409,251,o),
(382,305,o),
(323,356,cs)
);
},
{
closed = 1;
nodes = (
(183,83,o),
(147,125,o),
(149,181,cs),
(149,224,o),
(165,267,o),
(229,304,c),
(251,286,o),
(264,274,o),
(278,258,cs),
(301,232,o),
(308,207,o),
(309,182,cs),
(310,125,o),
(275,83,o),
(229,83,cs)
);
}
);
width = 457;
}
);
note = uni0647;
unicode = 1607;
},
{
glyphname = uni0648;
layers = (
{
layerId = m01;
shapes = (
{
closed = 1;
nodes = (
(357,344,o),
(307,384,o),
(226,384,cs),
(126,384,o),
(48,313,o),
(48,185,cs),
(48,74,o),
(117,-9,o),
(220,-10,cs),
(245,-10,o),
(274,-5,o),
(307,11,c),
(301,-66,o),
(265,-121,o),
(195,-122,cs),
(146,-123,o),
(126,-116,o),
(97,-107,cs),
(93,-106,o),
(87,-103,o),
(82,-103,cs),
(72,-103,o),
(66,-110,o),
(68,-121,cs),
(72,-143,o),
(84,-162,o),
(101,-178,cs),
(127,-200,o),
(164,-214,o),
(212,-214,cs),
(280,-215,o),
(339,-180,o),
(369,-118,cs),
(405,-51,o),
(407,36,o),
(407,123,cs),
(407,181,o),
(400,239,o),
(384,279,cs)
);
},
{
closed = 1;
nodes = (
(307,121,o),
(306,114,o),
(306,108,c),
(286,92,o),
(258,84,o),
(229,84,cs),
(180,84,o),
(149,123,o),
(149,189,cs),
(149,244,o),
(176,293,o),
(226,293,cs),
(261,293,o),
(281,272,o),
(294,243,cs),
(304,217,o),
(307,166,o),
(307,129,cs)
);
}
);
width = 456;
}
);
note = uni0648;
unicode = 1608;
},
{
glyphname = uni0649;
layers = (
{
layerId = m01;
shapes = (
{
closed = 1;
nodes = (
(635,86,o),
(541,113,o),
(456,131,cs),
(409,142,o),
(374,163,o),
(374,204,cs),
(374,259,o),
(415,293,o),
(472,293,cs),
(507,293,o),
(542,280,o),
(562,268,cs),
(567,265,o),
(572,263,o),
(576,263,cs),
(589,263,o),
(592,274,o),
(592,291,cs),
(592,312,o),
(582,331,o),
(568,345,cs),
(545,369,o),
(508,384,o),
(456,384,cs),
(354,384,o),
(275,311,o),
(275,203,cs),
(275,113,o),
(336,65,o),
(422,44,cs),
(472,33,o),
(535,26,o),
(523,-9,cs),
(500,-80,o),
(427,-122,o),
(339,-122,cs),
(222,-122,o),
(142,-52,o),
(142,67,cs),
(142,117,o),
(155,171,o),
(182,217,cs),
(185,221,o),
(187,227,o),
(187,231,cs),
(187,240,o),
(184,244,o),
(175,244,cs),
(171,244,o),
(166,243,o),
(161,240,cs),
(97,209,o),
(48,133,o),
(48,43,cs),
(48,-89,o),
(152,-214,o),
(339,-214,cs),
(492,-214,o),
(612,-126,o),
(626,10,cs)
);
}
);
width = 673;
}
);
note = uni0649;
unicode = 1609;
},
{
glyphname = uni064A;
layers = (
{
layerId = m01;
shapes = (
{
closed = 1;
nodes = (
(635,86,o),
(541,113,o),
(456,131,cs),
(409,142,o),
(374,163,o),
(374,204,cs),
(374,259,o),
(415,293,o),
(472,293,cs),
(507,293,o),
(542,280,o),
(562,268,cs),
(567,265,o),
(572,263,o),
(576,263,cs),
(589,263,o),
(592,274,o),
(592,291,cs),
(592,312,o),
(582,331,o),
(568,345,cs),
(545,369,o),
(508,384,o),
(456,384,cs),
(354,384,o),
(275,311,o),
(275,203,cs),
(275,113,o),
(336,65,o),
(422,44,cs),
(472,33,o),
(535,26,o),
(523,-9,cs),
(500,-80,o),
(427,-122,o),
(339,-122,cs),
(222,-122,o),
(142,-52,o),
(142,67,cs),
(142,117,o),
(155,171,o),
(182,217,cs),
(185,221,o),
(187,227,o),
(187,231,cs),
(187,240,o),
(184,244,o),
(175,244,cs),
(171,244,o),
(166,243,o),
(161,240,cs),
(97,209,o),
(48,133,o),
(48,43,cs),
(48,-89,o),
(152,-214,o),
(339,-214,cs),
(492,-214,o),
(612,-126,o),
(626,10,cs)
);
},
{
closed = 1;
nodes = (
(250,-271,o),
(227,-293,o),
(227,-322,cs),
(227,-351,o),
(250,-373,o),
(277,-373,cs),
(305,-373,o),
(327,-351,o),
(327,-322,cs),
(327,-293,o),
(305,-271,o),
(277,-271,cs)
);
},
{
closed = 1;
nodes = (
(370,-271,o),
(347,-293,o),
(347,-322,cs),
(347,-351,o),
(370,-373,o),
(398,-373,cs),
(425,-373,o),
(447,-351,o),
(447,-322,cs),
(447,-293,o),
(425,-271,o),
(398,-271,cs)
);
}
);
width = 673;
}
);
note = uni064A;
unicode = 1610;
},
{
glyphname = uni064B;
layers = (
{
layerId = m01;
shapes = (
{
closed = 1;
nodes = (
(26,747,o),
(4,733,o),
(2,708,cs),
(2,703,o),
(3,698,o),
(5,694,cs),
(6,691,o),
(8,690,o),
(9,690,cs),
(10,690,o),
(12,691,o),
(16,693,cs),
(25,696,o),
(36,702,o),
(60,702,cs),
(175,702,ls),
(182,702,o),
(183,703,o),
(183,709,cs),
(183,714,ls),
(183,733,o),
(170,747,o),
(146,747,cs),
(109,747,l),
(57,747,ls)
);
},
{
closed = 1;
nodes = (
(26,661,o),
(4,647,o),
(2,622,cs),
(2,617,o),
(3,612,o),
(5,608,cs),
(6,606,o),
(8,604,o),
(9,604,cs),
(10,604,o),
(12,605,o),
(16,607,cs),
(25,611,o),
(36,616,o),
(60,616,cs),
(175,616,ls),
(182,616,o),
(183,617,o),
(183,623,cs),
(183,628,ls),
(183,647,o),
(170,661,o),
(146,661,cs),
(57,661,ls)
);
}
);
width = 0;
}
);
note = uni064B;
unicode = 1611;
},
{
glyphname = uni064C;
layers = (
{
layerId = m01;
shapes = (
{
closed = 1;
nodes = (
(137,640,o),
(112,614,o),
(113,579,cs),
(113,562,o),
(124,542,o),
(140,526,c),
(127,515,ls),
(123,512,o),
(119,511,o),
(115,511,cs),
(110,511,o),
(104,517,o),
(98,522,cs),
(80,538,o),
(68,545,o),
(54,545,cs),
(37,545,o),
(23,534,o),
(17,519,cs),
(11,505,o),
(13,487,o),
(22,474,c),
(27,469,o),
(31,469,o),
(33,475,c),
(41,491,o),
(45,500,o),
(54,500,cs),
(59,500,o),
(67,494,o),
(73,486,c),
(87,473,o),
(96,464,o),
(109,464,cs),
(123,464,o),
(135,471,o),
(142,477,cs),
(170,498,l),
(185,483,ls),
(189,479,o),
(192,480,o),
(195,482,cs),
(212,494,o),
(213,511,o),
(205,524,c),
(225,541,o),
(238,557,o),
(238,578,cs),
(239,611,o),
(215,638,o),
(175,640,cs)
);
},
{
closed = 1;
nodes = (
(198,569,o),
(190,560,o),
(173,548,c),
(162,558,o),
(154,568,o),
(154,579,cs),
(153,593,o),
(162,603,o),
(177,603,cs),
(187,603,o),
(198,593,o),
(198,579,cs)
);
}
);
width = 0;
}
);
note = uni064C;
unicode = 1612;
},
{
glyphname = uni064D;
layers = (
{
layerId = m01;
shapes = (
{
closed = 1;
nodes = (
(26,-66,o),
(3,-79,o),
(2,-104,cs),
(2,-110,o),
(3,-114,o),
(4,-118,cs),
(6,-122,o),
(7,-123,o),
(9,-123,cs),
(10,-123,o),
(11,-122,o),
(16,-120,cs),
(25,-117,o),
(36,-111,o),
(59,-111,cs),
(175,-111,ls),
(182,-111,o),
(183,-109,o),
(183,-104,cs),
(183,-99,ls),
(183,-80,o),
(170,-66,o),
(145,-66,cs),
(109,-66,l),
(57,-66,ls)
);
},
{
closed = 1;
nodes = (
(26,-152,o),
(3,-166,o),
(2,-191,cs),
(2,-196,o),
(3,-201,o),
(4,-204,c),
(6,-207,o),
(7,-208,o),
(9,-208,cs),
(10,-208,o),
(11,-208,o),
(16,-206,cs),
(25,-202,o),
(36,-197,o),
(59,-197,cs),
(175,-197,ls),
(182,-197,o),
(183,-196,o),
(183,-190,cs),
(183,-185,ls),
(183,-166,o),
(170,-152,o),
(145,-152,cs),
(57,-152,ls)
);
}
);
width = 0;
}
);
note = uni064D;
unicode = 1613;
},
{
glyphname = uni064E;
layers = (
{
layerId = m01;
shapes = (
{
closed = 1;
nodes = (
(26,664,o),
(4,651,o),
(2,626,cs),
(2,620,o),
(3,616,o),
(5,612,cs),
(6,609,o),
(8,608,o),
(9,608,cs),
(10,608,o),
(12,608,o),
(16,611,c),
(25,614,o),
(36,619,o),
(60,619,cs),
(175,619,ls),
(182,619,o),
(183,621,o),
(183,626,cs),
(183,631,ls),
(183,651,o),
(170,664,o),
(146,664,cs),
(57,664,ls)
);
}
);
width = 0;
}
);
note = uni064E;
unicode = 1614;
},
{
glyphname = uni064F;
layers = (
{
layerId = m01;
shapes = (
{
closed = 1;
nodes = (
(82,647,o),
(58,621,o),
(58,586,cs),
(58,569,o),
(70,549,o),
(85,533,c),
(58,514,o),
(32,496,o),
(12,486,cs),
(9,484,o),
(10,481,o),
(11,479,cs),
(13,476,ls),
(20,468,o),
(30,463,o),
(41,463,cs),
(50,463,o),
(55,464,o),
(65,470,cs),
(75,476,o),
(90,487,o),
(116,504,c),
(116,504,l),
(131,490,ls),
(135,486,o),
(137,487,o),
(141,488,c),
(157,501,o),
(158,517,o),
(151,531,c),
(171,548,o),
(183,563,o),
(184,585,cs),
(185,618,o),
(161,645,o),
(121,647,cs)
);
},
{
closed = 1;
nodes = (
(143,576,o),
(136,567,o),
(119,554,c),
(107,565,o),
(100,575,o),
(100,586,cs),
(99,599,o),
(107,610,o),
(123,610,cs),
(133,610,o),
(144,600,o),
(143,586,cs)
);
}
);
width = 0;
}
);
note = uni064F;
unicode = 1615;
},
{
glyphname = uni0650;
layers = (
{
layerId = m01;
shapes = (
{
closed = 1;
nodes = (
(26,-66,o),
(3,-79,o),
(2,-104,cs),
(2,-110,o),
(3,-114,o),
(4,-118,cs),
(6,-122,o),
(7,-123,o),
(9,-123,cs),
(10,-123,o),
(11,-122,o),
(16,-120,cs),
(25,-117,o),
(36,-111,o),
(59,-111,cs),
(175,-111,ls),
(182,-111,o),
(183,-109,o),
(183,-104,cs),
(183,-99,ls),
(183,-80,o),
(170,-66,o),
(145,-66,cs),
(109,-66,l),
(57,-66,ls)
);
}
);
width = 0;
}
);
note = uni0650;
unicode = 1616;
},
{
glyphname = uni0651;
layers = (
{
layerId = m01;
shapes = (
{
closed = 1;
nodes = (
(230,611,o),
(220,606,o),
(213,598,cs),
(206,589,o),
(204,577,o),
(204,563,cs),
(204,537,ls),
(204,513,o),
(193,506,o),
(179,506,cs),
(166,506,o),
(155,513,o),
(155,537,cs),
(155,607,ls),
(155,609,o),
(154,611,o),
(151,611,cs),
(146,611,ls),
(134,611,o),
(124,606,o),
(118,598,cs),
(111,589,o),
(108,577,o),
(108,563,cs),
(108,537,ls),
(108,513,o),
(96,506,o),
(83,506,cs),
(70,506,o),
(59,513,o),
(59,537,cs),
(59,607,ls),
(59,609,o),
(58,611,o),
(55,611,cs),
(50,611,ls),
(36,611,o),
(26,606,o),
(20,596,cs),
(14,587,o),
(12,576,o),
(12,563,cs),
(12,542,ls),
(12,490,o),
(42,462,o),
(84,462,cs),
(102,462,o),
(119,468,o),
(131,481,c),
(144,468,o),
(160,462,o),
(180,462,cs),
(221,462,o),
(250,490,o),
(250,542,cs),
(250,607,ls),
(250,609,o),
(250,611,o),
(246,611,cs),
(241,611,ls)
);
}
);
width = 0;
}
);
note = uni0651;
unicode = 1617;
},
{
glyphname = uni0652;
layers = (
{
layerId = m01;
shapes = (
{
closed = 1;
nodes = (
(103,463,o),
(129,490,o),
(129,527,cs),
(129,563,o),
(103,590,o),
(65,590,cs),
(27,590,o),
(1,563,o),
(1,527,cs),
(1,490,o),
(27,463,o),
(65,463,cs)
);
},
{
closed = 1;
nodes = (
(51,499,o),
(41,511,o),
(41,527,cs),
(41,543,o),
(51,554,o),
(65,554,cs),
(79,554,o),
(89,543,o),
(89,527,cs),
(89,511,o),
(79,499,o),
(65,499,cs)
);
}
);
width = 0;
}
);
note = uni0652;
unicode = 1618;
},
{
glyphname = uni0653;
layers = (
{
layerId = m01;
shapes = (
{
closed = 1;
nodes = (
(186,614,o),
(204,634,o),
(204,660,cs),
(204,669,o),
(201,679,o),
(196,687,cs),
(195,689,o),
(193,690,o),
(191,690,cs),
(186,690,o),
(184,683,o),
(180,677,cs),
(174,669,o),
(166,661,o),
(155,661,cs),
(131,661,o),
(86,692,o),
(58,692,cs),
(30,693,o),
(12,673,o),
(12,647,cs),
(12,638,o),
(15,628,o),
(20,621,c),
(21,618,o),
(23,617,o),
(25,617,cs),
(30,617,o),
(32,624,o),
(36,630,cs),
(42,638,o),
(50,646,o),
(61,646,cs),
(85,646,o),
(129,616,o),
(159,616,cs)
);
}
);
width = 0;
}
);
note = uni0653;
unicode = 1619;
},
{
glyphname = uni0654;
layers = (
{
layerId = m01;
shapes = (
{
closed = 1;
nodes = (
(115,669,o),
(100,686,o),
(100,707,cs),
(100,727,o),
(114,742,o),
(138,742,cs),
(150,742,o),
(159,739,o),
(171,733,cs),
(179,729,o),
(181,727,o),
(184,727,cs),
(188,727,o),
(189,729,o),
(189,737,cs),
(189,764,o),
(164,787,o),
(128,786,cs),
(85,785,o),
(53,751,o),
(53,707,cs),
(53,694,o),
(56,679,o),
(64,666,c),
(45,661,o),
(33,649,o),
(32,631,cs),
(32,625,o),
(33,621,o),
(35,617,cs),
(36,613,o),
(38,612,o),
(39,612,cs),
(40,612,o),
(42,613,o),
(46,615,cs),
(55,619,o),
(67,624,o),
(89,624,cs),
(202,624,ls),
(209,624,o),
(210,626,o),
(210,631,cs),
(210,636,ls),
(210,655,o),
(197,669,o),
(173,669,cs),
(137,669,ls)
);
}
);
width = 0;
}
);
note = uni0654;
unicode = 1620;
},
{
glyphname = uni0655;
layers = (
{
layerId = m01;
shapes = (
{
closed = 1;
nodes = (
(99,-183,o),
(84,-167,o),
(84,-146,cs),
(84,-126,o),
(98,-111,o),
(122,-111,cs),
(134,-111,o),
(143,-114,o),
(155,-120,cs),
(163,-124,o),
(165,-126,o),
(168,-126,cs),
(172,-126,o),
(173,-123,o),
(173,-116,cs),
(173,-88,o),
(148,-66,o),
(112,-67,cs),
(69,-68,o),
(37,-102,o),
(37,-146,cs),
(37,-158,o),
(40,-174,o),
(48,-187,c),
(29,-192,o),
(17,-203,o),
(16,-222,cs),
(16,-228,o),
(17,-232,o),
(19,-236,cs),
(20,-239,o),
(22,-241,o),
(23,-241,cs),
(24,-241,o),
(26,-239,o),
(30,-238,c),
(39,-233,o),
(51,-228,o),
(73,-228,cs),
(186,-228,ls),
(193,-228,o),
(194,-227,o),
(194,-222,cs),
(194,-217,ls),
(194,-198,o),
(181,-183,o),
(157,-183,cs),
(121,-183,ls)
);
}
);
width = 0;
}
);
note = uni0655;
unicode = 1621;
},
{
glyphname = uni065A;
layers = (
{
layerId = m01;
shapes = (
{
closed = 1;
nodes = (
(252,576,o),
(238,566,o),
(228,541,cs),
(205,485,l),
(182,541,ls),
(173,566,o),
(158,576,o),
(130,576,cs),
(121,576,o),
(121,573,o),
(123,567,cs),
(175,437,ls),
(178,430,o),
(184,426,o),
(191,426,cs),
(219,426,ls),
(226,426,o),
(233,430,o),
(235,437,c),
(287,567,ls),
(289,573,o),
(289,576,o),
(280,576,cs)
);
}
);
width = 333;
}
);
note = uni065A;
unicode = 1626;
},
{
glyphname = zero.ar;
layers = (
{
layerId = m01;
shapes = (
{
closed = 1;
nodes = (
(180,82,o),
(140,133,o),
(140,278,cs),
(140,423,o),
(180,474,o),
(251,474,cs),
(321,474,o),
(363,423,o),
(363,278,cs),
(363,133,o),
(323,82,o),
(251,82,cs)
);
},
{
closed = 1;
nodes = (
(386,-10,o),
(460,92,o),
(460,278,cs),
(460,463,o),
(383,566,o),
(251,566,cs),
(118,566,o),
(42,463,o),
(42,278,cs),
(42,92,o),
(115,-10,o),
(251,-10,cs)
);
}
);
width = 502;
}
);
note = zero.ar;
unicode = 1632;
},
{
glyphname = one.ar;
layers = (
{
layerId = m01;
shapes = (
{
closed = 1;
nodes = (
(42,89,ls),
(34,89,o),
(31,86,o),
(31,78,cs),
(31,11,ls),
(31,3,o),
(34,0,o),
(42,0,cs),
(330,0,ls),
(339,0,o),
(344,6,o),
(344,14,cs),
(344,34,ls),
(344,69,o),
(324,89,o),
(285,89,cs),
(233,89,l),
(233,494,ls),
(233,533,o),
(213,556,o),
(173,556,cs),
(153,556,ls),
(136,556,o),
(118,551,o),
(102,546,cs),
(45,526,l),
(37,522,o),
(32,517,o),
(32,507,cs),
(32,436,ls),
(32,428,o),
(38,426,o),
(44,428,cs),
(136,461,l),
(136,89,l)
);
}
);
width = 363;
}
);
note = one.ar;
unicode = 1633;
},
{
glyphname = two.ar;
layers = (
{
layerId = m01;
shapes = (
{
closed = 1;
nodes = (
(164,192,o),
(408,225,o),
(408,408,cs),
(408,513,o),
(331,566,o),
(224,566,cs),
(171,566,o),
(129,556,o),
(91,542,cs),
(51,527,o),
(41,503,o),
(51,467,c),
(60,444,l),
(61,439,o),
(65,437,o),
(69,437,cs),
(73,437,o),
(76,438,o),
(81,441,cs),
(123,463,o),
(166,479,o),
(215,479,cs),
(274,479,o),
(309,452,o),
(309,403,cs),
(309,252,o),
(32,272,o),
(32,11,cs),
(32,3,o),
(35,0,o),
(43,0,cs),
(400,0,ls),
(409,0,o),
(413,6,o),
(413,14,cs),
(413,35,ls),
(413,71,o),
(394,89,o),
(355,89,cs),
(150,89,l)
);
}
);
width = 456;
}
);
note = two.ar;
unicode = 1634;
},
